<svg width="169" height="132" viewBox="0 0 169 132" fill="none" xmlns="http://www.w3.org/2000/svg">
<g clip-path="url(#clip0_819_35)">
<path d="M35.0842 86.825C27.4434 79.276 24.2163 71.4006 25.9971 64.6496C28.2824 55.9861 38.4349 49.9961 53.8514 48.2153L53.9084 48.7123C38.7065 50.4681 28.7089 56.3237 26.4789 64.7776C24.7458 71.3476 27.9261 79.051 35.4339 86.4687L35.0842 86.825Z" fill="#F0F0F0"/>
<path d="M108.805 113.621C99.2689 113.621 88.9061 112.199 78.613 109.464C65.8841 106.082 54.2132 100.978 44.8618 94.7018L45.1387 94.2861C54.4451 100.532 66.0643 105.613 78.7405 108.981C90.1957 112.024 101.737 113.435 112.112 113.063L112.13 113.562C111.034 113.602 109.926 113.621 108.805 113.621Z" fill="#F0F0F0"/>
<path d="M130.682 110.476L130.522 110.002C139.051 107.108 144.386 102.446 145.949 96.5201C147.936 88.9863 143.619 80.2439 133.792 71.9031C123.915 63.52 109.673 56.5641 93.6875 52.317L93.815 51.8335C109.87 56.0992 124.182 63.0911 134.114 71.5213C144.096 79.9937 148.47 88.9172 146.431 96.6481C144.823 102.744 139.377 107.526 130.682 110.476Z" fill="#F0F0F0"/>
<path d="M52.3678 113.83C33.6298 105.49 19.1907 94.6691 11.7107 83.3612L12.1258 83.0845C19.5541 94.3142 33.9174 105.071 52.5697 113.373L52.3678 113.83Z" fill="#F0F0F0"/>
<path d="M118.249 128.28C116.316 128.28 114.351 128.236 112.352 128.15L112.373 127.65C127.289 128.298 140.45 126.507 150.435 122.468L150.622 122.932C141.911 126.455 130.809 128.28 118.249 128.28Z" fill="#F0F0F0"/>
<path d="M107.377 48.664C104.28 47.652 101.095 46.7097 97.9089 45.8633C79.5769 40.9927 61.5564 39.2634 45.7947 40.8633L45.7446 40.3656C61.565 38.7604 79.6473 40.4939 98.0364 45.3798C101.231 46.2287 104.426 47.1736 107.531 48.1885L107.377 48.664Z" fill="#F0F0F0"/>
<path d="M23.3735 87.575C15.7328 80.026 12.5056 72.1506 14.2864 65.3996C16.5717 56.7361 26.7242 50.7461 42.1407 48.9653L42.1977 49.4623C26.9958 51.2181 16.9982 57.0737 14.7682 65.5276C13.0351 72.0976 16.2154 79.801 23.7232 87.2187L23.3735 87.575Z" fill="#F0F0F0"/>
<path d="M97.0941 114.372C87.5579 114.372 77.1952 112.95 66.902 110.215C54.1732 106.833 42.5022 101.728 33.1509 95.4522L33.4278 95.0366C42.7341 101.282 54.3534 106.363 67.0295 109.731C78.4848 112.775 90.026 114.185 100.401 113.813L100.419 114.313C99.3234 114.352 98.2151 114.372 97.0941 114.372Z" fill="#F0F0F0"/>
<path d="M118.971 111.226L118.812 110.752C127.34 107.858 132.675 103.196 134.238 97.2701C136.225 89.7363 131.908 80.9939 122.081 72.6531C112.205 64.27 97.9621 57.3141 81.9768 53.067L82.1043 52.5835C98.1594 56.8492 112.471 63.8411 122.403 72.2713C132.385 80.7437 136.759 89.6672 134.72 97.3981C133.112 103.494 127.666 108.276 118.971 111.226Z" fill="#F0F0F0"/>
<path d="M40.6571 114.58C21.9191 106.24 7.48005 95.4191 0 84.1112L0.415116 83.8345C7.84347 95.0642 22.2067 105.821 40.859 114.123L40.6571 114.58Z" fill="#F0F0F0"/>
<path d="M106.538 129.03C104.606 129.03 102.64 128.987 100.641 128.9L100.663 128.401C115.579 129.049 128.739 127.257 138.724 123.219L138.911 123.683C130.2 127.205 119.099 129.03 106.538 129.03Z" fill="#F0F0F0"/>
<path d="M95.6663 49.414C92.5692 48.402 89.3836 47.4597 86.198 46.6133C67.866 41.7427 49.8454 40.0134 34.0838 41.6133L34.0337 41.1156C49.8541 39.5104 67.9363 41.2439 86.3255 46.1298C89.5201 46.9787 92.7147 47.9236 95.8205 48.9385L95.6663 49.414Z" fill="#F0F0F0"/>
<path d="M8.49383 74.1795C12.0749 70.1499 17.7873 67.694 22.964 69.1642C18.1883 72.556 14.7619 77.5339 13.2911 83.2171C12.7318 85.4109 12.3373 87.9095 10.5194 89.2508C9.38824 90.0855 7.88943 90.2848 6.49834 90.0948C5.10719 89.9046 3.79182 89.3617 2.4942 88.8237L2.14502 88.8541C3.14893 83.5494 4.91276 78.2091 8.49383 74.1795Z" fill="#F2F2F2"/>
<path d="M22.9481 69.2762C18.62 70.3279 14.7322 72.7215 11.8367 76.1171C11.2005 76.837 10.6813 77.653 10.2982 78.5352C9.95275 79.4066 9.8461 80.3549 9.98934 81.2817C10.1056 82.1486 10.3246 83.0217 10.2288 83.9018C10.1732 84.3516 10.0234 84.7845 9.78936 85.1721C9.55531 85.5597 9.24227 85.8933 8.87075 86.1509C7.96169 86.8171 6.86833 87.1158 5.789 87.3706C4.59061 87.6534 3.3414 87.9282 2.36452 88.7275C2.24616 88.8244 2.10334 88.6344 2.22153 88.5377C3.92113 87.147 6.2832 87.3256 8.16365 86.3155C9.0411 85.8442 9.78234 85.1046 9.96256 84.0898C10.1202 83.2024 9.89514 82.3018 9.76987 81.4251C9.61692 80.5231 9.68638 79.5972 9.97219 78.7283C10.3093 77.8294 10.7963 76.9946 11.4124 76.2598C12.7732 74.5831 14.3882 73.1316 16.1982 71.9584C18.2566 70.608 20.5301 69.6209 22.9201 69.0398C23.0681 69.0039 23.0951 69.2405 22.9481 69.2762L22.9481 69.2762Z" fill="white"/>
<path d="M12.705 74.969C12.2033 74.4041 11.918 73.6786 11.9001 72.9221C11.8821 72.1656 12.1327 71.4274 12.6071 70.8392C12.7035 70.7205 12.8918 70.8652 12.7952 70.9841C12.3525 71.531 12.1192 72.2187 12.1373 72.9231C12.1554 73.6275 12.4239 74.3022 12.8942 74.8255C12.9962 74.9393 12.8065 75.0821 12.705 74.969H12.705Z" fill="white"/>
<path d="M9.8727 80.85C11.4106 80.9525 12.9306 80.4695 14.1294 79.4973C14.2481 79.4008 14.3909 79.5908 14.2724 79.6871C13.023 80.6965 11.4402 81.1959 9.84005 81.0857C9.68754 81.0751 9.72102 80.8394 9.8727 80.85Z" fill="white"/>
<path d="M18.31 70.9191C18.4588 71.1782 18.6693 71.3963 18.9228 71.5536C19.1762 71.7109 19.4646 71.8026 19.7621 71.8204C19.9147 71.829 19.881 72.0647 19.7294 72.0561C19.4009 72.0349 19.0825 71.9332 18.8021 71.76C18.5217 71.5869 18.2878 71.3474 18.1209 71.0626C18.1029 71.037 18.0953 71.0056 18.0996 70.9747C18.1038 70.9437 18.1197 70.9155 18.1439 70.8959C18.1691 70.877 18.2006 70.8689 18.2317 70.8732C18.2628 70.8775 18.291 70.894 18.31 70.9191V70.9191Z" fill="white"/>
<path d="M30.3123 85.8923C30.2169 85.8896 30.1215 85.8869 30.0248 85.8858C28.7418 85.8563 27.4585 85.9315 26.1875 86.1105C26.089 86.1228 25.9894 86.1367 25.8915 86.1518C22.8341 86.616 19.8892 87.6458 17.2064 89.1889C16.1394 89.8039 15.1206 90.4995 14.1588 91.2697C12.8305 92.3334 11.4747 93.5927 9.91963 94.1379C9.75803 94.1966 9.59296 94.2452 9.42538 94.2834L2.20885 89.2794C2.19813 89.2598 2.1862 89.2418 2.17541 89.2221L1.87817 89.0355C1.92501 88.9923 1.97452 88.9485 2.02136 88.9053C2.04843 88.8802 2.07711 88.8561 2.10417 88.8309C2.12273 88.8145 2.14137 88.7981 2.15718 88.7822C2.16333 88.7767 2.16957 88.7713 2.17459 88.7675C2.1904 88.7516 2.20677 88.7385 2.22143 88.7243C2.49749 88.4787 2.77575 88.2347 3.05621 87.9922C3.05734 87.9905 3.05735 87.9905 3.06009 87.99C5.20174 86.1476 7.51545 84.4685 10.0096 83.1953C10.0846 83.157 10.1607 83.117 10.2391 83.081C11.3665 82.5133 12.5382 82.0391 13.7426 81.663C14.4027 81.4592 15.0727 81.289 15.75 81.1532C17.5007 80.8057 19.2949 80.7367 21.067 80.9487C24.5994 81.372 27.9577 82.9243 30.1471 85.6801C30.2031 85.7507 30.2575 85.8201 30.3123 85.8923Z" fill="#F2F2F2"/>
<path d="M30.2329 85.9728C26.1463 84.1974 21.6061 83.7593 17.2572 84.721C16.3174 84.9113 15.4133 85.2491 14.5782 85.722C13.7796 86.209 13.1255 86.9018 12.6839 87.7284C12.2567 88.4907 11.9077 89.3202 11.3033 89.965C10.9891 90.2905 10.6098 90.5457 10.1904 90.7137C9.77099 90.8818 9.32093 90.959 8.86971 90.9402C7.74422 90.9229 6.69207 90.5007 5.67744 90.0519C4.55091 89.5537 3.38864 89.0182 2.12916 89.0661C1.97655 89.0719 1.9765 88.834 2.12887 88.8282C4.32015 88.7448 6.09902 90.3146 8.20641 90.6444C9.18975 90.7982 10.2253 90.6556 10.9779 89.9542C11.6361 89.3409 11.9968 88.4859 12.4226 87.7102C12.8417 86.8976 13.4526 86.2003 14.202 85.6792C15.0104 85.1652 15.9 84.7929 16.8328 84.5785C18.9252 84.062 21.0854 83.8789 23.2345 84.0359C25.6881 84.2014 28.0955 84.787 30.3524 85.7672C30.492 85.8279 30.3717 86.0332 30.2329 85.9728V85.9728Z" fill="white"/>
<path d="M18.6393 84.3283C18.5776 83.5741 18.785 82.8225 19.2245 82.2076C19.6641 81.5928 20.307 81.1547 21.0386 80.9717C21.1868 80.9352 21.2503 81.1645 21.1019 81.2011C20.4204 81.3703 19.8215 81.7784 19.4134 82.3518C19.0053 82.9252 18.8148 83.6261 18.8764 84.328C18.8897 84.4806 18.6525 84.48 18.6393 84.3283Z" fill="white"/>
<path d="M12.8498 87.3129C14.0162 88.3241 15.5196 88.8568 17.06 88.805C17.2126 88.7997 17.2127 89.0377 17.0603 89.0429C15.4572 89.0939 13.8938 88.5363 12.6823 87.4814C12.5669 87.3808 12.735 87.2129 12.8498 87.3129V87.3129Z" fill="white"/>
<path d="M25.544 84.4816C25.5073 84.7784 25.5446 85.0797 25.6526 85.3585C25.7606 85.6372 25.9359 85.8847 26.1627 86.0787C26.2793 86.1778 26.1111 86.3456 25.9953 86.2471C25.7456 86.0317 25.5524 85.7581 25.4324 85.4504C25.3124 85.1427 25.2693 84.8102 25.3069 84.4819C25.3078 84.4507 25.3206 84.421 25.3426 84.3989C25.3646 84.3767 25.3942 84.3638 25.4253 84.3628C25.4567 84.3629 25.4868 84.3755 25.509 84.3977C25.5312 84.42 25.5438 84.4501 25.544 84.4816H25.544Z" fill="white"/>
<path d="M148.813 107.212C146.789 102.209 142.232 97.969 136.864 97.6074C140.226 102.413 141.786 108.257 141.268 114.106C141.06 116.361 140.595 118.847 141.858 120.723C142.643 121.891 143.988 122.584 145.362 122.875C146.736 123.165 148.157 123.097 149.559 123.028L149.878 123.174C150.709 117.84 150.836 112.215 148.813 107.212Z" fill="#F2F2F2"/>
<path d="M136.841 97.7186C140.565 100.169 143.425 103.735 145.015 107.91C145.373 108.802 145.589 109.746 145.654 110.706C145.688 111.643 145.471 112.572 145.026 113.397C144.626 114.174 144.127 114.923 143.923 115.784C143.824 116.226 143.82 116.684 143.911 117.128C144.002 117.572 144.185 117.992 144.448 118.36C145.081 119.294 146.011 119.944 146.942 120.548C147.976 121.219 149.061 121.899 149.713 122.981C149.792 123.113 149.99 122.982 149.912 122.851C148.776 120.968 146.492 120.339 145.059 118.754C144.391 118.014 143.94 117.067 144.11 116.051C144.259 115.162 144.773 114.389 145.184 113.606C145.63 112.808 145.875 111.913 145.897 110.998C145.88 110.037 145.701 109.087 145.367 108.187C144.647 106.149 143.612 104.237 142.3 102.522C140.814 100.555 139.003 98.8589 136.947 97.5054C136.819 97.4217 136.715 97.6354 136.841 97.7186V97.7186Z" fill="white"/>
<path d="M144.582 106.535C145.244 106.172 145.756 105.585 146.026 104.879C146.296 104.172 146.307 103.393 146.057 102.679C146.006 102.534 145.781 102.607 145.832 102.752C146.066 103.416 146.055 104.142 145.802 104.8C145.549 105.457 145.07 106.002 144.452 106.336C144.318 106.409 144.449 106.607 144.582 106.535V106.535Z" fill="white"/>
<path d="M145.28 113.03C143.797 112.608 142.528 111.64 141.724 110.32C141.644 110.189 141.446 110.32 141.526 110.45C142.364 111.823 143.688 112.827 145.232 113.263C145.379 113.304 145.426 113.071 145.28 113.03V113.03Z" fill="white"/>
<path d="M140.66 100.83C140.433 101.024 140.161 101.159 139.87 101.221C139.579 101.284 139.276 101.273 138.99 101.189C138.843 101.146 138.796 101.379 138.942 101.422C139.258 101.513 139.592 101.525 139.914 101.456C140.237 101.388 140.537 101.241 140.79 101.029C140.815 101.011 140.833 100.984 140.839 100.954C140.845 100.923 140.84 100.891 140.824 100.865C140.806 100.838 140.779 100.82 140.749 100.814C140.718 100.807 140.686 100.813 140.66 100.83V100.83Z" fill="white"/>
<path d="M124.341 110.884C124.432 110.913 124.522 110.943 124.614 110.975C125.832 111.38 127.016 111.883 128.153 112.481C128.241 112.525 128.33 112.572 128.418 112.619C131.142 114.088 133.57 116.051 135.58 118.409C136.379 119.348 137.106 120.347 137.754 121.397C138.649 122.847 139.504 124.49 140.786 125.528C140.918 125.638 141.058 125.74 141.203 125.832L149.675 123.553C149.692 123.539 149.709 123.526 149.726 123.511L150.068 123.435C150.039 123.379 150.007 123.321 149.977 123.264C149.96 123.231 149.941 123.199 149.924 123.166C149.912 123.145 149.9 123.123 149.89 123.103C149.886 123.095 149.882 123.088 149.879 123.083C149.869 123.062 149.858 123.045 149.849 123.026C149.671 122.702 149.491 122.378 149.308 122.055C149.308 122.053 149.308 122.053 149.305 122.052C147.905 119.594 146.288 117.232 144.366 115.192C144.308 115.131 144.25 115.067 144.188 115.007C143.316 114.092 142.371 113.25 141.363 112.49C140.81 112.075 140.235 111.689 139.643 111.332C138.111 110.414 136.444 109.744 134.704 109.346C131.235 108.553 127.552 108.883 124.568 110.74C124.491 110.787 124.417 110.834 124.341 110.884Z" fill="#F2F2F2"/>
<path d="M124.389 110.986C128.832 110.692 133.255 111.811 137.029 114.184C137.85 114.68 138.589 115.303 139.217 116.03C139.806 116.759 140.19 117.632 140.329 118.559C140.476 119.421 140.527 120.32 140.88 121.131C141.067 121.544 141.339 121.912 141.678 122.212C142.016 122.512 142.414 122.736 142.846 122.871C143.911 123.234 145.044 123.191 146.15 123.111C147.378 123.022 148.652 122.909 149.822 123.379C149.963 123.436 150.043 123.212 149.902 123.155C147.866 122.338 145.665 123.216 143.569 122.816C142.592 122.629 141.664 122.145 141.19 121.231C140.776 120.431 140.722 119.504 140.581 118.63C140.459 117.723 140.117 116.861 139.585 116.117C138.996 115.36 138.283 114.71 137.476 114.193C135.679 113.001 133.705 112.1 131.629 111.523C129.262 110.851 126.799 110.59 124.345 110.752C124.193 110.762 124.238 110.996 124.389 110.986V110.986Z" fill="white"/>
<path d="M135.858 113.348C136.169 112.659 136.225 111.881 136.017 111.154C135.809 110.426 135.351 109.797 134.723 109.378C134.596 109.293 134.459 109.488 134.586 109.572C135.172 109.962 135.599 110.548 135.791 111.226C135.984 111.903 135.928 112.628 135.635 113.268C135.572 113.407 135.795 113.487 135.858 113.348H135.858Z" fill="white"/>
<path d="M140.312 118.112C138.875 118.671 137.28 118.666 135.847 118.097C135.705 118.041 135.625 118.265 135.767 118.321C137.26 118.91 138.919 118.912 140.413 118.328C140.555 118.272 140.453 118.057 140.312 118.112V118.112Z" fill="white"/>
<path d="M129.304 111.164C129.239 111.456 129.103 111.727 128.908 111.953C128.713 112.179 128.465 112.353 128.187 112.459C128.044 112.513 128.146 112.728 128.288 112.674C128.595 112.556 128.869 112.363 129.085 112.114C129.301 111.864 129.453 111.566 129.527 111.244C129.537 111.214 129.535 111.182 129.522 111.154C129.508 111.125 129.485 111.103 129.456 111.092C129.426 111.081 129.394 111.083 129.365 111.096C129.337 111.11 129.315 111.134 129.304 111.164V111.164Z" fill="white"/>
<path d="M109.56 124.248C110.661 124.248 111.553 123.352 111.553 122.248C111.553 121.143 110.661 120.247 109.56 120.247C108.459 120.247 107.566 121.143 107.566 122.248C107.566 123.352 108.459 124.248 109.56 124.248Z" fill="#FD6584"/>
<path d="M116.621 90.1749C117.721 90.1749 118.614 89.2792 118.614 88.1743C118.614 87.0695 117.721 86.1738 116.621 86.1738C115.52 86.1738 114.627 87.0695 114.627 88.1743C114.627 89.2792 115.52 90.1749 116.621 90.1749Z" fill="#E6E6E6"/>
<path d="M79.5295 34.6846C80.6303 34.6846 81.5228 33.789 81.5228 32.6841C81.5228 31.5793 80.6303 30.6836 79.5295 30.6836C78.4286 30.6836 77.5361 31.5793 77.5361 32.6841C77.5361 33.789 78.4286 34.6846 79.5295 34.6846Z" fill="#E6E6E6"/>
<path d="M37.7586 109.424C37.7586 109.933 37.7753 110.442 37.8108 110.947C37.8484 111.551 37.9131 112.15 38.0008 112.745C38.2955 114.749 38.8588 116.704 39.6755 118.556C39.7172 118.649 39.759 118.741 39.8007 118.833L39.8634 118.971C39.8843 119.017 39.9072 119.064 39.9281 119.108C39.9574 119.168 39.9845 119.227 40.0137 119.286C40.0492 119.359 40.0847 119.432 40.1223 119.506C40.1265 119.514 40.1307 119.525 40.1369 119.535C40.1683 119.598 40.1975 119.659 40.2309 119.722C40.237 119.735 40.244 119.749 40.2518 119.761C40.2873 119.833 40.3249 119.906 40.3624 119.977C40.4042 120.053 40.4439 120.13 40.4856 120.206C40.5859 120.392 40.6903 120.577 40.7968 120.761C40.8281 120.816 40.8594 120.87 40.8928 120.925C40.9221 120.975 40.9513 121.025 40.9826 121.075C41.0035 121.109 41.0244 121.145 41.0453 121.178C41.0787 121.235 41.1121 121.289 41.1476 121.346C41.2248 121.469 41.3042 121.593 41.3814 121.717H41.3835C41.419 121.773 41.4566 121.83 41.4942 121.884V121.886C41.6049 122.054 41.7197 122.222 41.8346 122.387C41.8348 122.387 41.8351 122.387 41.8354 122.387C41.8356 122.388 41.8359 122.388 41.8361 122.388C41.8363 122.388 41.8364 122.388 41.8365 122.389C41.8366 122.389 41.8367 122.389 41.8367 122.389C41.9285 122.524 42.0246 122.653 42.1185 122.783V122.785C42.1812 122.867 42.2418 122.951 42.3044 123.033C42.3545 123.1 42.4067 123.169 42.4589 123.236C42.4694 123.251 42.4819 123.263 42.4923 123.278V123.28C42.5069 123.299 42.5216 123.316 42.5362 123.335C42.7575 123.62 42.9858 123.898 43.2211 124.171L43.2587 124.215C43.2712 124.229 43.2858 124.244 43.2983 124.261C43.3192 124.284 43.338 124.307 43.3589 124.33C43.3777 124.353 43.3986 124.376 43.4194 124.399C44.6458 125.786 46.0364 127.016 47.5602 128.064C47.7627 128.205 47.9695 128.341 48.1762 128.473C48.2284 128.507 48.2806 128.54 48.3328 128.572C48.3474 128.582 48.3641 128.593 48.3787 128.603C48.408 128.62 48.4351 128.637 48.4643 128.655C48.4915 128.672 48.5186 128.689 48.5479 128.706C48.6585 128.775 48.7713 128.842 48.8841 128.909C48.9112 128.926 48.9404 128.942 48.9697 128.959C48.9968 128.974 49.026 128.991 49.0553 129.007C49.0553 129.01 49.0553 129.01 49.0574 129.01H49.0595V129.012H49.0615C49.2014 129.093 49.3434 129.173 49.4875 129.251C49.5648 129.292 49.6441 129.336 49.7235 129.376C49.903 129.475 50.0847 129.569 50.2664 129.659C50.3311 129.691 50.3979 129.722 50.4627 129.756C50.517 129.781 50.5712 129.808 50.6255 129.833C50.6422 129.842 50.6569 129.848 50.6715 129.856C50.7174 129.877 50.7613 129.898 50.8072 129.919C50.8573 129.942 50.9074 129.965 50.9555 129.988C51.0118 130.013 51.0661 130.039 51.1225 130.062C51.3313 130.156 51.5422 130.246 51.7531 130.332C52.5089 130.643 53.2813 130.912 54.0668 131.137C54.1022 131.147 54.1398 131.158 54.1774 131.168C54.5136 131.262 54.8519 131.348 55.1923 131.426C55.7874 131.564 56.3881 131.677 56.9943 131.765H56.9985C57.0716 131.776 57.1426 131.786 57.2156 131.797C57.2219 131.797 57.2282 131.799 57.2365 131.799C57.2365 131.801 57.2365 131.801 57.2386 131.799C57.318 131.809 57.3994 131.82 57.4787 131.83C57.4842 131.832 57.4898 131.833 57.4955 131.832C57.5706 131.843 57.6479 131.851 57.7231 131.86C57.8045 131.868 57.8859 131.876 57.9674 131.885C58.03 131.891 58.0927 131.897 58.1553 131.904C58.1607 131.906 58.1663 131.906 58.172 131.906C58.2284 131.91 58.2848 131.916 58.3411 131.92H58.3495C58.3975 131.925 58.4476 131.929 58.4957 131.933C59.0782 131.979 59.6629 132 60.2559 132C60.897 132 61.5339 131.975 62.1624 131.92H62.1687C62.3044 131.908 62.438 131.895 62.5717 131.883C62.6072 131.879 62.6406 131.876 62.6761 131.872C62.6823 131.872 62.6907 131.87 62.697 131.87C62.7074 131.868 62.7178 131.868 62.7304 131.866C62.736 131.866 62.7416 131.865 62.7471 131.864C62.793 131.86 62.8389 131.853 62.887 131.849L63.0436 131.83C63.0958 131.824 63.148 131.816 63.2002 131.809C63.2127 131.807 63.2232 131.807 63.2357 131.805C63.2733 131.801 63.3109 131.795 63.3484 131.788C63.3672 131.786 63.386 131.784 63.4027 131.782C63.4403 131.776 63.4758 131.772 63.5134 131.765H63.5155C64.6613 131.6 65.7924 131.344 66.8982 131C66.9567 130.982 67.0152 130.965 67.0736 130.946C67.0757 130.946 67.0778 130.944 67.0799 130.944C67.0966 130.938 67.1154 130.933 67.1321 130.927C67.2887 130.877 67.4432 130.824 67.5978 130.77C67.8108 130.699 68.0216 130.621 68.2325 130.541C68.2889 130.518 68.3453 130.497 68.4017 130.474C68.5165 130.43 68.6293 130.384 68.742 130.338C68.9342 130.261 69.1263 130.179 69.3163 130.095C69.4938 130.015 69.6692 129.936 69.8446 129.852C69.8488 129.85 69.855 129.85 69.8592 129.846C69.8989 129.827 69.9385 129.808 69.9761 129.789H69.9782C70.9398 129.326 71.8672 128.794 72.7533 128.199C73.0373 128.008 73.3171 127.811 73.5927 127.608C73.8141 127.442 74.0312 127.274 74.2484 127.103C75.3198 126.247 76.3115 125.296 77.2114 124.261V124.259C77.2762 124.187 77.3367 124.114 77.3994 124.041C77.4098 124.03 77.4182 124.02 77.4265 124.011C77.4662 123.963 77.5038 123.917 77.5435 123.871V123.869C77.5957 123.808 77.6479 123.745 77.698 123.682C77.7105 123.668 77.7209 123.655 77.7314 123.643V123.641C77.7731 123.59 77.8128 123.54 77.8546 123.488C77.8755 123.462 77.8943 123.437 77.9151 123.412V123.41C78.0383 123.255 78.1574 123.1 78.2764 122.941C78.3077 122.899 78.339 122.855 78.3724 122.811C78.5228 122.607 78.669 122.4 78.8109 122.192V122.19C78.8652 122.113 78.9174 122.033 78.9717 121.956C79.0239 121.876 79.0761 121.796 79.1283 121.717C79.1805 121.633 79.2348 121.551 79.287 121.467L79.2933 121.455C79.3455 121.375 79.3977 121.291 79.4478 121.21C79.4875 121.142 79.5272 121.078 79.5668 121.013C79.5919 120.969 79.619 120.925 79.6441 120.878C79.6539 120.864 79.663 120.85 79.6713 120.834C79.7297 120.732 79.7882 120.629 79.8466 120.526C79.9156 120.407 79.9824 120.285 80.0492 120.164C80.0743 120.114 80.1014 120.063 80.1286 120.013C80.139 119.996 80.1473 119.979 80.1557 119.963C80.187 119.904 80.2183 119.843 80.2476 119.782C80.2789 119.724 80.3102 119.663 80.3415 119.602C80.3708 119.544 80.4021 119.483 80.4313 119.422C80.4543 119.376 80.4752 119.33 80.4981 119.284C80.4997 119.28 80.5019 119.276 80.5044 119.273C80.5148 119.25 80.5253 119.229 80.5336 119.208C80.5362 119.205 80.5383 119.201 80.5399 119.198C80.5629 119.152 80.5838 119.103 80.6067 119.057C80.636 118.997 80.6631 118.934 80.6923 118.873C80.7111 118.831 80.732 118.787 80.7508 118.743C80.778 118.682 80.8072 118.621 80.8322 118.559C80.8615 118.496 80.8886 118.433 80.9158 118.368C80.9236 118.352 80.9306 118.336 80.9367 118.32C80.9513 118.29 80.9617 118.261 80.9742 118.232C81.0076 118.154 81.041 118.074 81.0724 117.997C81.11 117.909 81.1455 117.819 81.1789 117.731C81.2123 117.649 81.2436 117.565 81.2749 117.481L81.2875 117.452C81.774 116.166 82.143 114.838 82.39 113.485V113.483C82.5293 112.71 82.6289 111.931 82.6886 111.148C82.6907 111.104 82.6948 111.062 82.6969 111.021C82.7345 110.49 82.7512 109.958 82.7512 109.424C82.7512 109.187 82.747 108.952 82.7408 108.717C82.595 103.809 80.8509 99.0829 77.7752 95.2633C77.7084 95.1795 77.6416 95.0957 77.5727 95.0118C77.5038 94.928 77.4328 94.8463 77.3639 94.7645C75.0748 92.0742 72.1879 89.9612 68.9359 88.5961C65.6839 87.2309 62.1577 86.6517 58.6417 86.9052C55.1258 87.1587 51.7183 88.2377 48.6941 90.0554C45.6699 91.873 43.1135 94.3783 41.2311 97.3694C41.1288 97.5329 41.0265 97.6984 40.9283 97.864C40.8281 98.0317 40.7321 98.1993 40.636 98.3691C38.7443 101.744 37.7531 105.552 37.7586 109.424Z" fill="#F2F2F2"/>
<path d="M59.3617 94.6564C63.0609 95.6091 66.8518 96.1582 70.6685 96.2942C71.2456 96.3258 71.8242 96.3218 72.4008 96.2824C73.6681 96.1754 74.7536 95.7757 75.9626 95.5573C76.5437 95.4525 77.1911 95.376 77.7763 95.2628C77.6411 95.0945 77.5034 94.9282 77.3634 94.7639C76.1017 94.8709 74.8204 95.2211 73.5436 95.3838C71.3731 95.6608 68.9412 95.3517 67.2958 94.5894C66.4975 94.2195 65.886 93.7579 65.0906 93.3863C64.9824 93.3305 64.8652 93.2945 64.7444 93.2798C64.5151 93.2729 64.2885 93.3319 64.0914 93.4499C62.7568 94.1261 60.8192 94.6756 59.0206 94.3732C58.8866 94.4785 59.1412 94.5984 59.3617 94.6564Z" fill="white"/>
<path d="M51.4028 97.0361C51.3864 97.033 51.37 97.0307 51.3535 97.0278C51.4226 96.9849 51.4877 96.9357 51.5479 96.8809L51.4028 97.0361Z" fill="white"/>
<path d="M40.6362 98.3697C41.3874 98.4299 42.1425 98.4748 42.9015 98.5042C43.4787 98.5355 44.0572 98.5316 44.6339 98.4924C45.9011 98.3849 46.9867 97.9857 48.1956 97.7672C49.3035 97.5674 50.6499 97.4711 51.3534 97.0274C49.5352 96.7116 47.6514 97.3545 45.7766 97.5938C44.2601 97.781 42.7228 97.7048 41.232 97.3686C41.0244 97.6963 40.8258 98.03 40.6362 98.3697Z" fill="white"/>
<path d="M49.7234 129.376C49.903 129.475 50.0846 129.569 50.2663 129.659C50.331 129.69 50.3979 129.722 50.4626 129.755C50.5169 129.781 50.5712 129.808 50.6255 129.833C50.6422 129.841 50.6568 129.848 50.6714 129.856C50.7173 129.877 50.7612 129.898 50.8071 129.919C50.8572 129.942 50.9074 129.965 50.9554 129.988C51.0118 130.013 51.0661 130.038 51.1224 130.061C51.3312 130.156 51.5421 130.246 51.753 130.332C52.5088 130.643 53.2812 130.911 54.0667 131.136C54.1022 131.147 54.1398 131.157 54.1773 131.168C54.5135 131.262 54.8518 131.348 55.1922 131.426C55.7873 131.564 56.388 131.677 56.9942 131.765H56.9984C57.0715 131.776 57.1425 131.786 57.2156 131.797C57.2218 131.797 57.2281 131.799 57.2364 131.799C57.2364 131.801 57.2364 131.801 57.2385 131.799C57.3179 131.809 57.3993 131.82 57.4787 131.83C57.4841 131.832 57.4897 131.832 57.4954 131.832C57.5705 131.843 57.6478 131.851 57.723 131.859C57.8044 131.868 57.8858 131.876 57.9673 131.885C58.0299 131.891 58.0926 131.897 58.1552 131.903C58.1606 131.905 58.1663 131.906 58.1719 131.906C58.2283 131.91 58.2847 131.916 58.3411 131.92H58.3494C58.3974 131.924 58.4476 131.929 58.4956 131.933C59.0782 131.979 59.6628 132 60.2559 132C60.8969 132 61.5338 131.975 62.1623 131.92H62.1686C62.3043 131.908 62.4379 131.895 62.5716 131.882C62.6071 131.878 62.6405 131.876 62.676 131.872C62.6823 131.872 62.6906 131.87 62.6969 131.87C62.7073 131.868 62.7178 131.868 62.7303 131.866C62.7359 131.866 62.7416 131.865 62.747 131.864C62.7929 131.859 62.8389 131.853 62.8869 131.849L63.0435 131.83C63.0957 131.824 63.1479 131.815 63.2001 131.809C63.2126 131.807 63.2231 131.807 63.2356 131.805C63.2732 131.801 63.3108 131.794 63.3484 131.788C63.3672 131.786 63.3859 131.784 63.4027 131.782C63.4402 131.776 63.4757 131.771 63.5133 131.765H63.5154C64.6612 131.6 65.7923 131.344 66.8982 131C66.9566 130.981 67.0151 130.965 67.0736 130.946C66.804 129.684 66.2489 128.501 65.4513 127.489C64.6536 126.476 63.6348 125.662 62.4734 125.107C62.7607 124.833 62.9593 124.478 63.0435 124.089C63.0977 123.838 63.102 123.579 63.0561 123.326C63.0103 123.074 62.9151 122.833 62.7762 122.618C62.5053 122.2 62.0801 121.908 61.5943 121.805L58.4998 121.155C58.0016 121.057 57.4852 121.161 57.0629 121.444C56.6406 121.726 56.3465 122.165 56.2446 122.664C56.213 122.817 56.199 122.973 56.2028 123.129C53.2231 125.12 51.0786 127.184 49.7234 129.376Z" fill="#F2AC20"/>
<path d="M58.8608 119.928C62.4214 119.928 65.3079 117.031 65.3079 113.458C65.3079 109.884 62.4214 106.987 58.8608 106.987C55.3001 106.987 52.4136 109.884 52.4136 113.458C52.4136 117.031 55.3001 119.928 58.8608 119.928Z" fill="#FFB8B8"/>
<path d="M54.8421 119.036C54.1546 118.565 53.4525 117.659 52.9838 116.98C52.3627 116.088 51.9354 115.075 51.7295 114.006C51.5235 112.938 51.5436 111.837 51.7884 110.777C51.8665 110.353 52.0584 109.959 52.3434 109.636C52.6471 109.334 53.143 109.191 53.5136 109.405C53.4125 109.133 53.368 108.843 53.3827 108.553C53.3975 108.264 53.4713 107.98 53.5996 107.72C53.8601 107.201 54.2375 106.75 54.702 106.402C55.5902 105.716 56.6471 105.283 57.7605 105.151C58.8738 105.019 60.0021 105.191 61.0255 105.651C61.4282 105.838 60.7668 104.392 61.1883 104.531C61.607 104.694 62.0726 104.686 62.4854 104.508C62.8818 104.308 64.1959 105.498 64.0439 105.079C64.3447 105.217 64.6061 105.428 64.8037 105.694C65.0013 105.959 65.1287 106.271 65.1739 106.6C65.2192 106.928 65.1809 107.263 65.0626 107.572C64.9443 107.882 64.7498 108.156 64.4973 108.37C64.1646 108.652 63.7492 108.815 63.3848 109.054C62.7465 109.505 62.2947 110.174 62.1147 110.936C61.9347 111.699 62.039 112.501 62.4078 113.191C62.0245 112.944 61.6039 112.76 61.1623 112.648C60.9408 112.593 60.7095 112.593 60.4878 112.646C60.2661 112.7 60.0603 112.806 59.8876 112.955C59.7433 113.121 59.6342 113.315 59.5672 113.524C59.5001 113.734 59.4765 113.955 59.4977 114.174C59.5121 114.613 59.6162 115.046 59.6279 115.485C59.6622 116.774 60.3499 119.224 59.3543 119.909C58.5687 120.449 55.7809 119.68 54.8421 119.036Z" fill="#2F2E41"/>
<path d="M168.788 7.81659H0.211603C0.155054 7.81533 0.101244 7.7919 0.0616946 7.75131C0.0221449 7.71073 0 7.65622 0 7.59946C0 7.54269 0.0221449 7.48818 0.0616946 7.4476C0.101244 7.40701 0.155054 7.38358 0.211603 7.38232H168.788C168.845 7.38358 168.899 7.40701 168.938 7.4476C168.978 7.48818 169 7.54269 169 7.59946C169 7.65622 168.978 7.71073 168.938 7.75131C168.899 7.7919 168.845 7.81533 168.788 7.81659V7.81659Z" fill="#CACACA"/>
<path d="M4.9752 4.7769C6.26091 4.7769 7.30318 3.70755 7.30318 2.38845C7.30318 1.06935 6.26091 0 4.9752 0C3.68949 0 2.64722 1.06935 2.64722 2.38845C2.64722 3.70755 3.68949 4.7769 4.9752 4.7769Z" fill="#EF2121"/>
<path d="M13.0172 4.7769C14.3029 4.7769 15.3452 3.70755 15.3452 2.38845C15.3452 1.06935 14.3029 0 13.0172 0C11.7315 0 10.6892 1.06935 10.6892 2.38845C10.6892 3.70755 11.7315 4.7769 13.0172 4.7769Z" fill="#E7D005"/>
<path d="M21.0594 4.7769C22.3451 4.7769 23.3874 3.70755 23.3874 2.38845C23.3874 1.06935 22.3451 0 21.0594 0C19.7737 0 18.7314 1.06935 18.7314 2.38845C18.7314 3.70755 19.7737 4.7769 21.0594 4.7769Z" fill="#11CC24"/>
<path d="M163.97 1.46081H158.256C158.143 1.45831 158.035 1.41145 157.956 1.33028C157.877 1.24912 157.833 1.14009 157.833 1.02655C157.833 0.913005 157.877 0.80398 157.956 0.722813C158.035 0.641645 158.143 0.594791 158.256 0.592285H163.97C164.083 0.594791 164.191 0.641645 164.27 0.722813C164.349 0.80398 164.393 0.913005 164.393 1.02655C164.393 1.14009 164.349 1.24912 164.27 1.33028C164.191 1.41145 164.083 1.45831 163.97 1.46081V1.46081Z" fill="#3F3D56"/>
<path d="M163.97 3.08923H158.256C158.143 3.08674 158.035 3.03989 157.956 2.95872C157.877 2.87755 157.833 2.76851 157.833 2.65497C157.833 2.54142 157.877 2.43238 157.956 2.35121C158.035 2.27005 158.143 2.2232 158.256 2.2207H163.97C164.083 2.2232 164.191 2.27005 164.27 2.35121C164.349 2.43238 164.393 2.54142 164.393 2.65497C164.393 2.76851 164.349 2.87755 164.27 2.95872C164.191 3.03989 164.083 3.08674 163.97 3.08923Z" fill="#3F3D56"/>
<path d="M163.97 4.71814H158.256C158.143 4.71564 158.035 4.66879 157.956 4.58763C157.877 4.50646 157.833 4.39742 157.833 4.28387C157.833 4.17032 157.877 4.06129 157.956 3.98012C158.035 3.89895 158.143 3.8521 158.256 3.84961H163.97C164.083 3.8521 164.191 3.89895 164.27 3.98012C164.349 4.06129 164.393 4.17032 164.393 4.28387C164.393 4.39742 164.349 4.50646 164.27 4.58763C164.191 4.66879 164.083 4.71564 163.97 4.71814Z" fill="#3F3D56"/>
<path d="M63.2937 81.0715C63.1579 81.0712 63.0235 81.044 62.8983 80.9913C62.7114 80.916 62.5515 80.7857 62.4396 80.6176C62.3277 80.4495 62.2689 80.2515 62.271 80.0493V79.0251C62.2708 78.8103 62.1857 78.6043 62.0344 78.4524C61.883 78.3005 61.6778 78.215 61.4637 78.2148C61.1943 78.2145 60.936 78.1069 60.7455 77.9157C60.555 77.7245 60.4478 77.4653 60.4475 77.1949V63.1634C60.4478 62.8931 60.555 62.6338 60.7454 62.4426C60.9359 62.2514 61.1942 62.1439 61.4636 62.1436H107.784C108.053 62.1439 108.311 62.2514 108.502 62.4426C108.692 62.6338 108.8 62.893 108.8 63.1634V77.1949C108.8 77.4653 108.692 77.7245 108.502 77.9157C108.311 78.1069 108.053 78.2145 107.784 78.2148H66.8867C66.7806 78.2145 66.6756 78.2353 66.5776 78.2761C66.4796 78.3168 66.3906 78.3766 66.3157 78.4521L64.0059 80.7703C63.913 80.8653 63.8021 80.9409 63.6799 80.9926C63.5576 81.0443 63.4264 81.0712 63.2937 81.0715V81.0715Z" fill="white"/>
<path d="M63.2938 81.2812C63.1305 81.281 62.9689 81.2483 62.8183 81.185C62.593 81.0941 62.4004 80.9371 62.2655 80.7344C62.1306 80.5318 62.0598 80.2931 62.0623 80.0494V79.0253C62.0622 78.866 61.9991 78.7133 61.8869 78.6007C61.7747 78.488 61.6225 78.4246 61.4638 78.4244C61.139 78.4241 60.8276 78.2944 60.598 78.0639C60.3683 77.8334 60.2391 77.5209 60.2388 77.1949V63.1635C60.2391 62.8376 60.3683 62.5251 60.5979 62.2946C60.8276 62.0641 61.1389 61.9345 61.4637 61.9341H107.784C108.108 61.9345 108.42 62.0641 108.65 62.2946C108.879 62.5251 109.008 62.8376 109.009 63.1635V77.1949C109.008 77.5209 108.879 77.8334 108.65 78.0639C108.42 78.2944 108.108 78.4241 107.784 78.4244H66.8868C66.8081 78.4242 66.7302 78.4397 66.6575 78.4699C66.5849 78.5001 66.5189 78.5445 66.4635 78.6004L64.1536 80.9186C64.0413 81.0331 63.9075 81.1241 63.7599 81.1864C63.6123 81.2486 63.4539 81.2809 63.2938 81.2812V81.2812ZM61.4637 62.3532C61.2497 62.3535 61.0444 62.4389 60.8931 62.5908C60.7417 62.7428 60.6566 62.9487 60.6564 63.1635V77.1949C60.6566 77.4098 60.7417 77.6158 60.8931 77.7677C61.0445 77.9196 61.2497 78.0051 61.4638 78.0053C61.7332 78.0057 61.9915 78.1132 62.182 78.3045C62.3725 78.4957 62.4796 78.7549 62.4799 79.0253V80.0494C62.48 80.2097 62.5273 80.3663 62.6161 80.4995C62.7048 80.6327 62.8309 80.7366 62.9784 80.7979C63.1259 80.8592 63.2883 80.8752 63.4449 80.844C63.6015 80.8127 63.7453 80.7355 63.8582 80.6222L66.1682 78.3041C66.2623 78.2091 66.3743 78.1337 66.4977 78.0825C66.621 78.0312 66.7533 78.0049 66.8868 78.0053H107.784C107.998 78.0051 108.203 77.9196 108.354 77.7677C108.506 77.6158 108.591 77.4098 108.591 77.1949V63.1635C108.591 62.9487 108.506 62.7427 108.354 62.5908C108.203 62.4389 107.998 62.3534 107.784 62.3532L61.4637 62.3532Z" fill="#3F3D56"/>
<path d="M103.803 68.496H66.2427C66.0992 68.496 65.9616 68.4388 65.8601 68.337C65.7587 68.2352 65.7017 68.0971 65.7017 67.9531C65.7017 67.8091 65.7587 67.671 65.8601 67.5692C65.9616 67.4674 66.0992 67.4102 66.2427 67.4102H103.803C103.947 67.4102 104.084 67.4674 104.186 67.5692C104.287 67.671 104.344 67.8091 104.344 67.9531C104.344 68.0971 104.287 68.2352 104.186 68.337C104.084 68.4388 103.947 68.496 103.803 68.496Z" fill="#F2AC20"/>
<path d="M103.734 70.8027H66.2427C66.0992 70.8027 65.9616 70.7455 65.8601 70.6437C65.7587 70.5418 65.7017 70.4037 65.7017 70.2597C65.7017 70.1157 65.7587 69.9776 65.8601 69.8758C65.9616 69.774 66.0992 69.7168 66.2427 69.7168H103.734C103.878 69.7168 104.015 69.774 104.117 69.8758C104.218 69.9776 104.275 70.1157 104.275 70.2597C104.275 70.4037 104.218 70.5418 104.117 70.6437C104.015 70.7455 103.878 70.8027 103.734 70.8027V70.8027Z" fill="#E6E6E6"/>
<path d="M103.697 73.1093H66.2427C66.0992 73.1093 65.9616 73.0521 65.8601 72.9503C65.7587 72.8485 65.7017 72.7104 65.7017 72.5664C65.7017 72.4224 65.7587 72.2843 65.8601 72.1825C65.9616 72.0806 66.0992 72.0234 66.2427 72.0234H103.697C103.84 72.0234 103.978 72.0806 104.08 72.1825C104.181 72.2843 104.238 72.4224 104.238 72.5664C104.238 72.7104 104.181 72.8485 104.08 72.9503C103.978 73.0521 103.84 73.1093 103.697 73.1093V73.1093Z" fill="#E6E6E6"/>
<path d="M162.954 59.9661C162.954 60.4753 162.937 60.9846 162.901 61.4896C162.864 62.0932 162.799 62.6925 162.711 63.2877C162.417 65.2917 161.853 67.2464 161.037 69.0989C160.995 69.1911 160.953 69.2834 160.911 69.3756L160.849 69.5139C160.828 69.56 160.805 69.6061 160.784 69.6501C160.755 69.7109 160.728 69.7695 160.698 69.8282C160.663 69.9016 160.627 69.9749 160.59 70.0483C160.586 70.0566 160.581 70.0671 160.575 70.0776C160.544 70.1405 160.515 70.2012 160.481 70.2641C160.475 70.2778 160.468 70.2911 160.46 70.3039C160.425 70.3752 160.387 70.4485 160.35 70.5198C160.308 70.5952 160.268 70.6728 160.227 70.7482C160.126 70.9347 160.022 71.1191 159.915 71.3036C159.884 71.3581 159.853 71.4125 159.819 71.467C159.79 71.5173 159.761 71.5676 159.73 71.6179C159.709 71.6514 159.688 71.6871 159.667 71.7206C159.633 71.7772 159.6 71.8317 159.565 71.8882C159.487 72.0119 159.408 72.1355 159.331 72.2592H159.329C159.293 72.3158 159.256 72.3723 159.218 72.4268V72.4289C159.107 72.5966 158.992 72.7642 158.878 72.9298C158.877 72.9298 158.877 72.9298 158.877 72.9299C158.877 72.93 158.876 72.9302 158.876 72.9304C158.876 72.9306 158.876 72.9308 158.876 72.9311C158.876 72.9313 158.875 72.9316 158.876 72.9319C158.784 73.066 158.688 73.1959 158.594 73.3259V73.328C158.531 73.4097 158.47 73.4935 158.408 73.5752C158.358 73.6423 158.305 73.7115 158.253 73.7785C158.243 73.7932 158.23 73.8058 158.22 73.8204V73.8225C158.205 73.8414 158.191 73.8582 158.176 73.877C157.955 74.162 157.726 74.4407 157.491 74.7132L157.453 74.7572C157.441 74.7719 157.426 74.7865 157.414 74.8033C157.393 74.8264 157.374 74.8494 157.353 74.8724C157.334 74.8955 157.314 74.9185 157.293 74.9416C156.066 76.328 154.676 77.5589 153.152 78.6069C152.949 78.7473 152.743 78.8835 152.536 79.0156C152.484 79.0491 152.432 79.0826 152.379 79.114C152.365 79.1245 152.348 79.135 152.333 79.1455C152.304 79.1622 152.277 79.179 152.248 79.1979C152.221 79.2146 152.194 79.2314 152.164 79.2482C152.054 79.3173 151.941 79.3844 151.828 79.4514C151.801 79.4682 151.772 79.485 151.742 79.5018C151.715 79.5164 151.686 79.5332 151.657 79.55C151.657 79.5521 151.657 79.5521 151.655 79.5521H151.653V79.5542H151.651C151.511 79.6359 151.369 79.7155 151.225 79.793C151.147 79.835 151.068 79.879 150.989 79.9188C150.809 80.0173 150.627 80.1116 150.446 80.2017C150.381 80.2331 150.314 80.2646 150.249 80.2981C150.195 80.3232 150.141 80.3505 150.087 80.3756C150.07 80.384 150.055 80.3903 150.041 80.3987C149.995 80.4196 149.951 80.4406 149.905 80.4615C149.855 80.4846 149.805 80.5077 149.757 80.5307C149.7 80.5559 149.646 80.581 149.59 80.6041C149.381 80.6984 149.17 80.7885 148.959 80.8744C148.203 81.1853 147.431 81.454 146.645 81.6791C146.61 81.6896 146.572 81.7001 146.535 81.7106C146.199 81.8049 145.86 81.8908 145.52 81.9683C144.925 82.1066 144.324 82.2198 143.718 82.3078H143.714C143.641 82.3183 143.57 82.3288 143.497 82.3393C143.49 82.3393 143.484 82.3414 143.476 82.3414C143.476 82.3434 143.476 82.3434 143.474 82.3414C143.394 82.3518 143.313 82.3623 143.233 82.3728C143.228 82.3744 143.222 82.3751 143.217 82.3749C143.142 82.3854 143.064 82.3937 142.989 82.4021C142.908 82.4105 142.826 82.4189 142.745 82.4273C142.682 82.4336 142.619 82.4398 142.557 82.4461C142.551 82.448 142.546 82.4487 142.54 82.4482C142.484 82.4524 142.427 82.4587 142.371 82.4629H142.363C142.315 82.4671 142.265 82.4713 142.216 82.4755C141.634 82.5216 141.049 82.5425 140.456 82.5425C139.815 82.5425 139.178 82.5174 138.55 82.4629H138.544C138.408 82.4503 138.274 82.4378 138.14 82.4252C138.105 82.421 138.072 82.4189 138.036 82.4147C138.03 82.4147 138.021 82.4126 138.015 82.4126C138.005 82.4105 137.994 82.4105 137.982 82.4084C137.976 82.4086 137.971 82.4079 137.965 82.4063C137.919 82.4021 137.873 82.3958 137.825 82.3916L137.669 82.3728C137.616 82.3665 137.564 82.3581 137.512 82.3518C137.499 82.3497 137.489 82.3497 137.476 82.3476C137.439 82.3434 137.401 82.3372 137.364 82.3309C137.345 82.3288 137.326 82.3267 137.309 82.3246C137.272 82.3183 137.236 82.3141 137.199 82.3078H137.197C136.051 82.1423 134.92 81.8865 133.814 81.5429C133.755 81.5241 133.697 81.5073 133.639 81.4884C133.636 81.4884 133.634 81.4863 133.632 81.4863C133.616 81.48 133.597 81.4759 133.58 81.4696C133.423 81.4193 133.269 81.3669 133.114 81.3124C132.901 81.2411 132.691 81.1636 132.48 81.084C132.423 81.0609 132.367 81.04 132.31 81.0169C132.196 80.9729 132.083 80.9268 131.97 80.8807C131.778 80.8032 131.586 80.7214 131.396 80.6376C131.218 80.558 131.043 80.4783 130.868 80.3945C130.863 80.3924 130.857 80.3924 130.853 80.3882C130.813 80.3694 130.774 80.3505 130.736 80.3316H130.734C129.772 79.8685 128.845 79.3369 127.959 78.741C127.675 78.5503 127.395 78.3533 127.119 78.1501C126.898 77.9845 126.681 77.8169 126.464 77.645C125.392 76.7897 124.401 75.8386 123.501 74.8033V74.8012C123.436 74.73 123.375 74.6566 123.313 74.5833C123.302 74.5728 123.294 74.5623 123.286 74.5539C123.246 74.5057 123.208 74.4596 123.169 74.4135V74.4114C123.116 74.3506 123.064 74.2878 123.014 74.2249C123.002 74.2102 122.991 74.1977 122.981 74.1851V74.183C122.939 74.1327 122.899 74.0824 122.858 74.03C122.837 74.0049 122.818 73.9797 122.797 73.9546V73.9525C122.674 73.7974 122.555 73.6423 122.436 73.483C122.404 73.4411 122.373 73.3971 122.34 73.3531C122.189 73.1498 122.043 72.9424 121.901 72.7349V72.7328C121.847 72.6553 121.795 72.5756 121.74 72.4981C121.688 72.4185 121.636 72.3388 121.584 72.2592C121.532 72.1754 121.477 72.0936 121.425 72.0098L121.419 71.9972C121.367 71.9176 121.314 71.8338 121.264 71.752C121.225 71.685 121.185 71.62 121.145 71.555C121.12 71.511 121.093 71.467 121.068 71.4209C121.058 71.4067 121.049 71.392 121.041 71.3769C120.982 71.2742 120.924 71.1715 120.866 71.0689C120.797 70.9494 120.73 70.8279 120.663 70.7063C120.638 70.656 120.611 70.6057 120.584 70.5554C120.573 70.5387 120.565 70.5219 120.556 70.5051C120.525 70.4465 120.494 70.3857 120.465 70.3249C120.433 70.2662 120.402 70.2055 120.371 70.1447C120.341 70.086 120.31 70.0252 120.281 69.9645C120.258 69.9183 120.237 69.8722 120.214 69.8261C120.212 69.8224 120.21 69.8189 120.208 69.8157C120.197 69.7926 120.187 69.7717 120.179 69.7507C120.176 69.7475 120.174 69.744 120.172 69.7402C120.149 69.6941 120.128 69.6459 120.105 69.5998C120.076 69.539 120.049 69.4762 120.02 69.4154C120.001 69.3735 119.98 69.3295 119.961 69.2855C119.934 69.2247 119.905 69.1639 119.88 69.101C119.851 69.0382 119.824 68.9753 119.796 68.9103C119.789 68.8947 119.782 68.8786 119.776 68.8621C119.761 68.8328 119.75 68.8035 119.738 68.7741C119.705 68.6966 119.671 68.617 119.64 68.5394C119.602 68.4514 119.567 68.3613 119.533 68.2733C119.5 68.1915 119.469 68.1077 119.437 68.0239L119.425 67.9945C118.938 66.7084 118.569 65.3806 118.322 64.0275V64.0254C118.183 63.2528 118.083 62.4736 118.024 61.6908C118.021 61.6468 118.017 61.6049 118.015 61.563C117.978 61.0328 117.961 60.5005 117.961 59.9661C117.961 59.7293 117.965 59.4946 117.971 59.2599C118.117 54.3511 119.861 49.6254 122.937 45.8058C123.004 45.722 123.071 45.6381 123.139 45.5543C123.208 45.4705 123.279 45.3887 123.348 45.307C125.637 42.6166 128.524 40.5037 131.776 39.1386C135.028 37.7734 138.554 37.1942 142.07 37.4477C145.586 37.7012 148.994 38.7802 152.018 40.5978C155.042 42.4155 157.599 44.9208 159.481 47.9119C159.583 48.0754 159.686 48.2409 159.784 48.4065C159.884 48.5741 159.98 48.7418 160.076 48.9115C161.968 52.2862 162.959 56.094 162.954 59.9661V59.9661Z" fill="#F2F2F2"/>
<path d="M141.35 45.1989C137.651 46.1515 133.86 46.7006 130.044 46.8367C129.466 46.8683 128.888 46.8643 128.311 46.8249C127.044 46.7179 125.958 46.3182 124.749 46.0997C124.168 45.995 123.521 45.9184 122.936 45.8053C123.071 45.6369 123.209 45.4706 123.349 45.3064C124.61 45.4134 125.892 45.7636 127.168 45.9263C129.339 46.2033 131.771 45.8942 133.416 45.1319C134.215 44.762 134.826 44.3003 135.621 43.9287C135.73 43.873 135.847 43.837 135.968 43.8223C136.197 43.8154 136.424 43.8744 136.621 43.9924C137.955 44.6685 139.893 45.218 141.691 44.9157C141.825 45.021 141.571 45.1409 141.35 45.1989Z" fill="white"/>
<path d="M149.309 47.5785C149.326 47.5755 149.342 47.5732 149.358 47.5703C149.289 47.5273 149.224 47.4781 149.164 47.4233L149.309 47.5785Z" fill="white"/>
<path d="M160.076 48.9126C159.324 48.9729 158.569 49.0177 157.81 49.0472C157.233 49.0785 156.655 49.0745 156.078 49.0354C154.811 48.9278 153.725 48.5287 152.516 48.3102C151.408 48.1103 150.062 48.0141 149.358 47.5704C151.177 47.2546 153.06 47.8975 154.935 48.1368C156.452 48.3239 157.989 48.2478 159.48 47.9116C159.687 48.2393 159.886 48.5729 160.076 48.9126Z" fill="white"/>
<path d="M137.92 69.8451C141.652 69.8451 144.677 66.7414 144.677 62.9128C144.677 59.0842 141.652 55.9805 137.92 55.9805C134.188 55.9805 131.163 59.0842 131.163 62.9128C131.163 66.7414 134.188 69.8451 137.92 69.8451Z" fill="#FFB6B6"/>
<path d="M150.989 79.9191C150.809 80.0176 150.627 80.1119 150.446 80.202C150.381 80.2334 150.314 80.2648 150.249 80.2984C150.195 80.3235 150.141 80.3508 150.087 80.3759C150.07 80.3843 150.055 80.3906 150.041 80.399C149.995 80.4199 149.951 80.4409 149.905 80.4618C149.855 80.4849 149.805 80.5079 149.757 80.531C149.7 80.5561 149.646 80.5813 149.59 80.6043C149.381 80.6987 149.17 80.7888 148.959 80.8747C148.203 81.1856 147.431 81.4543 146.645 81.6794C146.61 81.6899 146.572 81.7004 146.535 81.7108C146.198 81.8051 145.86 81.8911 145.52 81.9686C144.925 82.1069 144.324 82.2201 143.718 82.3081H143.714C143.641 82.3186 143.57 82.3291 143.496 82.3395C143.49 82.3395 143.484 82.3416 143.476 82.3416C143.476 82.3437 143.476 82.3437 143.473 82.3416C143.394 82.3521 143.313 82.3626 143.233 82.3731C143.228 82.3747 143.222 82.3754 143.217 82.3752C143.141 82.3857 143.064 82.394 142.989 82.4024C142.908 82.4108 142.826 82.4192 142.745 82.4276C142.682 82.4339 142.619 82.4401 142.557 82.4464C142.551 82.4483 142.546 82.449 142.54 82.4485C142.484 82.4527 142.427 82.459 142.371 82.4632H142.363C142.315 82.4674 142.264 82.4716 142.216 82.4758C141.634 82.5219 141.049 82.5428 140.456 82.5428C139.815 82.5428 139.178 82.5177 138.55 82.4632H138.543C138.408 82.4506 138.274 82.438 138.14 82.4255C138.105 82.4213 138.071 82.4192 138.036 82.415C138.03 82.415 138.021 82.4129 138.015 82.4129C138.005 82.4108 137.994 82.4108 137.982 82.4087C137.976 82.4089 137.97 82.4082 137.965 82.4066C137.919 82.4024 137.873 82.3961 137.825 82.3919L137.668 82.3731C137.616 82.3668 137.564 82.3584 137.512 82.3521C137.499 82.35 137.489 82.35 137.476 82.3479C137.439 82.3437 137.401 82.3375 137.364 82.3312C137.345 82.3291 137.326 82.327 137.309 82.3249C137.272 82.3186 137.236 82.3144 137.199 82.3081H137.197C136.051 82.1426 134.92 81.8868 133.814 81.5432C133.755 81.5243 133.697 81.5076 133.638 81.4887C133.908 80.2268 134.463 79.044 135.261 78.0316C136.058 77.0193 137.077 76.2045 138.239 75.6502C137.951 75.3756 137.753 75.0208 137.668 74.6317C137.614 74.3809 137.61 74.1219 137.656 73.8694C137.702 73.6169 137.797 73.3761 137.936 73.1606C138.207 72.743 138.632 72.4505 139.118 72.3475L142.212 71.6978C142.71 71.6004 143.227 71.7042 143.649 71.9867C144.071 72.2693 144.365 72.7077 144.467 73.2067C144.499 73.3597 144.513 73.5158 144.509 73.6719C147.489 75.6628 149.633 77.727 150.989 79.9191Z" fill="#F2AC20"/>
<path d="M156.001 59.9063C154.852 58.5622 154.306 56.7788 153.388 55.2524C152.47 53.726 150.872 52.3598 149.184 52.715C148.021 52.9599 147.121 53.9904 146.666 55.1392C146.211 56.2881 146.126 57.555 146.046 58.7962C146.074 56.2455 144.4 53.7728 142.093 52.9589C139.787 52.1451 137.026 53.0529 135.577 55.102C134.945 54.5137 134.119 54.1787 133.257 54.1606C132.395 54.1424 131.556 54.4423 130.899 55.0035C129.603 56.1663 129.316 58.3796 130.27 59.8628C131.223 61.346 133.288 61.8985 134.803 61.0759L135.338 61.5704C135.037 62.6288 135.622 63.8789 136.604 64.2773C137.401 64.6004 138.527 64.5466 138.825 65.386C139.033 65.9725 138.644 66.5986 138.229 67.0493C137.815 67.5 137.323 67.9654 137.273 68.5891C137.198 69.5301 138.167 70.1893 139.048 70.3879C141.172 70.8666 143.528 69.8795 144.753 67.9984C144.776 67.9621 144.802 67.9258 144.83 67.8894C145.516 67.0079 146.017 65.9952 146.301 64.913C146.584 63.8309 146.645 62.702 146.479 61.5955C146.41 61.1607 146.48 60.8373 146.779 60.7343C148.07 60.2893 151.687 61.2233 152.781 62.0676C153.876 62.9118 154.752 64.029 155.807 64.9277C156.861 65.8264 158.205 66.5196 159.544 66.2748C160.616 66.0788 161.528 65.2976 162.142 64.3552C162.755 63.4129 163.108 62.3144 163.425 61.2228C161.054 62.5975 157.809 62.022 156.001 59.9063Z" fill="#2F2E41"/>
<path d="M17.2949 45.9251C17.2949 46.4343 17.3116 46.9436 17.3471 47.4486C17.3847 48.0522 17.4495 48.6515 17.5372 49.2467C17.8319 51.2506 18.3952 53.2054 19.2118 55.0579C19.2536 55.1501 19.2953 55.2423 19.3371 55.3345L19.3998 55.4729C19.4206 55.519 19.4436 55.5651 19.4645 55.6091C19.4937 55.6699 19.5209 55.7285 19.5501 55.7872C19.5856 55.8606 19.6211 55.9339 19.6587 56.0072C19.6629 56.0156 19.667 56.0261 19.6733 56.0366C19.7046 56.0995 19.7339 56.1602 19.7673 56.2231C19.7734 56.2368 19.7804 56.2501 19.7882 56.2629C19.8237 56.3342 19.8612 56.4075 19.8988 56.4788C19.9406 56.5542 19.9803 56.6318 20.022 56.7072C20.1223 56.8937 20.2267 57.0781 20.3332 57.2625C20.3645 57.317 20.3958 57.3715 20.4292 57.426C20.4584 57.4763 20.4877 57.5266 20.519 57.5769C20.5399 57.6104 20.5608 57.6461 20.5816 57.6796C20.615 57.7362 20.6485 57.7906 20.684 57.8472C20.7612 57.9709 20.8406 58.0945 20.9178 58.2182H20.9199C20.9554 58.2747 20.993 58.3313 21.0306 58.3858V58.3879C21.1413 58.5556 21.2561 58.7232 21.3709 58.8888C21.3712 58.8888 21.3715 58.8888 21.3717 58.8889C21.372 58.889 21.3722 58.8892 21.3724 58.8894C21.3726 58.8896 21.3728 58.8898 21.3729 58.89C21.373 58.8903 21.373 58.8906 21.373 58.8909C21.4649 59.025 21.561 59.1549 21.6549 59.2848V59.2869C21.7176 59.3687 21.7781 59.4525 21.8408 59.5342C21.8909 59.6013 21.9431 59.6704 21.9953 59.7375C22.0057 59.7522 22.0183 59.7647 22.0287 59.7794V59.7815C22.0433 59.8004 22.0579 59.8171 22.0725 59.836C22.2939 60.121 22.5222 60.3997 22.7575 60.6722L22.795 60.7162C22.8076 60.7308 22.8222 60.7455 22.8347 60.7623C22.8556 60.7853 22.8744 60.8084 22.8953 60.8314C22.9141 60.8545 22.9349 60.8775 22.9558 60.9006C24.1822 62.287 25.5727 63.5179 27.0966 64.5659C27.2991 64.7063 27.5058 64.8425 27.7126 64.9745C27.7648 65.0081 27.817 65.0416 27.8692 65.073C27.8838 65.0835 27.9005 65.094 27.9151 65.1045C27.9443 65.1212 27.9715 65.138 28.0007 65.1569C28.0279 65.1736 28.055 65.1904 28.0842 65.2072C28.1949 65.2763 28.3077 65.3434 28.4204 65.4104C28.4476 65.4272 28.4768 65.444 28.506 65.4607C28.5332 65.4754 28.5624 65.4922 28.5916 65.5089C28.5916 65.511 28.5917 65.511 28.5937 65.511H28.5958V65.5131H28.5979C28.7378 65.5948 28.8798 65.6745 29.0239 65.752C29.1012 65.7939 29.1805 65.8379 29.2598 65.8778C29.4394 65.9763 29.6211 66.0706 29.8028 66.1607C29.8675 66.1921 29.9343 66.2235 29.999 66.2571C30.0533 66.2822 30.1076 66.3095 30.1619 66.3346C30.1786 66.343 30.1932 66.3493 30.2079 66.3577C30.2538 66.3786 30.2976 66.3996 30.3436 66.4205C30.3937 66.4436 30.4438 66.4666 30.4918 66.4897C30.5482 66.5148 30.6025 66.54 30.6589 66.563C30.8677 66.6573 31.0786 66.7475 31.2895 66.8334C32.0453 67.1443 32.8177 67.413 33.6031 67.6381C33.6386 67.6486 33.6762 67.6591 33.7138 67.6695C34.05 67.7638 34.3883 67.8498 34.7286 67.9273C35.3238 68.0656 35.9244 68.1788 36.5307 68.2668H36.5349C36.6079 68.2773 36.6789 68.2878 36.752 68.2982C36.7583 68.2982 36.7645 68.3003 36.7729 68.3003C36.7729 68.3024 36.7729 68.3024 36.775 68.3003C36.8543 68.3108 36.9358 68.3213 37.0151 68.3318C37.0205 68.3334 37.0262 68.3341 37.0318 68.3339C37.107 68.3443 37.1843 68.3527 37.2594 68.3611C37.3409 68.3695 37.4223 68.3779 37.5037 68.3863C37.5664 68.3925 37.629 68.3988 37.6917 68.4051C37.697 68.407 37.7027 68.4077 37.7084 68.4072C37.7648 68.4114 37.8211 68.4177 37.8775 68.4219H37.8859C37.9339 68.4261 37.984 68.4303 38.032 68.4345C38.6146 68.4806 39.1993 68.5015 39.7923 68.5015C40.4334 68.5015 41.0702 68.4764 41.6988 68.4219H41.705C41.8408 68.4093 41.9744 68.3967 42.108 68.3842C42.1435 68.38 42.1769 68.3779 42.2124 68.3737C42.2187 68.3737 42.2271 68.3716 42.2333 68.3716C42.2438 68.3695 42.2542 68.3695 42.2667 68.3674C42.2724 68.3676 42.278 68.3669 42.2834 68.3653C42.3294 68.3611 42.3753 68.3548 42.4233 68.3506L42.58 68.3318C42.6322 68.3255 42.6844 68.3171 42.7366 68.3108C42.7491 68.3087 42.7595 68.3087 42.7721 68.3066C42.8096 68.3024 42.8472 68.2961 42.8848 68.2899C42.9036 68.2878 42.9224 68.2857 42.9391 68.2836C42.9767 68.2773 43.0122 68.2731 43.0498 68.2668H43.0519C44.1977 68.1013 45.3288 67.8455 46.4346 67.5019C46.4931 67.483 46.5516 67.4663 46.61 67.4474C46.6121 67.4474 46.6142 67.4453 46.6163 67.4453C46.633 67.439 46.6518 67.4348 46.6685 67.4286C46.8251 67.3783 46.9796 67.3259 47.1341 67.2714C47.3471 67.2001 47.558 67.1226 47.7689 67.043C47.8253 67.0199 47.8817 66.9989 47.9381 66.9759C48.0529 66.9319 48.1657 66.8858 48.2784 66.8397C48.4705 66.7621 48.6626 66.6804 48.8527 66.5966C49.0301 66.5169 49.2055 66.4373 49.3809 66.3535C49.3851 66.3514 49.3914 66.3514 49.3956 66.3472C49.4352 66.3283 49.4749 66.3095 49.5125 66.2906H49.5146C50.4762 65.8275 51.4036 65.2959 52.2897 64.7C52.5737 64.5093 52.8535 64.3123 53.1291 64.109C53.3505 63.9435 53.5676 63.7758 53.7848 63.604C54.8561 62.7487 55.8479 61.7976 56.7478 60.7623V60.7602C56.8126 60.6889 56.8731 60.6156 56.9358 60.5422C56.9462 60.5318 56.9545 60.5213 56.9629 60.5129C57.0026 60.4647 57.0402 60.4186 57.0798 60.3725V60.3704C57.132 60.3096 57.1842 60.2468 57.2344 60.1839C57.2469 60.1692 57.2573 60.1567 57.2678 60.1441V60.142C57.3095 60.0917 57.3492 60.0414 57.391 59.989C57.4118 59.9638 57.4306 59.9387 57.4515 59.9135V59.9114C57.5747 59.7564 57.6937 59.6013 57.8128 59.442C57.8441 59.4001 57.8754 59.3561 57.9088 59.3121C58.0592 59.1088 58.2053 58.9013 58.3473 58.6939V58.6918C58.4016 58.6142 58.4538 58.5346 58.5081 58.4571C58.5603 58.3774 58.6125 58.2978 58.6647 58.2182C58.7169 58.1344 58.7712 58.0526 58.8234 57.9688L58.8297 57.9562C58.8819 57.8766 58.9341 57.7928 58.9842 57.711C59.0239 57.644 59.0635 57.579 59.1032 57.514C59.1283 57.47 59.1554 57.426 59.1805 57.3799C59.1903 57.3657 59.1993 57.351 59.2076 57.3359C59.2661 57.2332 59.3246 57.1305 59.383 57.0278C59.4519 56.9084 59.5188 56.7868 59.5856 56.6653C59.6106 56.615 59.6378 56.5647 59.6649 56.5144C59.6754 56.4976 59.6837 56.4809 59.6921 56.4641C59.7234 56.4054 59.7547 56.3447 59.7839 56.2839C59.8153 56.2252 59.8466 56.1644 59.8779 56.1037C59.9071 56.045 59.9385 55.9842 59.9677 55.9234C59.9907 55.8773 60.0116 55.8312 60.0345 55.7851C60.0361 55.7814 60.0382 55.7778 60.0408 55.7746C60.0512 55.7516 60.0617 55.7306 60.07 55.7097C60.0726 55.7065 60.0747 55.703 60.0763 55.6992C60.0993 55.6531 60.1201 55.6049 60.1431 55.5588C60.1723 55.498 60.1995 55.4352 60.2287 55.3744C60.2475 55.3325 60.2684 55.2885 60.2872 55.2444C60.3143 55.1837 60.3436 55.1229 60.3686 55.06C60.3978 54.9972 60.425 54.9343 60.4521 54.8693C60.46 54.8537 60.4669 54.8376 60.473 54.8211C60.4876 54.7918 60.4981 54.7624 60.5106 54.7331C60.544 54.6556 60.5774 54.5759 60.6088 54.4984C60.6463 54.4104 60.6818 54.3203 60.7152 54.2322C60.7487 54.1505 60.78 54.0667 60.8113 53.9829L60.8238 53.9535C61.3104 52.6674 61.6794 51.3396 61.9264 49.9865V49.9844C62.0656 49.2118 62.1653 48.4326 62.225 47.6498C62.227 47.6058 62.2312 47.5639 62.2333 47.522C62.2709 46.9918 62.2876 46.4595 62.2876 45.9251C62.2876 45.6883 62.2834 45.4536 62.2772 45.2188C62.1314 40.3101 60.3873 35.5844 57.3116 31.7648C57.2448 31.6809 57.178 31.5971 57.1091 31.5133C57.0402 31.4295 56.9692 31.3477 56.9003 31.266C54.6112 28.5756 51.7243 26.4627 48.4723 25.0975C45.2202 23.7324 41.6941 23.1532 38.1781 23.4067C34.6621 23.6601 31.2547 24.7392 28.2305 26.5568C25.2063 28.3744 22.6499 30.8798 20.7675 33.8709C20.6652 34.0343 20.5629 34.1999 20.4647 34.3655C20.3645 34.5331 20.2684 34.7008 20.1724 34.8705C18.2807 38.2452 17.2895 42.053 17.2949 45.9251V45.9251Z" fill="#F2F2F2"/>
<path d="M38.8981 31.1579C42.5973 32.1105 46.3882 32.6596 50.2049 32.7957C50.782 32.8272 51.3605 32.8233 51.9372 32.7839C53.2045 32.6769 54.29 32.2772 55.4989 32.0587C56.0801 31.954 56.7275 31.8774 57.3126 31.7642C57.1774 31.5959 57.0398 31.4296 56.8997 31.2654C55.6381 31.3724 54.3568 31.7226 53.0799 31.8853C50.9095 32.1623 48.4776 31.8532 46.8322 31.0909C46.0339 30.721 45.4224 30.2593 44.6269 29.8877C44.5187 29.832 44.4015 29.7959 44.2808 29.7813C44.0514 29.7744 43.8249 29.8334 43.6278 29.9513C42.2932 30.6275 40.3555 31.177 38.557 30.8747C38.4229 30.98 38.6776 31.0999 38.8981 31.1579Z" fill="white"/>
<path d="M30.9392 33.5375C30.9228 33.5345 30.9063 33.5321 30.8899 33.5293C30.959 33.4863 31.024 33.4371 31.0843 33.3823L30.9392 33.5375Z" fill="white"/>
<path d="M20.1729 34.8716C20.924 34.9319 21.6791 34.9767 22.4381 35.0062C23.0153 35.0374 23.5938 35.0335 24.1705 34.9944C25.4378 34.8868 26.5233 34.4876 27.7322 34.2692C28.8402 34.0693 30.1865 33.973 30.89 33.5294C29.0719 33.2135 27.188 33.8565 25.3132 34.0958C23.7967 34.2829 22.2594 34.2067 20.7686 33.8706C20.5611 34.1982 20.3625 34.5319 20.1729 34.8716Z" fill="white"/>
<path d="M29.2598 65.8781C29.4393 65.9765 29.621 66.0709 29.8027 66.161C29.8674 66.1924 29.9342 66.2238 29.999 66.2574C30.0533 66.2825 30.1075 66.3098 30.1618 66.3349C30.1785 66.3433 30.1932 66.3496 30.2078 66.358C30.2537 66.3789 30.2976 66.3999 30.3435 66.4208C30.3936 66.4439 30.4437 66.4669 30.4918 66.49C30.5481 66.5151 30.6024 66.5403 30.6588 66.5633C30.8676 66.6576 31.0785 66.7477 31.2894 66.8337C32.0452 67.1446 32.8176 67.4133 33.6031 67.6384C33.6385 67.6489 33.6761 67.6594 33.7137 67.6698C34.0499 67.7641 34.3882 67.8501 34.7286 67.9276C35.3237 68.0659 35.9244 68.1791 36.5306 68.2671H36.5348C36.6079 68.2776 36.6789 68.2881 36.7519 68.2985C36.7582 68.2985 36.7645 68.3006 36.7728 68.3006C36.7728 68.3027 36.7728 68.3027 36.7749 68.3006C36.8543 68.3111 36.9357 68.3216 37.015 68.3321C37.0205 68.3337 37.0261 68.3344 37.0317 68.3342C37.1069 68.3446 37.1842 68.353 37.2594 68.3614C37.3408 68.3698 37.4222 68.3782 37.5037 68.3865C37.5663 68.3928 37.6289 68.3991 37.6916 68.4054C37.697 68.4073 37.7026 68.408 37.7083 68.4075C37.7647 68.4117 37.8211 68.418 37.8774 68.4222H37.8858C37.9338 68.4264 37.9839 68.4306 38.032 68.4348C38.6145 68.4809 39.1992 68.5018 39.7922 68.5018C40.4333 68.5018 41.0702 68.4767 41.6987 68.4222H41.705C41.8407 68.4096 41.9743 68.397 42.108 68.3844C42.1435 68.3803 42.1769 68.3782 42.2124 68.374C42.2186 68.374 42.227 68.3719 42.2332 68.3719C42.2437 68.3698 42.2541 68.3698 42.2667 68.3677C42.2723 68.3679 42.2779 68.3672 42.2834 68.3656C42.3293 68.3614 42.3752 68.3551 42.4233 68.3509L42.5799 68.3321C42.6321 68.3258 42.6843 68.3174 42.7365 68.3111C42.749 68.309 42.7594 68.309 42.772 68.3069C42.8096 68.3027 42.8472 68.2964 42.8847 68.2902C42.9035 68.2881 42.9223 68.286 42.939 68.2839C42.9766 68.2776 43.0121 68.2734 43.0497 68.2671H43.0518C44.1976 68.1016 45.3287 67.8458 46.4345 67.5022C46.493 67.4833 46.5515 67.4666 46.6099 67.4477C46.3403 66.1858 45.7853 65.003 44.9876 63.9906C44.19 62.9782 43.1712 62.1635 42.0098 61.6092C42.2971 61.3346 42.4956 60.9798 42.5799 60.5907C42.6341 60.3399 42.6384 60.0809 42.5925 59.8284C42.5466 59.5759 42.4515 59.335 42.3126 59.1196C42.0416 58.702 41.6165 58.4095 41.1307 58.3065L38.0361 57.6568C37.538 57.5593 37.0216 57.6632 36.5993 57.9457C36.177 58.2283 35.8829 58.6667 35.781 59.1657C35.7494 59.3187 35.7354 59.4748 35.7392 59.6309C32.7595 61.6218 30.615 63.686 29.2598 65.8781Z" fill="#F2AC20"/>
<path d="M41.5022 55.5603C45.6623 55.5603 49.0347 52.1757 49.0347 48.0006C49.0347 43.8255 45.6623 40.4409 41.5022 40.4409C37.3421 40.4409 33.9697 43.8255 33.9697 48.0006C33.9697 52.1757 37.3421 55.5603 41.5022 55.5603Z" fill="#9E616A"/>
<path d="M40.4317 55.1563C38.5459 55.6675 36.4669 54.9879 34.9953 53.6988C33.5236 52.4098 32.6031 50.5832 32.0726 48.6965C31.6842 47.3147 31.5 45.7809 32.113 44.4837C32.726 43.1864 34.3759 42.3112 35.6488 42.9665C34.8636 42.0483 35.2559 40.5297 36.173 39.7443C37.09 38.9588 38.3494 38.7336 39.5487 38.6105C41.2894 38.4319 43.0874 38.4119 44.7437 38.9778C46.4001 39.5438 47.905 40.7811 48.4234 42.4583C48.9529 42.7057 49.5491 42.7699 50.1188 42.6408C50.6885 42.5117 51.1994 42.1967 51.5716 41.745C51.6676 42.2637 51.5905 42.7998 51.3523 43.2702C51.1141 43.7406 50.7281 44.1191 50.254 44.3472L52.7919 43.5214C53.2283 44.4486 52.4636 45.5961 51.4856 45.893C50.5076 46.1899 49.4519 45.8654 48.5238 45.4364C47.5958 45.0075 46.6964 44.4652 45.6883 44.2979C44.6803 44.1306 43.4962 44.4556 43.0299 45.3681C42.7857 45.846 42.7729 46.4057 42.6311 46.9236C42.4893 47.4415 42.1301 47.9784 41.5966 48.0208C41.2596 48.0476 40.9296 47.8674 40.5935 47.9042C40.3872 47.945 40.1973 48.0453 40.0469 48.1927C39.8965 48.3401 39.7923 48.5284 39.7469 48.7344C39.6632 49.1478 39.6622 49.5738 39.7439 49.9876L40.3885 54.9329L40.4317 55.1563Z" fill="#2F2E41"/>
</g>
<defs>
<clipPath id="clip0_819_35">
<rect width="169" height="132" fill="white"/>
</clipPath>
</defs>
</svg>
