<svg width="130" height="112" viewBox="0 0 130 112" fill="none" xmlns="http://www.w3.org/2000/svg">
<g clip-path="url(#clip0_821_104)">
<path d="M92.3978 111.616C91.4652 111.615 90.5479 111.378 89.7307 110.927L13.853 69.275C12.5571 68.5618 11.596 67.3617 11.1806 65.9381C10.7652 64.5145 10.9293 62.9836 11.637 61.6813L43.6578 2.91294C44.0091 2.26827 44.4834 1.69935 45.0537 1.23868C45.624 0.777999 46.2791 0.434585 46.9817 0.228041C47.6842 0.0214969 48.4204 -0.0441317 49.1482 0.0349024C49.876 0.113937 50.5812 0.336085 51.2234 0.688665L127.101 42.3405C128.397 43.0537 129.358 44.2538 129.774 45.6774C130.189 47.101 130.025 48.6319 129.317 49.9342L97.2963 108.703C96.9467 109.348 96.4729 109.918 95.9023 110.379C95.3318 110.84 94.6759 111.183 93.9725 111.387C93.4611 111.538 92.9308 111.615 92.3978 111.616ZM90.1892 110.085C91.264 110.675 92.5282 110.813 93.7038 110.467C94.8794 110.121 95.8701 109.321 96.4579 108.242L128.479 49.474C129.065 48.3949 129.201 47.1265 128.857 45.9469C128.513 44.7673 127.716 43.773 126.643 43.182L50.7649 1.53013C49.6901 0.940192 48.4259 0.802942 47.2503 1.14858C46.0747 1.49421 45.0841 2.29442 44.4963 3.37317L12.4754 62.1415C11.889 63.2206 11.753 64.489 12.0973 65.6686C12.4415 66.8482 13.2378 67.8425 14.3115 68.4335L90.1892 110.085Z" fill="#F2F2F2"/>
<path d="M93.9623 91.0623C93.0892 91.0617 92.2303 90.8409 91.4645 90.4202L30.1196 56.7459C29.5227 56.419 28.996 55.9772 28.5694 55.4457C28.1429 54.9142 27.8249 54.3035 27.6338 53.6486C27.4427 52.9936 27.3821 52.3073 27.4555 51.6288C27.529 50.9503 27.735 50.2931 28.0618 49.6946L47.1857 14.5963C47.5118 13.9977 47.9522 13.4693 48.4818 13.0415C49.0113 12.6137 49.6197 12.2948 50.2721 12.103C50.9244 11.9112 51.608 11.8503 52.2839 11.9237C52.9597 11.9971 53.6145 12.2035 54.2109 12.5309L115.556 46.2052C116.152 46.5325 116.679 46.9746 117.105 47.5061C117.531 48.0376 117.849 48.6482 118.04 49.303C118.231 49.9578 118.292 50.644 118.218 51.3223C118.145 52.0006 117.94 52.6579 117.614 53.2565L117.544 53.2182L117.614 53.2565L98.4897 88.3548C98.0476 89.1732 97.3936 89.8567 96.5968 90.3332C95.8 90.8097 94.8898 91.0616 93.9623 91.0623V91.0623Z" fill="#F2F2F2"/>
<path d="M92.0583 111.601H5.57448C4.20212 111.599 2.88641 111.051 1.91601 110.077C0.945606 109.103 0.39975 107.782 0.398193 106.405V39.4221C0.39975 38.0447 0.945606 36.7241 1.91601 35.75C2.88641 34.776 4.20212 34.2281 5.57448 34.2266H92.0583C93.4306 34.2281 94.7463 34.776 95.7167 35.75C96.6871 36.7241 97.233 38.0447 97.2346 39.4221V106.405C97.233 107.782 96.6871 109.103 95.7167 110.077C94.7463 111.051 93.4306 111.599 92.0583 111.601V111.601Z" fill="white"/>
<path d="M92.0583 112H5.57446C4.09653 111.998 2.67961 111.408 1.63456 110.359C0.589506 109.31 0.00166387 107.888 0 106.405V39.4219C0.00166387 37.9385 0.589506 36.5163 1.63456 35.4673C2.67961 34.4184 4.09653 33.8283 5.57446 33.8267H92.0583C93.5362 33.8283 94.9531 34.4184 95.9982 35.4673C97.0432 36.5163 97.631 37.9385 97.6327 39.4219V106.405C97.631 107.888 97.0432 109.31 95.9982 110.359C94.9531 111.408 93.5362 111.998 92.0583 112ZM5.57446 34.7858C4.34989 34.7872 3.17588 35.2761 2.30997 36.1452C1.44407 37.0144 0.957003 38.1928 0.955622 39.4219V106.405C0.957003 107.634 1.44407 108.812 2.30997 109.681C3.17588 110.551 4.34989 111.039 5.57446 111.041H92.0583C93.2828 111.039 94.4568 110.551 95.3227 109.681C96.1886 108.812 96.6757 107.634 96.6771 106.405V39.4219C96.6757 38.1928 96.1886 37.0144 95.3227 36.1452C94.4568 35.2761 93.2828 34.7872 92.0583 34.7858H5.57446Z" fill="#E6E6E6"/>
<path d="M62.2752 56.2534C61.2705 56.2527 60.2793 56.486 59.3797 56.935C58.4801 57.384 57.6965 58.0364 57.0908 58.841C56.4405 58.5601 55.731 58.4457 55.0259 58.5081C54.3208 58.5704 53.6421 58.8075 53.0508 59.1981C52.4596 59.5887 51.9742 60.1206 51.6382 60.746C51.3023 61.3714 51.1264 62.0707 51.1262 62.7812H68.7787C68.7787 61.924 68.6105 61.0751 68.2837 60.2831C67.9569 59.4911 67.4778 58.7715 66.8739 58.1654C66.27 57.5592 65.553 57.0784 64.764 56.7503C63.9749 56.4223 63.1292 56.2534 62.2752 56.2534Z" fill="#E6E6E6"/>
<path d="M23.6033 81.8052C29.3875 81.8052 34.0765 77.0987 34.0765 71.293C34.0765 65.4872 29.3875 60.7808 23.6033 60.7808C17.8191 60.7808 13.1301 65.4872 13.1301 71.293C13.1301 77.0987 17.8191 81.8052 23.6033 81.8052Z" fill="#F2AC20"/>
<path d="M84.9485 92.9572C84.5643 93.0481 84.1709 93.0937 83.7763 93.0931H13.8566C12.9955 93.0946 12.1482 92.8762 11.3943 92.4584L11.5806 92.1899L19.3817 80.9147L30.9415 64.2105L31.1104 63.9659L32.9292 61.3378C33.0514 61.1609 33.2145 61.0164 33.4045 60.9166C33.5945 60.8168 33.8058 60.7646 34.0202 60.7646C34.2347 60.7646 34.4459 60.8168 34.6359 60.9166C34.8259 61.0164 34.989 61.1609 35.1112 61.3378L41.154 70.0679V70.0695L44.7088 75.2075L53.1948 87.4691L66.0654 69.0288C66.1879 68.8529 66.351 68.7093 66.5406 68.6102C66.7303 68.5111 66.941 68.4593 67.1548 68.4593C67.3686 68.4593 67.5793 68.5111 67.769 68.6102C67.9586 68.7093 68.1216 68.8529 68.2442 69.0288L76.5008 80.8571L76.9754 81.5365L84.9485 92.9572Z" fill="#3F3D56"/>
<path d="M48.3751 67.1533C47.1355 67.1524 45.9126 67.4402 44.8027 67.9942C43.6928 68.5482 42.7261 69.3531 41.9787 70.3457C41.1765 69.9992 40.3011 69.8581 39.4312 69.935C38.5612 70.0119 37.7239 70.3045 36.9944 70.7864C36.2649 71.2683 35.6661 71.9245 35.2516 72.6961C34.8372 73.4677 34.6201 74.3305 34.6199 75.2071H56.399C56.399 74.1494 56.1914 73.1022 55.7882 72.125C55.385 71.1479 54.7939 70.2601 54.0488 69.5122C53.3037 68.7643 52.4192 68.1711 51.4457 67.7664C50.4722 67.3616 49.4288 67.1533 48.3751 67.1533V67.1533Z" fill="#CCCCCC"/>
<path d="M83.7762 93.253H13.8565C13.1661 93.2536 12.4824 93.1176 11.8444 92.8527C11.2065 92.5878 10.6268 92.1992 10.1386 91.7092C9.65043 91.2192 9.26331 90.6374 8.99939 89.9971C8.73548 89.3567 8.59996 88.6705 8.60059 87.9775V47.9733C8.60216 46.5746 9.15641 45.2337 10.1418 44.2447C11.1271 43.2557 12.463 42.6993 13.8565 42.6978H83.7762C85.1696 42.6993 86.5056 43.2557 87.4909 44.2447C88.4763 45.2337 89.0305 46.5746 89.0321 47.9733V87.9775C89.0329 88.6705 88.8975 89.3569 88.6336 89.9973C88.3698 90.6377 87.9827 91.2196 87.4944 91.7096C87.0062 92.1997 86.4265 92.5882 85.7885 92.853C85.1504 93.1179 84.4666 93.2538 83.7762 93.253V93.253ZM13.8565 43.0175C12.5475 43.019 11.2925 43.5416 10.3669 44.4706C9.44127 45.3997 8.92061 46.6594 8.91913 47.9733V87.9775C8.91852 88.6285 9.04581 89.2732 9.29372 89.8747C9.54163 90.4763 9.90529 91.0228 10.3639 91.4831C10.8225 91.9434 11.367 92.3085 11.9663 92.5573C12.5656 92.8061 13.208 92.9339 13.8565 92.9333H83.7762C84.4248 92.934 85.0671 92.8064 85.6665 92.5576C86.2659 92.3088 86.8105 91.9438 87.2691 91.4835C87.7278 91.0231 88.0914 90.4765 88.3393 89.8749C88.5871 89.2733 88.7143 88.6285 88.7136 87.9775V47.9733C88.7121 46.6594 88.1914 45.3997 87.2658 44.4706C86.3402 43.5416 85.0852 43.019 83.7762 43.0175H13.8565Z" fill="#3F3D56"/>
</g>
<defs>
<clipPath id="clip0_821_104">
<rect width="130" height="112" fill="white"/>
</clipPath>
</defs>
</svg>
