<svg width="126" height="97" viewBox="0 0 126 97" fill="none" xmlns="http://www.w3.org/2000/svg">
<g clip-path="url(#clip0_822_114)">
<path d="M90.7354 36.6656C90.3614 36.2924 89.9169 35.9965 89.4274 35.795C88.9378 35.5934 88.413 35.4902 87.8832 35.4912V33.1554C87.8836 32.6208 87.7779 32.0914 87.5723 31.5974C87.3667 31.1035 87.0652 30.6547 86.685 30.2767C86.3048 29.8987 85.8534 29.5989 85.3566 29.3945C84.8598 29.19 84.3273 29.085 83.7897 29.0854V27.3251H84.7639C85.1807 27.3251 85.5804 27.1604 85.8751 26.8674C86.1698 26.5744 86.3354 26.177 86.3354 25.7627C86.3354 25.3483 86.1698 24.9509 85.8751 24.6579C85.5804 24.3649 85.1807 24.2003 84.7639 24.2003H83.7897V22.979H83.3077V24.2003H82.1449C81.7281 24.2003 81.3284 24.3649 81.0337 24.6579C80.739 24.9509 80.5734 25.3483 80.5734 25.7627C80.5734 26.177 80.739 26.5744 81.0337 26.8674C81.3284 27.1604 81.7281 27.3251 82.1449 27.3251H83.3077V29.0854H80.3063C80.0208 29.0853 79.7381 29.1412 79.4744 29.2498C79.2106 29.3584 78.9709 29.5176 78.7691 29.7183C78.5672 29.919 78.4071 30.1573 78.2979 30.4195C78.1886 30.6818 78.1324 30.9628 78.1325 31.2467V35.4912H77.4384C76.3674 35.4911 75.3068 35.7008 74.3173 36.1082C73.3277 36.5157 72.4286 37.113 71.6713 37.866C70.9139 38.619 70.3132 39.5129 69.9034 40.4968C69.4935 41.4806 69.2826 42.5351 69.2827 43.6V49.2725C67.8006 49.697 66.4596 50.5077 65.3984 51.6206C64.3373 52.7335 63.5945 54.1081 63.2471 55.6022H59.6721V52.0108H57.5048V50.5005H58.8352C59.252 50.5005 59.6517 50.3359 59.9464 50.0429C60.2411 49.7499 60.4067 49.3525 60.4067 48.9382C60.4067 48.5238 60.2411 48.1264 59.9464 47.8334C59.6517 47.5404 59.252 47.3758 58.8352 47.3758H57.5048V46.3843H57.0232V47.3758H56.2162C55.7994 47.3758 55.3997 47.5404 55.105 47.8334C54.8103 48.1264 54.6448 48.5238 54.6448 48.9382C54.6448 49.3525 54.8103 49.7499 55.105 50.0429C55.3997 50.3359 55.7994 50.5005 56.2162 50.5005H57.0232V52.0172C56.4698 52.0491 55.9497 52.2901 55.5692 52.6908C55.1886 53.0915 54.9765 53.6216 54.9763 54.1727V55.6151C52.8943 55.7297 50.9354 56.6327 49.5022 58.1386C48.069 59.6445 47.2704 61.6389 47.2703 63.7121V96.9034H69.2827V96.9036H91.9166V39.5013C91.9176 38.9745 91.8138 38.4528 91.611 37.9661C91.4083 37.4794 91.1107 37.0374 90.7354 36.6656V36.6656Z" fill="#F2F2F2"/>
<path d="M45.2138 35.49V33.1556C45.2138 32.6211 45.1079 32.0918 44.9022 31.598C44.6965 31.1042 44.3949 30.6555 44.0148 30.2775C43.6346 29.8996 43.1833 29.5997 42.6866 29.3952C42.19 29.1906 41.6576 29.0854 41.12 29.0854V29.0854V26.804H42.0732C42.49 26.804 42.8897 26.6394 43.1844 26.3464C43.4791 26.0533 43.6447 25.6559 43.6447 25.2416C43.6447 24.8272 43.4791 24.4298 43.1844 24.1368C42.8897 23.8438 42.49 23.6792 42.0732 23.6792H41.12V22.98H40.6384V23.6792H39.4542C39.0374 23.6792 38.6377 23.8438 38.343 24.1368C38.0483 24.4298 37.8828 24.8272 37.8828 25.2416C37.8828 25.6559 38.0483 26.0533 38.343 26.3464C38.6377 26.6394 39.0374 26.804 39.4542 26.804H40.6384V29.0854H37.6353C37.3498 29.0854 37.067 29.1413 36.8032 29.2499C36.5394 29.3586 36.2997 29.5178 36.0978 29.7186C35.8959 29.9193 35.7357 30.1577 35.6264 30.42C35.5171 30.6823 35.4609 30.9634 35.4609 31.2473V35.49H34.7679C32.6045 35.49 30.5298 36.3445 29.0001 37.8654C27.4704 39.3863 26.611 41.449 26.611 43.5999V48.8546C25.2401 49.4419 24.0453 50.3719 23.143 51.5543C22.2407 52.7367 21.6615 54.1311 21.4617 55.6019H17.0017V52.0105H14.8344V49.9795H15.6208C16.0375 49.9795 16.4372 49.8148 16.7319 49.5218C17.0266 49.2288 17.1922 48.8314 17.1922 48.4171C17.1922 48.0027 17.0266 47.6053 16.7319 47.3123C16.4372 47.0193 16.0375 46.8547 15.6208 46.8547H14.8344V46.384H14.3528V46.8547H13.0017C12.5849 46.8547 12.1852 47.0193 11.8905 47.3123C11.5958 47.6053 11.4303 48.0027 11.4303 48.4171C11.4303 48.8314 11.5958 49.2288 11.8905 49.5218C12.1852 49.8148 12.5849 49.9795 13.0017 49.9795H14.3528V52.0169C13.7994 52.0488 13.2793 52.2898 12.8988 52.6905C12.5182 53.0912 12.3061 53.6213 12.3059 54.1724V55.6148C10.2239 55.7294 8.26502 56.6324 6.83183 58.1383C5.39865 59.6442 4.59995 61.6386 4.59985 63.7118V96.9031H49.2475V39.5004C49.2475 38.9738 49.1431 38.4523 48.9404 37.9657C48.7377 37.4792 48.4406 37.037 48.066 36.6646C47.6915 36.2922 47.2468 35.9968 46.7574 35.7953C46.268 35.5938 45.7435 35.49 45.2138 35.49V35.49Z" fill="#F2F2F2"/>
<path d="M15.5567 69.9678H18.5669V67.5735H15.5567V69.9678Z" fill="white"/>
<path d="M10.6202 69.9678H13.6304V67.5735H10.6202V69.9678Z" fill="white"/>
<path d="M15.5567 76.0732H18.5669V73.679H15.5567V76.0732Z" fill="white"/>
<path d="M10.6202 76.0732H13.6304V73.679H10.6202V76.0732Z" fill="white"/>
<path d="M15.5567 82.1787H18.5669V79.7844H15.5567V82.1787Z" fill="white"/>
<path d="M10.6202 82.1787H13.6304V79.7844H10.6202V82.1787Z" fill="white"/>
<path d="M10.6202 88.2837H13.6304V85.8894H10.6202V88.2837Z" fill="white"/>
<path d="M10.6202 94.3892H13.6304V91.9949H10.6202V94.3892Z" fill="white"/>
<path d="M33.0527 63.2041H42.8057V62.4858H33.0527V63.2041Z" fill="white"/>
<path d="M33.0527 67.6333H42.8057V66.915H33.0527V67.6333Z" fill="white"/>
<path d="M33.0527 72.0625H42.8057V71.3442H33.0527V72.0625Z" fill="white"/>
<path d="M38.8324 32.7969H41.8425V30.4026H38.8324V32.7969Z" fill="white"/>
<path d="M58.2271 76.0732H61.2373V73.679H58.2271V76.0732Z" fill="white"/>
<path d="M53.2906 76.0732H56.3008V73.679H53.2906V76.0732Z" fill="white"/>
<path d="M58.2271 82.1787H61.2373V79.7844H58.2271V82.1787Z" fill="white"/>
<path d="M53.2906 82.1787H56.3008V79.7844H53.2906V82.1787Z" fill="white"/>
<path d="M58.2271 88.2837H61.2373V85.8894H58.2271V88.2837Z" fill="white"/>
<path d="M53.2906 88.2837H56.3008V85.8894H53.2906V88.2837Z" fill="white"/>
<path d="M58.2271 94.3892H61.2373V91.9949H58.2271V94.3892Z" fill="white"/>
<path d="M53.2906 94.3892H56.3008V91.9949H53.2906V94.3892Z" fill="white"/>
<path d="M81.5025 32.7969H84.5127V30.4026H81.5025V32.7969Z" fill="white"/>
<path d="M91.9165 40.6055H84.502V42.1679H91.9165V40.6055Z" fill="white"/>
<path d="M91.9165 45.2925H84.502V46.8549H91.9165V45.2925Z" fill="white"/>
<path d="M91.9165 49.9795H84.502V51.5419H91.9165V49.9795Z" fill="white"/>
<path d="M91.9165 54.667H84.502V56.2294H91.9165V54.667Z" fill="white"/>
<path d="M91.9165 59.354H84.502V60.9164H91.9165V59.354Z" fill="white"/>
<path d="M91.9165 64.041H84.502V65.6034H91.9165V64.041Z" fill="white"/>
<path d="M49.0322 72.9221L50.7358 74.3395L57.1674 68.3354L54.6532 66.2437L49.0322 72.9221Z" fill="#FFB6B6"/>
<path d="M54.0721 72.4427L50.4645 69.9668L59.9633 54.9936C53.0787 51.0151 48.3442 46.1616 44.4811 40.8304C43.1682 39.0312 42.3679 36.9374 44.1994 35.5876C44.285 35.5245 44.3729 35.4648 44.4631 35.4083C46.5516 34.1144 45.8737 36.0536 48.7365 35.1012L51.3231 37.8446L56.9118 43.2512L66.4444 49.3013C68.3614 50.518 68.8933 53.0772 67.6325 55.0175C67.5659 55.12 67.495 55.2194 67.4198 55.316L54.0721 72.4427Z" fill="#2F2E41"/>
<path d="M49.2482 71.7676L52.2351 73.9658L51.2151 75.1777L52.3565 79.2853C52.4129 79.4881 52.4026 79.7036 52.3271 79.9003C52.2516 80.0969 52.1149 80.2644 51.9368 80.3783C51.7588 80.4922 51.5488 80.5465 51.3376 80.5334C51.1263 80.5202 50.9247 80.4402 50.7624 80.3052L47.3756 77.4871L47.8007 75.8027L46.5638 76.8117L45.2869 75.7491L49.2482 71.7676Z" fill="#2F2E41"/>
<path d="M45.0792 56.8066L26.6558 63.3569L27.1897 64.8413L45.6131 58.291L45.0792 56.8066Z" fill="#3F3D56"/>
<path d="M49.388 82.1459L44.5876 78.0249C44.2536 77.7379 44.0478 77.3308 44.0157 76.8931C43.9835 76.4554 44.1275 76.0229 44.416 75.6907C44.7045 75.3585 45.1138 75.1538 45.5541 75.1216C45.9943 75.0895 46.4294 75.2325 46.7636 75.5192L51.5641 79.6402C51.7296 79.7823 51.8654 79.9553 51.9637 80.1496C52.062 80.3438 52.1208 80.5554 52.1369 80.7722C52.1529 80.989 52.1258 81.2069 52.0571 81.4133C51.9884 81.6198 51.8795 81.8107 51.7366 81.9753C51.5937 82.1398 51.4196 82.2748 51.2242 82.3724C51.0288 82.4701 50.816 82.5285 50.5979 82.5444C50.3798 82.5602 50.1606 82.5332 49.953 82.4648C49.7455 82.3965 49.5534 82.2881 49.388 82.1459V82.1459Z" fill="#3F3D56"/>
<path d="M76.6572 34.5347C76.3538 34.6388 76.0312 34.6754 75.712 34.6421C75.3929 34.6087 75.085 34.5062 74.81 34.3418C74.535 34.1773 74.2996 33.9549 74.1204 33.6902C73.9412 33.4255 73.8225 33.125 73.7728 32.8098L56.6243 28.4195L59.421 25.502L75.7539 30.2702C76.2921 30.2223 76.8292 30.3722 77.2636 30.6917C77.6979 31.0112 77.9994 31.4779 78.1107 32.0036C78.222 32.5293 78.1356 33.0773 77.8677 33.5438C77.5998 34.0103 77.1691 34.3629 76.6572 34.5347H76.6572Z" fill="#FFB6B6"/>
<path d="M50.6061 14.1499C50.6061 14.1499 47.8178 14.4711 47.8679 17.6658C47.918 20.8605 54.7531 28.1381 55.8195 29.3439C56.8859 30.5497 67.528 31.1657 67.528 31.1657L70.8524 28.2595L60.9952 24.9575L50.6061 14.1499Z" fill="#F2AC20"/>
<path d="M44.9502 29.145L44.3211 32.0785C44.3211 32.0785 43.1763 34.5199 43.3985 35.1722C43.6186 35.8209 53.5275 39.3474 53.5275 39.3474C53.5275 39.3474 54.3764 34.9486 55.7931 31.9814L44.9502 29.145Z" fill="#FFB6B6"/>
<path d="M76.7068 75.0258L70.9841 77.7441C70.5857 77.9334 70.128 77.9575 69.7117 77.8112C69.2954 77.6649 68.9545 77.3602 68.7642 76.9641C68.5739 76.568 68.5496 76.1129 68.6967 75.699C68.8438 75.2851 69.1503 74.9462 69.5487 74.757L75.2714 72.0387C75.6698 71.8494 76.1275 71.8253 76.5438 71.9715C76.9601 72.1178 77.3009 72.4225 77.4913 72.8187C77.6816 73.2148 77.7059 73.6698 77.5588 74.0838C77.4117 74.4977 77.1052 74.8365 76.7068 75.0258V75.0258Z" fill="#3F3D56"/>
<path d="M98.4143 96.725C94.8399 96.725 91.3458 95.6712 88.3739 93.6968C85.4019 91.7224 83.0856 88.9162 81.7177 85.6329C80.3499 82.3497 79.992 78.7369 80.6893 75.2514C81.3866 71.7659 83.1078 68.5642 85.6353 66.0513C88.1627 63.5385 91.3829 61.8271 94.8885 61.1338C98.3942 60.4405 102.028 60.7964 105.33 62.1563C108.632 63.5163 111.455 65.8193 113.441 68.7742C115.427 71.729 116.486 75.203 116.486 78.7568C116.481 83.5206 114.575 88.0878 111.187 91.4563C107.799 94.8248 103.206 96.7196 98.4143 96.725ZM98.4143 62.4523C95.1709 62.4523 92.0003 63.4085 89.3035 65.2001C86.6068 66.9917 84.5049 69.5381 83.2637 72.5173C82.0225 75.4966 81.6977 78.7749 82.3305 81.9376C82.9633 85.1004 84.5251 88.0056 86.8185 90.2858C89.1119 92.566 92.0339 94.1189 95.215 94.748C98.3961 95.3771 101.693 95.0542 104.69 93.8202C107.686 92.5861 110.247 90.4963 112.049 87.8151C113.851 85.1338 114.813 81.9815 114.813 78.7568C114.808 74.4341 113.079 70.2898 110.005 67.2332C106.93 64.1766 102.762 62.4572 98.4143 62.4523V62.4523Z" fill="#3F3D56"/>
<path d="M99.2102 82.5373C100.611 82.5373 101.747 81.408 101.747 80.015C101.747 78.6219 100.611 77.4927 99.2102 77.4927C97.8091 77.4927 96.6733 78.6219 96.6733 80.015C96.6733 81.408 97.8091 82.5373 99.2102 82.5373Z" fill="#3F3D56"/>
<path d="M24.14 96.97C20.7531 96.97 17.4424 95.9715 14.6263 94.1007C11.8103 92.2299 9.61545 89.5709 8.31937 86.4599C7.02329 83.3489 6.68417 79.9256 7.34491 76.623C8.00565 73.3203 9.63656 70.2867 12.0314 67.9056C14.4263 65.5246 17.4775 63.903 20.7992 63.2461C24.121 62.5892 27.5641 62.9263 30.6931 64.2149C33.8221 65.5036 36.4965 67.6858 38.3781 70.4856C40.2597 73.2854 41.2641 76.5772 41.2641 79.9445C41.2589 84.4584 39.4531 88.7859 36.2429 91.9777C33.0326 95.1696 28.68 96.9649 24.14 96.97V96.97ZM24.14 64.4954C21.0667 64.4954 18.0625 65.4015 15.5072 67.099C12.9519 68.7966 10.9603 71.2094 9.78424 74.0324C8.60817 76.8553 8.30045 79.9616 8.90001 82.9585C9.49957 85.9553 10.9795 88.7081 13.1526 90.8687C15.3257 93.0293 18.0944 94.5006 21.1086 95.0967C24.1227 95.6929 27.247 95.3869 30.0863 94.2176C32.9256 93.0483 35.3524 91.0681 37.0598 88.5276C38.7672 85.987 39.6785 83 39.6785 79.9445C39.6738 75.8486 38.0352 71.9217 35.1222 69.0254C32.2092 66.1292 28.2596 64.5 24.14 64.4954V64.4954Z" fill="#3F3D56"/>
<path d="M24.1399 82.4665C25.541 82.4665 26.6768 81.3372 26.6768 79.9442C26.6768 78.5511 25.541 77.4219 24.1399 77.4219C22.7388 77.4219 21.603 78.5511 21.603 79.9442C21.603 81.3372 22.7388 82.4665 24.1399 82.4665Z" fill="#3F3D56"/>
<path d="M58.5467 82.5538C60.1714 82.5538 61.4885 81.2443 61.4885 79.6289C61.4885 78.0136 60.1714 76.7041 58.5467 76.7041C56.9221 76.7041 55.605 78.0136 55.605 79.6289C55.605 81.2443 56.9221 82.5538 58.5467 82.5538Z" fill="#3F3D56"/>
<path d="M24.7913 79.7656L23.6345 78.6875L44.2841 56.7855L81.1345 45.8203L99.4232 77.7328L98.0457 78.5133L80.3812 47.6901L45.1486 58.1739L24.7913 79.7656Z" fill="#3F3D56"/>
<path d="M56.0483 78.771H40.4666V80.3474H56.0483V78.771Z" fill="#3F3D56"/>
<path d="M45.5091 49.2378H43.9236V57.4799H45.5091V49.2378Z" fill="#3F3D56"/>
<path d="M76.3396 30.5878L74.8308 31.0723L80.0034 46.9976L81.5122 46.5132L76.3396 30.5878Z" fill="#3F3D56"/>
<path d="M45.3509 56.443L43.9827 57.2397L56.9843 79.3099L58.3525 78.5131L45.3509 56.443Z" fill="#3F3D56"/>
<path d="M88.1395 59.6571L60.2349 78.5762L61.1281 79.8786L89.0328 60.9595L88.1395 59.6571Z" fill="#3F3D56"/>
<path d="M47.7586 50.2202H41.4163C40.9748 50.2202 40.5513 50.0458 40.2391 49.7354C39.9269 49.425 39.7515 49.0039 39.7515 48.5649C39.7515 48.1259 39.9269 47.7049 40.2391 47.3945C40.5513 47.0841 40.9748 46.9097 41.4163 46.9097H47.7586C48.2001 46.9097 48.6236 47.0841 48.9358 47.3945C49.248 47.7049 49.4234 48.1259 49.4234 48.5649C49.4234 49.0039 49.248 49.425 48.9358 49.7354C48.6236 50.0458 48.2001 50.2202 47.7586 50.2202V50.2202Z" fill="#F2AC20"/>
<path d="M78.677 32.4062H72.3348C71.8932 32.4062 71.4698 32.2318 71.1575 31.9214C70.8453 31.611 70.6699 31.19 70.6699 30.751C70.6699 30.312 70.8453 29.8909 71.1575 29.5805C71.4698 29.2701 71.8932 29.0957 72.3348 29.0957H78.677C79.1186 29.0957 79.542 29.2701 79.8542 29.5805C80.1665 29.8909 80.3419 30.312 80.3419 30.751C80.3419 31.19 80.1665 31.611 79.8542 31.9214C79.542 32.2318 79.1186 32.4062 78.677 32.4062Z" fill="#F2AC20"/>
<path d="M119.58 86.9239L119.761 82.8694C121.652 81.8646 123.761 81.3338 125.905 81.3232C122.954 83.7216 123.323 88.3448 121.322 91.57C120.691 92.5712 119.841 93.4182 118.835 94.0483C117.829 94.6784 116.694 95.0754 115.513 95.2099L113.044 96.713C112.705 94.8351 112.78 92.9065 113.263 91.0601C113.746 89.2137 114.626 87.4933 115.842 86.0176C116.533 85.1964 117.324 84.465 118.199 83.8405C118.79 85.3908 119.58 86.9239 119.58 86.9239Z" fill="#F2F2F2"/>
<path d="M126 96.8126C126 96.8373 125.995 96.8617 125.986 96.8845C125.976 96.9073 125.962 96.928 125.945 96.9454C125.927 96.9629 125.907 96.9767 125.884 96.9861C125.861 96.9955 125.836 97.0003 125.811 97.0002H0.188682C0.138641 97.0002 0.0906482 96.9804 0.0552634 96.9452C0.0198787 96.9101 0 96.8624 0 96.8126C0 96.7628 0.0198787 96.7151 0.0552634 96.68C0.0906482 96.6448 0.138641 96.625 0.188682 96.625H125.811C125.836 96.6249 125.861 96.6297 125.884 96.6391C125.907 96.6485 125.927 96.6623 125.945 96.6798C125.962 96.6972 125.976 96.7179 125.986 96.7407C125.995 96.7635 126 96.7879 126 96.8126V96.8126Z" fill="#CCCCCC"/>
<path d="M55.1472 11.8038C57.6998 11.3723 59.4173 8.96516 58.9833 6.42728C58.5493 3.8894 56.1283 2.18182 53.5757 2.61329C51.0231 3.04476 49.3057 5.45189 49.7396 7.98977C50.1736 10.5277 52.5947 12.2352 55.1472 11.8038Z" fill="#FFB6B6"/>
<path d="M105.418 29.0864C107.756 29.0864 109.652 27.2019 109.652 24.8772C109.652 22.5525 107.756 20.668 105.418 20.668C103.08 20.668 101.185 22.5525 101.185 24.8772C101.185 27.2019 103.08 29.0864 105.418 29.0864Z" fill="#FD6584"/>
<path d="M114.894 22.8842C114.774 22.4949 114.543 22.1488 114.228 21.8886C113.913 21.6284 113.528 21.4653 113.121 21.4196C113.112 21.4183 113.103 21.42 113.094 21.4194C113.082 21.4158 113.07 21.413 113.058 21.4111C111.122 21.1623 108.887 22.083 108.08 23.9079C107.883 23.641 107.624 23.4257 107.325 23.2808C107.026 23.1358 106.695 23.0654 106.363 23.0757C105.933 23.1041 105.524 23.2633 105.189 23.5316C104.854 23.7999 104.611 24.1643 104.491 24.5751C104.479 24.6254 104.483 24.6784 104.502 24.7264C104.522 24.7744 104.556 24.8149 104.601 24.8421C104.729 24.9499 104.88 25.0263 105.043 25.0654C105.395 25.1394 105.748 25.2073 106.102 25.2689C106.793 25.3891 107.487 25.4863 108.185 25.5605C109.603 25.7115 111.029 25.7651 112.453 25.7209C112.928 25.7062 113.386 25.6905 113.82 25.4823C114.137 25.327 114.407 25.0925 114.604 24.802C114.791 24.5227 114.913 24.2063 114.963 23.875C115.013 23.5437 114.989 23.2055 114.894 22.8842V22.8842Z" fill="#F0F0F0"/>
<path d="M106.095 28.4965C105.975 28.1072 105.743 27.7611 105.429 27.5009C105.114 27.2407 104.729 27.0777 104.322 27.0319C104.313 27.0306 104.304 27.0323 104.295 27.0317C104.283 27.0281 104.271 27.0253 104.259 27.0234C102.323 26.7746 100.088 27.6953 99.2811 29.5202C99.0842 29.2533 98.825 29.038 98.5257 28.893C98.2264 28.7481 97.8962 28.6777 97.5634 28.688C97.1344 28.7164 96.7245 28.8756 96.3898 29.1439C96.055 29.4122 95.8115 29.7766 95.6924 30.1874C95.6797 30.2377 95.6835 30.2907 95.7032 30.3387C95.7228 30.3867 95.7573 30.4272 95.8017 30.4544C95.9296 30.5622 96.0811 30.6386 96.244 30.6777C96.5956 30.7517 96.9485 30.8196 97.3026 30.8812C97.9936 31.0014 98.6882 31.0986 99.3864 31.1728C100.804 31.3238 102.23 31.3774 103.654 31.3332C104.129 31.3185 104.586 31.3028 105.021 31.0946C105.338 30.9393 105.608 30.7048 105.805 30.4143C105.992 30.135 106.114 29.8186 106.164 29.4873C106.214 29.156 106.19 28.8178 106.095 28.4965V28.4965Z" fill="#F0F0F0"/>
<path d="M83.3797 51.8005L78.085 40.6881L78.1567 40.6544C78.5236 40.4816 78.9211 40.3823 79.3267 40.3622C79.7322 40.3421 80.1377 40.4017 80.5201 40.5374C80.9025 40.6732 81.2542 40.8825 81.5552 41.1534C81.8562 41.4243 82.1006 41.7516 82.2744 42.1164L84.9218 47.6727C85.0956 48.0375 85.1955 48.4327 85.2157 48.8359C85.2359 49.2391 85.176 49.6423 85.0394 50.0225C84.9029 50.4027 84.6924 50.7524 84.4199 51.0516C84.1474 51.3509 83.8183 51.5939 83.4513 51.7667L83.3797 51.8005Z" fill="#3F3D56"/>
<path d="M67.1948 53.7536C66.5282 53.7519 65.88 53.5363 65.3465 53.1389C64.813 52.7415 64.4227 52.1836 64.2336 51.5481L64.2112 51.4725L76.073 47.9927L76.0955 48.0683C76.2104 48.4555 76.2475 48.8614 76.2046 49.2628C76.1617 49.6642 76.0398 50.0533 75.8456 50.4079C75.6515 50.7625 75.3891 51.0756 75.0732 51.3293C74.7574 51.583 74.3944 51.7724 74.005 51.8866L68.0741 53.6264C67.7886 53.7105 67.4925 53.7533 67.1948 53.7536V53.7536Z" fill="#3F3D56"/>
<path d="M68.7192 72.9048L70.8776 72.3754L69.8798 63.6582L66.6941 64.4398L68.7192 72.9048Z" fill="#FFB6B6"/>
<path d="M67.697 70.4032L71.0655 68.8428L71.6497 70.3123L75.825 71.2756C76.0312 71.3232 76.2167 71.435 76.3545 71.5948C76.4922 71.7546 76.575 71.9541 76.5907 72.164C76.6064 72.3739 76.5542 72.5832 76.4417 72.7616C76.3293 72.9399 76.1624 73.0778 75.9655 73.1551L71.8583 74.7692L70.5725 73.5937L70.874 75.156L69.3254 75.7645L67.697 70.4032Z" fill="#2F2E41"/>
<path d="M70.9986 65.0496L66.3963 67.7937L61.4878 50.5582C53.525 50.4907 46.1625 49.6042 40.1512 46.8741C38.1145 45.9572 37.2086 43.5324 38.1277 41.4581C38.1706 41.3612 38.2172 41.266 38.2675 41.1725C39.4376 39.0202 41.7062 37.7563 43.7191 35.5195L53.7044 39.1849L52.9889 41.8584L64.2839 42.4221C66.5553 42.5354 68.2919 44.4971 68.1627 46.8035C68.1559 46.9253 68.1439 47.0466 68.1266 47.1676L70.9986 65.0496Z" fill="#2F2E41"/>
<path d="M51.4739 11.7588L54.5424 13.354C54.712 13.4213 54.8562 13.5395 54.9549 13.6921C55.0537 13.8447 55.1021 14.0241 55.0935 14.2054L55.8928 17.3854L58.7051 23.3039C58.7051 23.3039 59.4379 26.4538 58.0394 29.4278C56.641 32.4019 53.546 39.8158 53.546 39.8158C51.5273 44.623 34.958 40.9107 39.2759 36.8206C39.7897 36.3339 42.6774 32.2231 43.734 31.9869L46.3265 17.2368C46.4572 16.4581 46.7595 15.7177 47.2119 15.0688C47.6643 14.42 48.2555 13.8787 48.9431 13.4838C49.3585 13.2503 49.7435 13.1121 50.0074 13.1827C50.6089 13.322 50.8931 11.9677 51.4739 11.7588Z" fill="#F2AC20"/>
<path d="M78.124 31.3025C77.845 31.4601 77.5346 31.555 77.2147 31.5804C76.8948 31.6059 76.5732 31.5613 76.2725 31.4498C75.9719 31.3382 75.6994 31.1626 75.4745 30.935C75.2495 30.7075 75.0774 30.4337 74.9703 30.1329L57.3027 28.945L59.5136 25.5669L76.4492 27.2751C76.9694 27.1298 77.5251 27.1792 78.011 27.4141C78.497 27.6489 78.8794 28.0528 79.0858 28.5492C79.2923 29.0456 79.3084 29.6001 79.1311 30.1076C78.9539 30.615 78.5955 31.0402 78.124 31.3025V31.3025Z" fill="#FFB6B6"/>
<path d="M48.7537 16.0156C48.7537 16.0156 46.0719 16.84 46.7106 19.9713C47.3494 23.1027 55.4114 29.01 56.6822 30.0009C57.9529 30.9917 68.5281 29.6562 68.5281 29.6562L71.2598 26.1928L60.9606 24.7448L48.7537 16.0156Z" fill="#F2AC20"/>
<path d="M59.3621 5.66628C58.6542 6.013 57.8526 5.51048 57.2331 5.01074L57.4548 5.19714C56.3802 6.25828 55.8883 7.77417 55.6557 9.26384C55.4228 10.7519 55.4109 12.2715 55.1136 13.7497C54.8161 15.2263 54.1826 16.7134 52.98 17.6283C51.3689 18.8536 49.1288 18.799 47.1325 18.4488C47.1059 18.4437 47.0812 18.4399 47.0545 18.4348C47.5747 16.8903 47.7758 15.2573 47.6457 13.6337C47.1284 15.2673 46.2345 16.7583 45.0353 17.9878C43.7105 17.6399 42.4162 17.1859 41.1651 16.6304C40.3556 16.2699 39.4829 15.7746 39.2504 14.9232C39.0175 14.0783 39.5289 13.1843 40.2194 12.6423C40.91 12.1002 41.7614 11.8124 42.5505 11.4231C43.3382 11.0357 44.1161 10.4869 44.4246 9.66717C45.1363 7.78151 43.0313 5.64761 43.8239 3.79304C44.2148 2.88106 45.1901 2.3772 46.1077 1.98704C47.5084 1.39297 48.948 0.893731 50.4165 0.492738C51.7057 0.140501 53.0527 -0.136756 54.3718 0.0720114C55.691 0.280778 56.9893 1.06392 57.4761 2.30246C58.2696 2.56009 59.1123 2.851 59.6266 3.50761C60.1407 4.16267 60.1116 5.29973 59.3621 5.66628Z" fill="#2F2E41"/>
<path d="M37.4819 85.7729H10.7275V86.0882H37.4819V85.7729Z" fill="#3F3D56"/>
<path d="M37.4819 88.9258H10.7275V89.2411H37.4819V88.9258Z" fill="#3F3D56"/>
<path d="M112.638 85.7729H85.8833V86.0882H112.638V85.7729Z" fill="#3F3D56"/>
<path d="M112.638 88.9258H85.8833V89.2411H112.638V88.9258Z" fill="#3F3D56"/>
<path d="M84.7273 47.8484C85.6718 47.5012 86.0068 46.0613 85.4754 44.6322C84.9441 43.2031 83.7476 42.326 82.8031 42.6732C81.8585 43.0203 81.5235 44.4603 82.0549 45.8894C82.5862 47.3185 83.7827 48.1956 84.7273 47.8484Z" fill="#F2AC20"/>
</g>
<defs>
<clipPath id="clip0_822_114">
<rect width="126" height="97" fill="white"/>
</clipPath>
</defs>
</svg>
