<svg width="72" height="50" viewBox="0 0 72 50" fill="none" xmlns="http://www.w3.org/2000/svg">
<path d="M69.6562 12.5H68.875V7.8125C68.875 3.4375 59.1875 0 47 0C34.8125 0 25.125 3.4375 25.125 7.8125V12.5H24.3438C23.0498 12.5 22 13.5488 22 14.8438V22.6562C22 23.9502 23.0498 25 24.3438 25H25.125V40.625C25.125 42.3506 26.5244 43.75 28.25 43.75V46.875C28.25 48.6006 29.6494 50 31.375 50H34.5C36.2256 50 37.625 48.6006 37.625 46.875V43.75H56.375V46.875C56.375 48.6006 57.7744 50 59.5 50H62.625C64.3506 50 65.75 48.6006 65.75 46.875V43.75H66.375C67.9375 43.75 68.875 42.5 68.875 41.25V25H69.6562C70.9502 25 72 23.9502 72 22.6562V14.8438C72 13.5488 70.9502 12.5 69.6562 12.5ZM32.9375 39.0625C31.2119 39.0625 29.8125 37.6631 29.8125 35.9375C29.8125 34.2119 31.2119 32.8125 32.9375 32.8125C34.6631 32.8125 36.0625 34.2119 36.0625 35.9375C36.0625 37.6631 34.6631 39.0625 32.9375 39.0625ZM34.5 28.125C32.7744 28.125 31.375 26.7256 31.375 25V12.5C31.375 10.7744 32.7744 9.375 34.5 9.375H59.5C61.2256 9.375 62.625 10.7744 62.625 12.5V25C62.625 26.7256 61.2256 28.125 59.5 28.125H34.5ZM61.0625 39.0625C59.3369 39.0625 57.9375 37.6631 57.9375 35.9375C57.9375 34.2119 59.3369 32.8125 61.0625 32.8125C62.7881 32.8125 64.1875 34.2119 64.1875 35.9375C64.1875 37.6631 62.7881 39.0625 61.0625 39.0625Z" fill="#ECECEC"/>
<path d="M23.163 23.0029C23.163 23.0029 2.93514 22.9964 2.94135 23.0029C1.08012 23.0029 0 24.0007 0 26.0398V47.061C0 48.9686 1.03125 50 2.89124 50H23.2446C25.1042 50 26 49.0185 26 47.061V26.0398C26 24.0505 25.081 23.0029 23.163 23.0029ZM11.8959 47.6478C10.0346 47.6478 8.28481 46.896 6.96903 45.5313C6.32 44.8618 5.80542 44.0655 5.45509 43.1884C5.10476 42.3112 4.92563 41.3707 4.92806 40.4213C4.92948 39.1396 5.25877 37.8813 5.88233 36.7747C6.50589 35.6682 7.40139 34.7531 8.4774 34.1228L9.07958 35.2302C8.19274 35.7496 7.45467 36.5039 6.94069 37.4159C6.42671 38.3279 6.15524 39.365 6.15397 40.4213C6.15205 41.2037 6.29966 41.9786 6.58828 42.7014C6.87689 43.4242 7.30079 44.0805 7.83545 44.6323C8.36741 45.1871 9.0002 45.6269 9.69717 45.9264C10.3941 46.2258 11.1415 46.3789 11.8959 46.3767C13.1861 46.3807 14.4398 45.9323 15.4534 45.1043C16.467 44.2763 17.181 43.1172 17.4795 41.8153L18.6715 42.1116C18.3094 43.6917 17.443 45.0985 16.2129 46.1035C14.9829 47.1085 13.4613 47.6527 11.8954 47.6478H11.8959ZM21.3403 44.9841L20.8309 45.1954L20.572 44.7444L17.2207 38.2972H9.83625L9.77661 37.6791L8.70311 27.3899L8.71719 27.3757C8.61394 27.0886 8.57485 26.7809 8.60287 26.4758C8.63089 26.1707 8.72529 25.8761 8.87895 25.6144C9.03262 25.3526 9.24156 25.1304 9.49002 24.9645C9.73848 24.7986 10.02 24.6934 10.3134 24.6567C10.5675 24.6251 10.8252 24.6458 11.0716 24.7175C11.3181 24.7892 11.5485 24.9106 11.7497 25.0746C11.951 25.2387 12.1191 25.4423 12.2444 25.6738C12.3698 25.9052 12.45 26.16 12.4804 26.4236C12.5109 26.6872 12.4909 26.9545 12.4218 27.2101C12.3526 27.4657 12.2356 27.7047 12.0774 27.9134C11.9192 28.1221 11.723 28.2965 11.4998 28.4265C11.2766 28.5565 11.031 28.6397 10.7768 28.6713C10.5395 28.7001 10.2992 28.6834 10.0678 28.6219L10.6049 33.4561L16.1894 33.4582V34.7302L10.7383 34.7778L10.9371 37.0253H17.9558L18.1293 37.3109L21.395 43.6177L22.6735 43.0747L23.1286 44.2487L21.3407 44.9845L21.3403 44.9841Z" fill="#ECECEC"/>
</svg>
