<svg width="16" height="30" viewBox="0 0 16 30" fill="none" xmlns="http://www.w3.org/2000/svg">
<path d="M0.340133 0.341475C0.122077 0.564719 0 0.864407 0 1.17648C0 1.48854 0.122077 1.78823 0.340133 2.01148L12.5226 14.509L0.340133 27.004C0.122077 27.2272 0 27.5269 0 27.839C0 28.151 0.122077 28.4507 0.340133 28.674C0.446123 28.7828 0.572847 28.8694 0.712825 28.9284C0.852803 28.9875 1.0032 29.0179 1.15513 29.0179C1.30707 29.0179 1.45746 28.9875 1.59744 28.9284C1.73742 28.8694 1.86414 28.7828 1.97013 28.674L14.9251 15.3815C15.1527 15.148 15.28 14.835 15.28 14.509C15.28 14.183 15.1527 13.8699 14.9251 13.6365L1.97013 0.343975C1.86414 0.235117 1.73742 0.148595 1.59744 0.089516C1.45746 0.0304375 1.30707 0 1.15513 0C1.0032 0 0.852803 0.0304375 0.712825 0.089516C0.572847 0.148595 0.446123 0.235117 0.340133 0.343975V0.341475Z" fill="#4265D6"/>
</svg>
