<svg width="30" height="50" viewBox="0 0 30 50" fill="none" xmlns="http://www.w3.org/2000/svg">
<path d="M15 25.0008V24.1675H14.1667V23.9025C16.5693 23.4239 18.7753 22.2416 20.5042 20.5058L21.0933 19.9167L20.4767 19.3C22.3195 17.1841 23.3343 14.4726 23.3333 11.6667C23.3333 5.22333 18.11 0 11.6667 0C5.22333 0 0 5.22333 0 11.6667C0 14.5883 1.08083 17.2517 2.855 19.2992L2.2375 19.9167L2.8275 20.5058C4.55744 22.241 6.7638 23.4232 9.16667 23.9025V24.1675H8.33333V25.0008H0V35.0008H8.33333V40.8342H9.16667V42.5H10V50H13.3333V42.5H14.1667V40.8342H15V40.0008H30V25.0008H15ZM23.8083 26.275H28.94V27.1083H23.8083V26.275ZM28.9408 27.9375V28.7708H20.5275V27.9375H28.9408ZM17.6692 26.275H22.8008V27.1083H17.6692V26.275ZM6.66667 5.83333C6.66667 4.91667 7.41667 4.16667 8.33333 4.16667H15C15.9167 4.16667 16.6667 4.91667 16.6667 5.83333V12.5C16.6667 13.1117 16.3292 13.6442 15.8333 13.9333V15.8333C15.8333 16.2917 15.4575 16.6667 15 16.6667C14.5408 16.6667 14.1667 16.2917 14.1667 15.8333V14.1667H9.16667V15.8333C9.16667 16.2917 8.79083 16.6667 8.33333 16.6667C7.87417 16.6667 7.5 16.2917 7.5 15.8333V13.9333C7.00417 13.6433 6.66667 13.1117 6.66667 12.5V5.83333ZM10.1183 22.3758C8.0852 22.0914 6.1762 21.2302 4.6175 19.8942L5.8 18.7117C7.44476 20.0866 9.52209 20.8368 11.6658 20.83C13.8095 20.8371 15.8868 20.0872 17.5317 18.7125L18.715 19.8942C17.1567 21.2303 15.2479 22.0916 13.215 22.3758L12.5 22.4783V24.1675H10.8333V22.4783L10.1183 22.3758ZM4.59667 26.3017H7.3575V28.7717H4.59667V26.3017ZM1.61667 26.3017H2.97083V28.7717H1.61667V26.3017ZM4.3775 33.7492H1.61667V31.2508H4.3775V33.7492ZM7.35667 33.75H5.97667V31.2517H7.35667V33.75ZM13.3333 39.1675H12.5V40.8333H10.8333V39.1675H10V25.8342H13.3333V39.1675ZM24.875 38.7483H16.0442V37.915H24.875V38.7483ZM28.9408 38.7483H25.8567V37.915H28.9408V38.7483ZM28.9408 37.0867H19.5117V36.2533H28.94V37.0867H28.9408ZM22.915 32.0858V31.2525H28.94V32.0858H22.915ZM28.9408 32.9142V33.7475H25.8V32.9142H28.9408ZM24.9033 32.9142V33.7475H21.7625V32.9142H24.9033ZM21.7967 32.0858H15.7717V31.2525H21.7967V32.0858ZM21.025 32.9142V33.7475H17.885V32.9142H21.025Z" fill="#ECECEC"/>
<path d="M9.16659 9.16665H14.1666C14.6241 9.16665 14.9999 8.79165 14.9999 8.33331V6.66665C14.9999 6.20831 14.6241 5.83331 14.1666 5.83331H9.16659C8.70742 5.83331 8.33325 6.20831 8.33325 6.66665V8.33331C8.33325 8.79165 8.70742 9.16665 9.16659 9.16665Z" fill="#ECECEC"/>
<path d="M9.16659 12.5C9.62682 12.5 9.99992 12.1269 9.99992 11.6666C9.99992 11.2064 9.62682 10.8333 9.16659 10.8333C8.70635 10.8333 8.33325 11.2064 8.33325 11.6666C8.33325 12.1269 8.70635 12.5 9.16659 12.5Z" fill="#ECECEC"/>
<path d="M14.1666 12.5C14.6268 12.5 14.9999 12.1269 14.9999 11.6666C14.9999 11.2064 14.6268 10.8333 14.1666 10.8333C13.7063 10.8333 13.3333 11.2064 13.3333 11.6666C13.3333 12.1269 13.7063 12.5 14.1666 12.5Z" fill="#ECECEC"/>
</svg>
