<svg width="50" height="39" viewBox="0 0 50 39" fill="none" xmlns="http://www.w3.org/2000/svg">
<path d="M45.8333 0H4.16667C1.86632 0 0 1.86632 0 4.16667V5.55556H50V4.16667C50 1.86632 48.1337 0 45.8333 0ZM0 34.7222C0 37.0226 1.86632 38.8889 4.16667 38.8889H45.8333C48.1337 38.8889 50 37.0226 50 34.7222V8.33333H0V34.7222ZM30.5556 14.5833C30.5556 14.2014 30.8681 13.8889 31.25 13.8889H43.75C44.1319 13.8889 44.4444 14.2014 44.4444 14.5833V15.9722C44.4444 16.3542 44.1319 16.6667 43.75 16.6667H31.25C30.8681 16.6667 30.5556 16.3542 30.5556 15.9722V14.5833ZM30.5556 20.1389C30.5556 19.7569 30.8681 19.4444 31.25 19.4444H43.75C44.1319 19.4444 44.4444 19.7569 44.4444 20.1389V21.5278C44.4444 21.9097 44.1319 22.2222 43.75 22.2222H31.25C30.8681 22.2222 30.5556 21.9097 30.5556 21.5278V20.1389ZM30.5556 25.6944C30.5556 25.3125 30.8681 25 31.25 25H43.75C44.1319 25 44.4444 25.3125 44.4444 25.6944V27.0833C44.4444 27.4653 44.1319 27.7778 43.75 27.7778H31.25C30.8681 27.7778 30.5556 27.4653 30.5556 27.0833V25.6944ZM15.2778 13.8889C18.342 13.8889 20.8333 16.3802 20.8333 19.4444C20.8333 22.5087 18.342 25 15.2778 25C12.2135 25 9.72222 22.5087 9.72222 19.4444C9.72222 16.3802 12.2135 13.8889 15.2778 13.8889ZM5.82465 31.6146C6.55382 29.3837 8.64583 27.7778 11.1111 27.7778H11.8229C12.8906 28.2205 14.0538 28.4722 15.2778 28.4722C16.5017 28.4722 17.6736 28.2205 18.7326 27.7778H19.4444C21.9097 27.7778 24.0017 29.3837 24.7309 31.6146C25.0087 32.474 24.2795 33.3333 23.3767 33.3333H7.17882C6.27604 33.3333 5.54687 32.4653 5.82465 31.6146Z" fill="#ECECEC"/>
</svg>
