<svg width="50" height="50" viewBox="0 0 50 50" fill="none" xmlns="http://www.w3.org/2000/svg">
<path d="M44.6429 0H5.35714C2.39955 0 0 2.39955 0 5.35714V44.6429C0 47.6004 2.39955 50 5.35714 50H44.6429C47.6004 50 50 47.6004 50 44.6429V5.35714C50 2.39955 47.6004 0 44.6429 0ZM26.7857 32.1429H21.4286V37.5C21.4286 38.4821 20.625 39.2857 19.6429 39.2857H16.0714C15.0893 39.2857 14.2857 38.4821 14.2857 37.5V12.5C14.2857 11.5179 15.0893 10.7143 16.0714 10.7143H26.7857C32.6897 10.7143 37.5 15.5246 37.5 21.4286C37.5 27.3326 32.6897 32.1429 26.7857 32.1429ZM26.7857 17.8571H21.4286V25H26.7857C28.75 25 30.3571 23.3929 30.3571 21.4286C30.3571 19.4643 28.75 17.8571 26.7857 17.8571Z" fill="#ECECEC"/>
</svg>
