<svg width="23" height="21" viewBox="0 0 23 21" fill="none" xmlns="http://www.w3.org/2000/svg">
<path d="M14.8374 10.5C14.8374 11.3702 14.4752 12.2048 13.8306 12.8202C13.1859 13.4355 12.3116 13.7812 11.3999 13.7812C10.4882 13.7812 9.61388 13.4355 8.96922 12.8202C8.32457 12.2048 7.9624 11.3702 7.9624 10.5C7.9624 10.313 7.98303 10.1303 8.01855 9.95312H6.81657V14.3248C6.81657 14.6289 7.07438 14.875 7.39292 14.875H15.408C15.5607 14.8747 15.707 14.8166 15.8148 14.7135C15.9227 14.6103 15.9832 14.4706 15.9832 14.3248V9.95312H14.7813C14.8168 10.1303 14.8374 10.313 14.8374 10.5ZM11.3999 12.6875C11.7009 12.6874 11.999 12.6308 12.2771 12.5207C12.5551 12.4107 12.8078 12.2495 13.0206 12.0462C13.2334 11.843 13.4022 11.6018 13.5173 11.3363C13.6324 11.0708 13.6916 10.7862 13.6916 10.4989C13.6915 10.2116 13.6321 9.92706 13.5169 9.66162C13.4016 9.39618 13.2327 9.15501 13.0198 8.95188C12.8069 8.74876 12.5541 8.58765 12.276 8.47775C11.9979 8.36786 11.6998 8.31133 11.3988 8.31141C10.7908 8.31155 10.2078 8.54222 9.77807 8.95266C9.3483 9.3631 9.10694 9.91969 9.10709 10.5C9.10724 11.0803 9.34889 11.6368 9.77888 12.047C10.2089 12.4573 10.792 12.6876 11.3999 12.6875ZM14.1499 8.20312H15.5238C15.615 8.20313 15.7026 8.16859 15.7672 8.10709C15.8319 8.04558 15.8683 7.96212 15.8687 7.875V6.56359C15.8687 6.47628 15.8323 6.39254 15.7676 6.3308C15.703 6.26906 15.6152 6.23438 15.5238 6.23438H14.1499C14.0584 6.23438 13.9707 6.26906 13.906 6.3308C13.8413 6.39254 13.805 6.47628 13.805 6.56359V7.875C13.8062 8.05547 13.9608 8.20312 14.1499 8.20312ZM11.3999 0C8.48252 0 5.68463 1.10625 3.62173 3.07538C1.55883 5.04451 0.399902 7.71523 0.399902 10.5C0.399902 13.2848 1.55883 15.9555 3.62173 17.9246C5.68463 19.8938 8.48252 21 11.3999 21C12.8444 21 14.2748 20.7284 15.6094 20.2007C16.944 19.6731 18.1566 18.8996 19.1781 17.9246C20.1995 16.9496 21.0098 15.7921 21.5626 14.5182C22.1154 13.2443 22.3999 11.8789 22.3999 10.5C22.3999 9.12112 22.1154 7.75574 21.5626 6.48182C21.0098 5.20791 20.1995 4.05039 19.1781 3.07538C18.1566 2.10036 16.944 1.32694 15.6094 0.799265C14.2748 0.271591 12.8444 0 11.3999 0ZM17.1291 14.7536C17.1291 15.4219 16.5562 15.9688 15.856 15.9688H6.94376C6.24365 15.9688 5.67074 15.4219 5.67074 14.7536V6.24641C5.67074 5.57812 6.24365 5.03125 6.94376 5.03125H15.856C16.5562 5.03125 17.1291 5.57812 17.1291 6.24641V14.7536Z" fill="#CBCBCB"/>
</svg>
