<svg width="36" height="36" viewBox="0 0 36 36" fill="none" xmlns="http://www.w3.org/2000/svg">
<path d="M17.9974 0C16.8514 0 15.6996 0.229862 14.8311 0.690241L3.17082 6.83759C1.42611 7.75755 0 10.0133 0 11.8517V24.1483C0 25.9872 1.42611 28.2437 3.1709 29.1632L14.8311 35.3118C15.6996 35.7708 16.8513 36 17.9974 36C19.1486 36 20.2997 35.7708 21.1683 35.3118L32.8285 29.1632C34.5706 28.2437 36 25.9872 36 24.1483V11.8517C36 10.0132 34.5706 7.7574 32.8285 6.83752L21.1682 0.690313C20.2997 0.229862 19.1486 0 17.9974 0ZM25.8801 10.4787C26.216 10.4787 26.5516 10.5949 26.806 10.828L28.2243 12.1219C28.7331 12.5884 28.7331 13.3513 28.2243 13.8174L15.7923 25.1726C15.2784 25.6383 14.4462 25.6383 13.9374 25.1726L8.45852 20.1708C7.94975 19.7052 8.05767 18.8443 8.45852 18.4768L9.87748 17.1829C10.3863 16.7163 11.2237 16.7163 11.7324 17.1829L13.9374 19.1952C14.4462 19.6608 15.2784 19.6608 15.7923 19.1952L24.9502 10.828C25.1973 10.6037 25.5316 10.4781 25.88 10.4787H25.8801Z" fill="white"/>
</svg>
