<svg width="40" height="40" viewBox="0 0 40 40" fill="none" xmlns="http://www.w3.org/2000/svg">
<path d="M27.7778 4.44444H12.2222C11.6329 4.44444 11.0676 4.67857 10.6509 5.09532C10.2341 5.51206 10 6.0773 10 6.66667V33.3333C10 33.9227 10.2341 34.4879 10.6509 34.9047C11.0676 35.3214 11.6329 35.5556 12.2222 35.5556H27.7778C28.3671 35.5556 28.9324 35.3214 29.3491 34.9047C29.7659 34.4879 30 33.9227 30 33.3333V6.66667C30 6.0773 29.7659 5.51206 29.3491 5.09532C28.9324 4.67857 28.3671 4.44444 27.7778 4.44444ZM21.1111 33.3333H18.8889V31.1111H21.1111V33.3333ZM12.2222 28.8889V6.66667H27.7778V28.8889H12.2222Z" fill="white"/>
</svg>
