<svg width="39" height="38" viewBox="0 0 39 38" fill="none" xmlns="http://www.w3.org/2000/svg">
<path d="M19.2 0C14.1078 0 9.22425 2.00183 5.62355 5.56512C2.02285 9.1284 0 13.9613 0 19.0005C0.000131269 21.4957 0.496884 23.9664 1.4619 26.2716C2.42691 28.5768 3.84128 30.6713 5.62426 32.4356C7.40723 34.1998 9.5239 35.5993 11.8534 36.5541C14.1829 37.5088 16.6796 38.0001 19.201 38C21.7224 37.9999 24.219 37.5083 26.5484 36.5533C28.8778 35.5983 30.9944 34.1986 32.7772 32.4342C34.5599 30.6697 35.9741 28.5751 36.9389 26.2698C37.9036 23.9645 38.4001 21.4937 38.4 18.9985C38.4 8.50668 29.802 0 19.2 0ZM19.2 34.0406C17.1894 34.0634 15.1941 33.6912 13.3299 32.9456C11.4656 32.1999 9.7694 31.0956 8.33944 29.6967C6.90949 28.2977 5.77423 26.6319 4.99942 24.7957C4.22461 22.9595 3.82565 20.9894 3.82565 18.9995C3.82565 17.0096 4.22461 15.0395 4.99942 13.2033C5.77423 11.3671 6.90949 9.70129 8.33944 8.30233C9.7694 6.90338 11.4656 5.79909 13.3299 5.05345C15.1941 4.3078 17.1894 3.93561 19.2 3.95844C21.2106 3.93561 23.2059 4.3078 25.0701 5.05345C26.9344 5.79909 28.6306 6.90338 30.0606 8.30233C31.4905 9.70129 32.6258 11.3671 33.4006 13.2033C34.1754 15.0395 34.5744 17.0096 34.5744 18.9995C34.5744 20.9894 34.1754 22.9595 33.4006 24.7957C32.6258 26.6319 31.4905 28.2977 30.0606 29.6967C28.6306 31.0956 26.9344 32.1999 25.0701 32.9456C23.2059 33.6912 21.2106 34.0634 19.2 34.0406ZM14.202 18.5057C15.858 18.5057 17.2 16.956 17.2 15.0421C17.2 13.1282 15.856 11.5784 14.2 11.5784C12.544 11.5784 11.2 13.1282 11.2 15.0421C11.2 16.956 12.544 18.5057 14.202 18.5057ZM24.2 18.5057C25.858 18.5057 27.2 16.956 27.2 15.0421C27.2 13.1282 25.856 11.5784 24.2 11.5784C22.544 11.5784 21.2 13.1301 21.2 15.0421C21.2 16.954 22.544 18.5057 24.2 18.5057ZM27.882 21.6447C27.529 21.4685 27.1203 21.4361 26.7435 21.5545C26.3666 21.6729 26.0516 21.9326 25.866 22.2781C25.798 22.4087 24.128 25.431 19.202 25.431C14.3 25.431 12.62 22.4364 12.536 22.2801C12.3562 21.9286 12.0427 21.6623 11.6644 21.5396C11.2861 21.4169 10.8741 21.448 10.519 21.6259C10.1639 21.8039 9.89473 22.1141 9.77077 22.4885C9.6468 22.8628 9.67818 23.2705 9.858 23.622C9.958 23.8179 12.354 28.3998 19.202 28.3998C26.052 28.3998 28.444 23.8159 28.542 23.62C28.7182 23.2713 28.7477 22.8677 28.624 22.4975C28.5003 22.1274 28.2335 21.8207 27.882 21.6447Z" fill="white"/>
</svg>
