<svg width="38" height="36" viewBox="0 0 38 36" fill="none" xmlns="http://www.w3.org/2000/svg">
<path d="M37.6042 32.3182H3.5625V0.409091C3.5625 0.184091 3.38438 0 3.16667 0H0.395833C0.178125 0 0 0.184091 0 0.409091V35.5909C0 35.8159 0.178125 36 0.395833 36H37.6042C37.8219 36 38 35.8159 38 35.5909V32.7273C38 32.5023 37.8219 32.3182 37.6042 32.3182ZM7.91667 22.7045C7.91667 23.5725 8.2503 24.405 8.84416 25.0187C9.43803 25.6325 10.2435 25.9773 11.0833 25.9773C11.9232 25.9773 12.7286 25.6325 13.3225 25.0187C13.9164 24.405 14.25 23.5725 14.25 22.7045C14.25 21.8366 13.9164 21.0041 13.3225 20.3904C12.7286 19.7766 11.9232 19.4318 11.0833 19.4318C10.2435 19.4318 9.43803 19.7766 8.84416 20.3904C8.2503 21.0041 7.91667 21.8366 7.91667 22.7045ZM13.7552 11.25C13.7552 11.901 14.0054 12.5253 14.4508 12.9856C14.8962 13.4459 15.5003 13.7045 16.1302 13.7045C16.7601 13.7045 17.3642 13.4459 17.8096 12.9856C18.255 12.5253 18.5052 11.901 18.5052 11.25C18.5052 10.599 18.255 9.97469 17.8096 9.51437C17.3642 9.05406 16.7601 8.79545 16.1302 8.79545C15.5003 8.79545 14.8962 9.05406 14.4508 9.51437C14.0054 9.97469 13.7552 10.599 13.7552 11.25ZM21.5729 22.9091C21.5729 24.2111 22.0734 25.4597 22.9642 26.3803C23.855 27.301 25.0631 27.8182 26.3229 27.8182C27.5827 27.8182 28.7909 27.301 29.6817 26.3803C30.5725 25.4597 31.0729 24.2111 31.0729 22.9091C31.0729 21.6071 30.5725 20.3585 29.6817 19.4378C28.7909 18.5172 27.5827 18 26.3229 18C25.0631 18 23.855 18.5172 22.9642 19.4378C22.0734 20.3585 21.5729 21.6071 21.5729 22.9091ZM28.8958 6.85227C28.8958 7.61176 29.1878 8.34013 29.7074 8.87717C30.227 9.41421 30.9318 9.71591 31.6667 9.71591C32.4015 9.71591 33.1063 9.41421 33.6259 8.87717C34.1456 8.34013 34.4375 7.61176 34.4375 6.85227C34.4375 6.09279 34.1456 5.36441 33.6259 4.82738C33.1063 4.29034 32.4015 3.98864 31.6667 3.98864C30.9318 3.98864 30.227 4.29034 29.7074 4.82738C29.1878 5.36441 28.8958 6.09279 28.8958 6.85227Z" fill="white"/>
</svg>
