<svg width="40" height="43" viewBox="0 0 40 43" fill="none" xmlns="http://www.w3.org/2000/svg">
<path d="M25.8333 15.1883C27.6667 15.1883 29.1667 13.6713 29.1667 11.8172C29.1667 9.96313 27.6667 8.44613 25.8333 8.44613C24 8.44613 22.5 9.96313 22.5 11.8172C22.5 13.6713 24 15.1883 25.8333 15.1883ZM8.33333 26.1445C3.66667 26.1445 0 29.8527 0 34.5722C0 39.2918 3.66667 43 8.33333 43C13 43 16.6667 39.2918 16.6667 34.5722C16.6667 29.8527 13 26.1445 8.33333 26.1445ZM8.33333 40.4717C5.16667 40.4717 2.5 37.7748 2.5 34.5722C2.5 31.3697 5.16667 28.6728 8.33333 28.6728C11.5 28.6728 14.1667 31.3697 14.1667 34.5722C14.1667 37.7748 11.5 40.4717 8.33333 40.4717ZM18 23.6161L22 19.5708L23.3333 20.9192C25.5 23.1105 28.3333 24.4589 31.8333 24.4589V21.0878C29.3333 21.0878 27.3333 20.0765 25.8333 18.5595L22.6667 15.3569C21.8333 14.6827 21 14.3456 20 14.3456C19 14.3456 18.1667 14.6827 17.6667 15.3569L13 20.0765C12.3333 20.7507 12 21.5935 12 22.4362C12 23.4476 12.3333 24.2903 13 24.796L18.3333 29.5156V37.9433H21.6667V27.4929L18 23.6161ZM31.6667 26.1445C27 26.1445 23.3333 29.8527 23.3333 34.5722C23.3333 39.2918 27 43 31.6667 43C36.3333 43 40 39.2918 40 34.5722C40 29.8527 36.3333 26.1445 31.6667 26.1445ZM31.6667 40.4717C28.5 40.4717 25.8333 37.7748 25.8333 34.5722C25.8333 31.3697 28.5 28.6728 31.6667 28.6728C34.8333 28.6728 37.5 31.3697 37.5 34.5722C37.5 37.7748 34.8333 40.4717 31.6667 40.4717Z" fill="white"/>
<path d="M10.6667 0H1.33333C0.979711 0 0.640573 0.150965 0.390525 0.419683C0.140476 0.688402 0 1.05286 0 1.43289V18.6276C0 19.0076 0.140476 19.372 0.390525 19.6408C0.640573 19.9095 0.979711 20.0604 1.33333 20.0604H10.6667C11.0203 20.0604 11.3594 19.9095 11.6095 19.6408C11.8595 19.372 12 19.0076 12 18.6276V1.43289C12 1.05286 11.8595 0.688402 11.6095 0.419683C11.3594 0.150965 11.0203 0 10.6667 0ZM6.66667 18.6276H5.33333V17.1947H6.66667V18.6276ZM1.33333 15.7618V1.43289H10.6667V15.7618H1.33333Z" fill="white"/>
</svg>
