<svg width="50" height="50" viewBox="0 0 50 50" fill="none" xmlns="http://www.w3.org/2000/svg">
<path d="M47.6562 12.5H46.875V7.8125C46.875 3.4375 37.1875 0 25 0C12.8125 0 3.125 3.4375 3.125 7.8125V12.5H2.34375C1.0498 12.5 0 13.5488 0 14.8438V22.6562C0 23.9502 1.0498 25 2.34375 25H3.125V40.625C3.125 42.3506 4.52441 43.75 6.25 43.75V46.875C6.25 48.6006 7.64941 50 9.375 50H12.5C14.2256 50 15.625 48.6006 15.625 46.875V43.75H34.375V46.875C34.375 48.6006 35.7744 50 37.5 50H40.625C42.3506 50 43.75 48.6006 43.75 46.875V43.75H44.375C45.9375 43.75 46.875 42.5 46.875 41.25V25H47.6562C48.9502 25 50 23.9502 50 22.6562V14.8438C50 13.5488 48.9502 12.5 47.6562 12.5ZM10.9375 39.0625C9.21191 39.0625 7.8125 37.6631 7.8125 35.9375C7.8125 34.2119 9.21191 32.8125 10.9375 32.8125C12.6631 32.8125 14.0625 34.2119 14.0625 35.9375C14.0625 37.6631 12.6631 39.0625 10.9375 39.0625ZM12.5 28.125C10.7744 28.125 9.375 26.7256 9.375 25V12.5C9.375 10.7744 10.7744 9.375 12.5 9.375H37.5C39.2256 9.375 40.625 10.7744 40.625 12.5V25C40.625 26.7256 39.2256 28.125 37.5 28.125H12.5ZM39.0625 39.0625C37.3369 39.0625 35.9375 37.6631 35.9375 35.9375C35.9375 34.2119 37.3369 32.8125 39.0625 32.8125C40.7881 32.8125 42.1875 34.2119 42.1875 35.9375C42.1875 37.6631 40.7881 39.0625 39.0625 39.0625Z" fill="#ECECEC"/>
</svg>
