<svg width="23" height="21" viewBox="0 0 23 21" fill="none" xmlns="http://www.w3.org/2000/svg">
<path d="M11.7 0C5.6254 0 0.699951 4.70156 0.699951 10.5C0.699951 16.2984 5.6254 21 11.7 21C17.7745 21 22.7 16.2984 22.7 10.5C22.7 4.70156 17.7745 0 11.7 0ZM16.9863 7.91484C16.9937 8.025 16.9937 8.13984 16.9937 8.25234C16.9937 11.693 14.2486 15.6562 9.23232 15.6562C7.68544 15.6562 6.25151 15.2273 5.04348 14.4891C5.26446 14.5125 5.47562 14.5219 5.70151 14.5219C6.9783 14.5219 8.15196 14.1094 9.08745 13.4109C7.88924 13.3875 6.88254 12.6375 6.53879 11.6063C6.95866 11.6648 7.33678 11.6648 7.76892 11.5594C7.15196 11.4397 6.59741 11.1199 6.1995 10.6542C5.80159 10.1885 5.58485 9.60564 5.58611 9.00469V8.97187C5.94705 9.16641 6.37183 9.28594 6.81625 9.30234C6.44264 9.06467 6.13625 8.74268 5.92424 8.36491C5.71223 7.98715 5.60115 7.56528 5.60084 7.13672C5.60084 6.65156 5.73343 6.20859 5.9716 5.82422C6.65641 6.62891 7.51094 7.28705 8.47966 7.75586C9.44839 8.22466 10.5096 8.49364 11.5944 8.54531C11.2089 6.77578 12.5937 5.34375 14.2584 5.34375C15.0441 5.34375 15.7513 5.65781 16.2497 6.16406C16.866 6.05391 17.4553 5.83359 17.9808 5.53828C17.777 6.14062 17.3497 6.64922 16.7825 6.97031C17.3325 6.91406 17.8629 6.76875 18.354 6.56484C17.9832 7.08516 17.5191 7.54688 16.9863 7.91484Z" fill="#CBCBCB"/>
</svg>
