<svg width="50" height="34" viewBox="0 0 50 34" fill="none" xmlns="http://www.w3.org/2000/svg">
<path d="M49.819 18.7757C49.4439 14.5657 48.8261 13.7458 48.5927 13.4374C48.0562 12.7248 47.1977 12.2591 46.2893 11.7705C46.2379 11.7433 46.1935 11.7046 46.1597 11.6573C46.1258 11.6101 46.1034 11.5556 46.0942 11.4983C46.0851 11.4409 46.0893 11.3821 46.1067 11.3267C46.1241 11.2712 46.1541 11.2206 46.1945 11.1787C46.3627 11.0081 46.492 10.8031 46.5735 10.5777C46.6549 10.3524 46.6866 10.1121 46.6664 9.87333C46.6272 9.44994 46.4304 9.05675 46.1148 8.77172C45.7993 8.4867 45.3882 8.33066 44.963 8.33456H43.3378C43.2681 8.33497 43.1986 8.33949 43.1294 8.3481C43.082 8.32752 43.0328 8.31114 42.9825 8.29914C42.0199 6.26446 40.702 3.47864 37.9703 2.11906C33.9187 0.104182 26.4551 0 24.9965 0C23.538 0 16.0744 0.104182 12.028 2.11594C9.29632 3.47551 7.97842 6.26134 7.01578 8.29601L7.00744 8.31268C6.95943 8.31943 6.91228 8.33131 6.8668 8.3481C6.79767 8.33949 6.72809 8.33497 6.65843 8.33456H5.03007C4.60489 8.33066 4.19378 8.4867 3.87826 8.77172C3.56275 9.05675 3.36588 9.44994 3.32669 9.87333C3.30819 10.1115 3.34133 10.3509 3.42386 10.5751C3.50639 10.7994 3.63636 11.0031 3.80489 11.1725C3.8452 11.2143 3.87524 11.265 3.89263 11.3204C3.91003 11.3759 3.91429 11.4346 3.9051 11.492C3.89591 11.5494 3.8735 11.6038 3.83966 11.6511C3.80582 11.6983 3.76146 11.7371 3.71008 11.7642C2.80161 12.256 1.93899 12.7217 1.40662 13.4311C1.17325 13.7437 0.556493 14.5594 0.180396 18.7694C-0.0279681 21.1385 -0.0592226 23.591 0.104343 25.1704C0.447102 28.4521 1.08991 30.4357 1.11699 30.518C1.21563 30.8175 1.3972 31.0829 1.64062 31.2834C1.88404 31.4838 2.17933 31.6111 2.49219 31.6505V31.6713C2.49219 32.1134 2.66782 32.5374 2.98042 32.85C3.29303 33.1626 3.71701 33.3382 4.15911 33.3382H9.9933C10.4354 33.3382 10.8594 33.1626 11.172 32.85C11.4846 32.5374 11.6602 32.1134 11.6602 31.6713C12.5572 31.6713 13.1813 31.5109 13.8428 31.34C14.7979 31.0827 15.7742 30.9115 16.7599 30.8285C19.9385 30.5253 23.0994 30.4211 24.9965 30.4211C26.8552 30.4211 30.1556 30.5253 33.3394 30.8285C34.329 30.9117 35.3092 31.0836 36.268 31.3421C36.9014 31.5046 37.5026 31.6547 38.335 31.6703C38.335 32.1124 38.5106 32.5364 38.8232 32.849C39.1358 33.1616 39.5598 33.3372 40.0019 33.3372H45.8361C46.2782 33.3372 46.7022 33.1616 47.0148 32.849C47.3274 32.5364 47.503 32.1124 47.503 31.6703V31.6578C47.8166 31.6192 48.1128 31.4922 48.357 31.2917C48.6012 31.0912 48.7834 30.8254 48.8824 30.5253C48.9094 30.443 49.5522 28.4594 49.895 25.1777C50.0586 23.5972 50.0294 21.1489 49.819 18.7757ZM10.0287 9.72122C10.8622 7.95013 11.8154 5.94567 13.5126 5.10075C15.965 3.87974 21.048 3.32966 24.9965 3.32966C28.945 3.32966 34.0281 3.87557 36.4805 5.10075C38.1777 5.94567 39.1268 7.95117 39.9644 9.72122L40.0686 9.9473C40.1295 10.076 40.1564 10.2182 40.1468 10.3602C40.1372 10.5023 40.0913 10.6395 40.0136 10.7588C39.9358 10.8781 39.8288 10.9755 39.7028 11.0418C39.5767 11.108 39.4358 11.1408 39.2934 11.1371C35.8315 11.0433 28.5387 10.7432 24.9965 10.7432C21.4544 10.7432 14.1616 11.0506 10.6944 11.1443C10.5521 11.1481 10.4112 11.1153 10.2851 11.0491C10.159 10.9828 10.052 10.8854 9.97432 10.7661C9.89659 10.6468 9.85073 10.5096 9.8411 10.3675C9.83148 10.2255 9.85841 10.0833 9.91933 9.95459C9.95579 9.87749 9.99434 9.79936 10.0287 9.72122ZM11.2716 18.0172C9.47948 18.2329 7.67588 18.3394 5.87082 18.336C4.76649 18.336 3.62778 18.0235 3.41629 17.04C3.27148 16.3785 3.2871 16.0065 3.36524 15.6325C3.43087 15.3148 3.53506 15.0835 4.05597 15.0022C5.41033 14.7938 6.16774 15.0553 8.38473 15.7086C9.85474 16.1409 10.9153 16.717 11.5196 17.1734C11.8227 17.3984 11.6613 17.986 11.2716 18.0172ZM34.3354 26.5602C32.9644 26.7164 30.2223 26.6591 25.0278 26.6591C19.8333 26.6591 17.0923 26.7164 15.7212 26.5602C14.3064 26.4028 12.503 25.0651 13.7345 23.8733C14.5544 23.0878 16.4672 22.5002 19.0144 22.1699C21.5617 21.8397 22.64 21.6699 25.0174 21.6699C27.3948 21.6699 28.3637 21.774 31.0204 22.171C33.677 22.5679 35.6846 23.1628 36.3003 23.8743C37.4234 25.1495 35.7492 26.3945 34.3354 26.5664V26.5602ZM46.5768 17.039C46.3684 18.0266 45.2224 18.335 44.1223 18.335C42.2827 18.3354 40.4446 18.229 38.6173 18.0162C38.2985 17.986 38.1506 17.4265 38.4735 17.1723C39.0684 16.7045 40.1404 16.1399 41.6084 15.7075C43.8254 15.0543 45.1037 14.7928 46.2018 15.0105C46.4695 15.0637 46.6112 15.3512 46.6279 15.5315C46.7013 16.0333 46.684 16.5443 46.5768 17.04V17.039Z" fill="#ECECEC"/>
</svg>
