<svg width="27" height="23" viewBox="0 0 27 23" fill="none" xmlns="http://www.w3.org/2000/svg">
<path d="M17.4375 4.4878C18.675 4.4878 19.6875 3.47805 19.6875 2.2439C19.6875 1.00976 18.675 0 17.4375 0C16.2 0 15.1875 1.00976 15.1875 2.2439C15.1875 3.47805 16.2 4.4878 17.4375 4.4878ZM5.625 11.7805C2.475 11.7805 0 14.2488 0 17.3902C0 20.5317 2.475 23 5.625 23C8.775 23 11.25 20.5317 11.25 17.3902C11.25 14.2488 8.775 11.7805 5.625 11.7805ZM5.625 21.3171C3.4875 21.3171 1.6875 19.522 1.6875 17.3902C1.6875 15.2585 3.4875 13.4634 5.625 13.4634C7.7625 13.4634 9.5625 15.2585 9.5625 17.3902C9.5625 19.522 7.7625 21.3171 5.625 21.3171ZM12.15 10.0976L14.85 7.40488L15.75 8.30244C17.2125 9.76097 19.125 10.6585 21.4875 10.6585V8.41463C19.8 8.41463 18.45 7.74146 17.4375 6.73171L15.3 4.6C14.7375 4.15122 14.175 3.92683 13.5 3.92683C12.825 3.92683 12.2625 4.15122 11.925 4.6L8.775 7.74146C8.325 8.19024 8.1 8.75122 8.1 9.3122C8.1 9.98537 8.325 10.5463 8.775 10.8829L12.375 14.0244V19.6341H14.625V12.678L12.15 10.0976ZM21.375 11.7805C18.225 11.7805 15.75 14.2488 15.75 17.3902C15.75 20.5317 18.225 23 21.375 23C24.525 23 27 20.5317 27 17.3902C27 14.2488 24.525 11.7805 21.375 11.7805ZM21.375 21.3171C19.2375 21.3171 17.4375 19.522 17.4375 17.3902C17.4375 15.2585 19.2375 13.4634 21.375 13.4634C23.5125 13.4634 25.3125 15.2585 25.3125 17.3902C25.3125 19.522 23.5125 21.3171 21.375 21.3171Z" fill="#4265D6"/>
</svg>
