<svg width="15" height="15" viewBox="0 0 15 15" fill="none" xmlns="http://www.w3.org/2000/svg">
<path fill-rule="evenodd" clip-rule="evenodd" d="M12.4676 0C11.4356 0 10.5629 0.710254 10.3108 1.66381L10.0331 1.53481C9.98359 1.51178 9.92963 1.49985 9.87501 1.49985C9.82039 1.49985 9.76643 1.51178 9.71691 1.53481L5.12493 3.66797L0.532953 1.53496C0.475815 1.50842 0.412912 1.49671 0.350053 1.5009C0.287193 1.50509 0.226402 1.52505 0.173293 1.55894C0.120184 1.59283 0.0764672 1.63955 0.0461799 1.69479C0.0158926 1.75003 1.05799e-05 1.81201 1.01139e-08 1.87501V12.4181C-1.65921e-05 12.4896 0.0204068 12.5596 0.0588628 12.6199C0.0973189 12.6802 0.152205 12.7282 0.217051 12.7583L4.96698 14.9647C5.01651 14.9877 5.07046 14.9996 5.12508 14.9996C5.1797 14.9996 5.23366 14.9877 5.28318 14.9647L9.87516 12.8317L14.4671 14.9647C14.7157 15.08 15.0001 14.8987 15.0001 14.6248V4.08168C15.0001 4.01018 14.9797 3.94016 14.9412 3.87989C14.9028 3.81961 14.8479 3.77159 14.783 3.74147L14.2985 3.51617L14.4502 3.25787C14.4847 3.19532 14.5121 3.12872 14.5357 3.06062C14.6443 2.79588 14.7002 2.51247 14.7001 2.22631C14.7001 1.00276 13.6948 0 12.4676 0ZM12.4676 1.04296C13.1284 1.04296 13.6538 1.56736 13.6538 2.22631C13.6538 2.88512 13.1284 3.40907 12.4676 3.40907C11.8069 3.40907 11.2814 2.88512 11.2814 2.22631C11.2814 1.56736 11.8069 1.04296 12.4676 1.04296ZM10.0427 2.36626L10.2493 2.46241C10.2896 2.83723 10.4251 3.1955 10.643 3.50312L12.1952 6.18664C12.4127 6.47074 12.5573 6.41674 12.7381 6.17164L13.9166 4.16568L14.2501 4.32078V14.0371L10.0984 12.1085L10.0645 6.15709C10.1257 6.17029 10.1867 6.18304 10.2481 6.19759L10.3861 5.61393C10.2781 5.5884 10.1697 5.56475 10.0609 5.54298L10.0429 2.36626H10.0427ZM9.59301 2.41936L9.61026 5.46978C9.45534 5.44852 9.29952 5.43446 9.14331 5.42763L9.12111 6.02704C9.28431 6.03304 9.44886 6.05074 9.61386 6.07474L9.64836 12.1099L5.34693 14.1083L5.29158 4.41768L9.59301 2.41951V2.41936ZM0.750005 2.46271L4.84128 4.36323L4.89693 14.1053L0.750005 12.1787V2.46271ZM8.4815 5.46858C8.27495 5.50563 8.0636 5.57178 7.8668 5.68623C7.63138 5.82255 7.43778 6.02071 7.30699 6.25924L7.8323 6.54904C7.91056 6.40655 8.02594 6.2879 8.1662 6.20569L8.1671 6.20509L8.168 6.20449C8.28905 6.13399 8.4332 6.08659 8.58755 6.05899L8.4815 5.46858ZM10.9814 5.77323L10.8115 6.34834C11.1869 6.45934 11.5588 6.58684 11.9285 6.72484L12.1384 6.16264C11.7586 6.02104 11.3734 5.88904 10.9814 5.77323ZM7.08109 6.91264L7.07659 6.93634L7.07614 6.93844C7.00129 7.36309 7.00924 7.781 7.02604 8.1782L7.62545 8.1527C7.6091 7.76735 7.60565 7.39445 7.667 7.04449L7.6706 7.02574L7.08109 6.91264ZM7.66115 8.74415L7.06264 8.78465C7.08964 9.18501 7.11844 9.57741 7.11739 9.96216L7.7174 9.96366C7.7186 9.54816 7.68815 9.14196 7.66115 8.74415ZM7.08754 10.5277C7.07104 10.6706 7.04644 10.8097 7.01044 10.9432L7.01014 10.9439L7.00984 10.9451C6.95734 11.1454 6.86899 11.3308 6.74569 11.476L7.20274 11.8645C7.39595 11.6372 7.5185 11.3698 7.58975 11.0992L7.59005 11.0983C7.63505 10.9309 7.6643 10.7623 7.6835 10.5958L7.08754 10.5277ZM2.02231 11.1124L1.75291 11.6485C2.12491 11.8355 2.50967 11.9902 2.89712 12.124L3.09287 11.5568C2.72462 11.4298 2.36506 11.2846 2.02231 11.1124ZM3.64772 11.7293L3.48812 12.3077C3.88502 12.4174 4.29303 12.5045 4.71003 12.5515L4.77693 11.9552C4.39878 11.9128 4.02167 11.8327 3.64772 11.7293ZM6.36889 11.7716C6.07009 11.9246 5.70933 11.9812 5.33838 11.9857L5.34588 12.5857C5.77099 12.5806 6.22549 12.5191 6.64219 12.3056L6.36889 11.7716Z" fill="#716C6C"/>
</svg>
