<svg width="41" height="47" viewBox="0 0 41 47" fill="none" xmlns="http://www.w3.org/2000/svg">
<g clip-path="url(#clip0_814_2)">
<path d="M13.8374 19.0938C13.8374 19.8282 13.2517 20.4892 12.4464 20.4892H6.29636C5.56422 20.4892 4.90529 19.9017 4.90529 19.0938V17.3313C4.90529 16.597 5.56422 15.936 6.29636 15.936H12.4464C13.1785 15.936 13.8374 16.5235 13.8374 17.3313V19.0938ZM38.8035 19.0204C38.8035 19.461 38.4374 19.7548 38.0714 19.7548H34.7767C34.3374 19.7548 34.0446 19.3876 34.0446 19.0204V18.0657C34.0446 17.6251 34.4106 17.3313 34.7767 17.3313H38.0714C38.5106 17.3313 38.8035 17.6985 38.8035 18.0657V19.0204ZM40.9267 41.0517C40.9267 42.961 39.3892 44.5032 37.4856 44.5032H3.58743C1.68386 44.5032 0.146362 42.961 0.146362 41.0517V40.0235H40.9267V41.0517" fill="#212528"/>
<path d="M0.0732422 21.7372C0.0732422 19.8278 1.61074 18.2856 3.51431 18.2856H37.4125C39.3161 18.2856 40.8536 19.8278 40.8536 21.7372V22.7653H0.0732422V21.7372Z" fill="#51575B"/>
<path d="M0.0732422 22.6187H40.8536V40.6843H0.0732422V22.6187Z" fill="#3E4347"/>
<path d="M34.9232 21.1501H14.4965L16.5465 9.91416C16.6929 9.25322 17.5715 8.29854 18.084 8.07822C21.2322 6.68291 28.2607 6.68291 31.3357 8.07822C31.8482 8.29854 32.7268 9.32666 32.8732 9.91416L34.9232 21.1501Z" fill="#51575B"/>
<path d="M33.9714 27.7593H15.5214L17.3517 18.4327C17.4981 17.9187 18.3035 17.0374 18.7428 16.8905C21.5249 15.7155 27.8946 15.7155 30.7499 16.8905C31.1892 17.1108 31.9946 17.9187 32.141 18.4327L33.9714 27.7593Z" fill="#3E4347"/>
<path d="M38.7304 32.9003C38.7304 40.6847 32.4339 47.0003 24.6732 47.0003C16.9125 47.0003 10.6161 40.6847 10.6161 32.9003C10.6161 25.1159 16.9125 18.8003 24.6732 18.8003C32.4339 18.8737 38.7304 25.1894 38.7304 32.9003" fill="#788287"/>
<path d="M37.1929 32.8999C37.1929 39.803 31.6286 45.3843 24.7465 45.3843C17.8643 45.3843 12.3 39.803 12.3 32.8999C12.3 25.9968 17.8643 20.4155 24.7465 20.4155C31.6286 20.4155 37.1929 25.9968 37.1929 32.8999Z" fill="#212528"/>
<path d="M24.7464 43.0344C30.3264 43.0344 34.85 38.4971 34.85 32.9C34.85 27.3029 30.3264 22.7656 24.7464 22.7656C19.1663 22.7656 14.6428 27.3029 14.6428 32.9C14.6428 38.4971 19.1663 43.0344 24.7464 43.0344Z" fill="#3E4347"/>
<path d="M24.7464 38.4077C27.7791 38.4077 30.2375 35.9418 30.2375 32.8999C30.2375 29.858 27.7791 27.3921 24.7464 27.3921C21.7138 27.3921 19.2554 29.858 19.2554 32.8999C19.2554 35.9418 21.7138 38.4077 24.7464 38.4077Z" fill="#212528"/>
<path opacity="0.5" d="M32.141 28.5675C32.141 30.33 30.75 31.7253 28.9928 31.7253C27.2357 31.7253 25.8446 30.33 25.8446 28.5675C25.8446 26.805 27.2357 25.4097 28.9928 25.4097C30.75 25.4097 32.141 26.8784 32.141 28.5675Z" fill="#F5F5F5"/>
<path opacity="0.5" d="M22.7696 36.866C23.8614 36.866 24.7464 35.9783 24.7464 34.8832C24.7464 33.7881 23.8614 32.9004 22.7696 32.9004C21.6779 32.9004 20.7928 33.7881 20.7928 34.8832C20.7928 35.9783 21.6779 36.866 22.7696 36.866Z" fill="#F5F5F5"/>
<path opacity="0.5" d="M19.2553 39.5829C19.9023 39.5829 20.4267 39.0568 20.4267 38.4079C20.4267 37.759 19.9023 37.2329 19.2553 37.2329C18.6083 37.2329 18.0839 37.759 18.0839 38.4079C18.0839 39.0568 18.6083 39.5829 19.2553 39.5829Z" fill="#F5F5F5"/>
<path d="M9.66428 37.8204C9.66428 38.5548 9.07857 39.2157 8.27321 39.2157H2.34285C1.61071 39.2157 0.951782 38.6282 0.951782 37.8204V25.4095C0.951782 24.6751 1.5375 24.0142 2.34285 24.0142H8.27321C9.00535 24.0142 9.66428 24.6017 9.66428 25.4095V37.8204Z" fill="#636C72"/>
<path d="M6.51606 22.7653C7.64825 22.7653 8.56606 21.8447 8.56606 20.7091C8.56606 19.5734 7.64825 18.6528 6.51606 18.6528C5.38388 18.6528 4.46606 19.5734 4.46606 20.7091C4.46606 21.8447 5.38388 22.7653 6.51606 22.7653Z" fill="#212528"/>
<path d="M30.75 12.7778C30.75 13.5122 30.1643 14.0263 29.5054 14.0263H19.9143C19.1822 14.0263 18.6697 13.4388 18.6697 12.7778V11.456C18.6697 10.7216 19.2554 10.2075 19.9143 10.2075H29.5054C30.2375 10.2075 30.75 10.795 30.75 11.456V12.7778Z" fill="white"/>
<path d="M28.1875 11.1625L36.9732 5.36094L35.3625 3.23125L28.1875 11.1625ZM38.4375 13.8797V11.3828L29.4321 13.0719L38.4375 13.8797ZM30.091 0H27.0892L25.4785 10.6484L30.091 0ZM21.6714 11.1625L14.2035 3.23125L12.5196 5.36094L21.6714 11.1625ZM21.891 0H18.816L23.8678 10.6484L21.891 0ZM10.7625 11.3828V13.8797L20.2071 13.0719L10.7625 11.3828Z" fill="#FFCE31"/>
</g>
<defs>
<clipPath id="clip0_814_2">
<rect width="41" height="47" fill="white"/>
</clipPath>
</defs>
</svg>
