<svg width="24" height="17" viewBox="0 0 24 17" fill="none" xmlns="http://www.w3.org/2000/svg">
<path d="M2.73071 2.73071H21.1923" stroke="#716C6C" stroke-width="1.66667"/>
<path d="M4.36347 1L3.1404 2.22365C3.08675 2.27723 3.0442 2.34086 3.01517 2.4109C2.98613 2.48094 2.97119 2.55601 2.97119 2.63183C2.97119 2.70764 2.98613 2.78272 3.01517 2.85275C3.0442 2.92279 3.08675 2.98642 3.1404 3.04L4.36405 4.26308M19.5596 4.26365L20.7833 3.03942C20.8914 2.93123 20.9522 2.78452 20.9522 2.63154C20.9522 2.47856 20.8914 2.33184 20.7833 2.22365L19.5596 1" stroke="#716C6C" stroke-width="1.66667" stroke-linecap="round"/>
<path d="M6.19231 9.3654C6.19231 9.74793 6.04035 10.1148 5.76987 10.3853C5.49938 10.6558 5.13252 10.8077 4.75 10.8077C4.36748 10.8077 4.00062 10.6558 3.73013 10.3853C3.45965 10.1148 3.30769 9.74793 3.30769 9.3654C3.30769 8.98288 3.45965 8.61602 3.73013 8.34554C4.00062 8.07505 4.36748 7.9231 4.75 7.9231C5.13252 7.9231 5.49938 8.07505 5.76987 8.34554C6.04035 8.61602 6.19231 8.98288 6.19231 9.3654ZM1 14.4233C1 13.9773 1.40904 13.5025 2.28423 13.1033C3.11038 12.7271 4.11077 12.5385 4.75 12.5385C5.38923 12.5385 6.38962 12.7266 7.21577 13.1039C8.09039 13.5019 8.5 13.9767 8.5 14.4227V16H1V14.4233ZM20.6154 9.3654C20.6154 9.74793 20.4634 10.1148 20.1929 10.3853C19.9225 10.6558 19.5556 10.8077 19.1731 10.8077C18.7906 10.8077 18.4237 10.6558 18.1532 10.3853C17.8827 10.1148 17.7308 9.74793 17.7308 9.3654C17.7308 8.98288 17.8827 8.61602 18.1532 8.34554C18.4237 8.07505 18.7906 7.9231 19.1731 7.9231C19.5556 7.9231 19.9225 8.07505 20.1929 8.34554C20.4634 8.61602 20.6154 8.98288 20.6154 9.3654ZM15.4231 14.4233C15.4231 13.9773 15.8321 13.5025 16.7073 13.1033C17.5335 12.7271 18.5338 12.5385 19.1731 12.5385C19.8123 12.5385 20.8127 12.7266 21.6388 13.1039C22.5135 13.5019 22.9231 13.9767 22.9231 14.4227V16H15.4231V14.4233Z" fill="#716C6C" stroke="#716C6C" stroke-width="1.66667"/>
</svg>
