<svg width="26" height="18" viewBox="0 0 26 18" fill="none" xmlns="http://www.w3.org/2000/svg">
<g clip-path="url(#clip0_704_2)">
<path d="M24.212 0.333291C24.1053 0.323148 23.9978 0.323148 23.8912 0.333291H1.98377C1.84336 0.335289 1.70388 0.354722 1.56909 0.391069L12.8749 10.7838L24.212 0.333291Z" fill="#716C6C"/>
<path d="M25.3699 1.3374L13.9781 11.8096C13.6849 12.0787 13.2883 12.2297 12.8749 12.2297C12.4615 12.2297 12.0649 12.0787 11.7717 11.8096L0.481526 1.41685C0.446818 1.5346 0.428415 1.65594 0.426758 1.77796V16.2224C0.426758 16.6055 0.591622 16.9729 0.885081 17.2438C1.17854 17.5147 1.57656 17.6668 1.99157 17.6668H23.899C24.314 17.6668 24.712 17.5147 25.0055 17.2438C25.2989 16.9729 25.4638 16.6055 25.4638 16.2224V1.77796C25.4576 1.62749 25.4259 1.47884 25.3699 1.3374V1.3374ZM3.06347 16.2224H1.97592V15.1896L7.66403 9.9824L8.76722 11.0007L3.06347 16.2224ZM23.8833 16.2224H22.788L17.0842 11.0007L18.1874 9.9824L23.8755 15.1896L23.8833 16.2224Z" fill="#716C6C"/>
</g>
<defs>
<clipPath id="clip0_704_2">
<rect width="26" height="18" fill="white"/>
</clipPath>
</defs>
</svg>
