<svg width="28" height="33" viewBox="0 0 28 33" fill="none" xmlns="http://www.w3.org/2000/svg">
<g clip-path="url(#clip0_716_3)">
<path d="M1.12 0V29.7H-0.559998V33H6.16V29.7H4.48V21.45H26.32C26.7656 21.45 27.1929 21.2762 27.5079 20.9667C27.823 20.6573 28 20.2376 28 19.8V3.3C28 2.86239 27.823 2.44271 27.5079 2.13327C27.1929 1.82384 26.7656 1.65 26.32 1.65H4.48V0H1.12ZM7.84 4.95V8.25H11.2V4.95H14.56V8.25H17.92V4.95H21.28V8.25H24.64V11.55H21.28V14.85H24.64V18.15H21.28V14.85H17.92V18.15H14.56V14.85H11.2V18.15H7.84V14.85H4.48V11.55H7.84V8.25H4.48V4.95H7.84Z" fill="#4E9B5D"/>
<path d="M7.84003 11.55H11.2V14.85H7.84003V11.55ZM14.56 11.55H17.92V14.85H14.56V11.55ZM11.2 8.25H14.56V11.55H11.2V8.25ZM17.92 8.25H21.28V11.55H17.92V8.25Z" fill="#4E9B5D"/>
</g>
<defs>
<clipPath id="clip0_716_3">
<rect width="28" height="33" fill="white"/>
</clipPath>
</defs>
</svg>
