<svg width="32" height="30" viewBox="0 0 32 30" fill="none" xmlns="http://www.w3.org/2000/svg">
<path d="M28.1399 1C28.1399 0.734784 28.0345 0.48043 27.847 0.292893C27.6595 0.105357 27.4051 0 27.1399 0H5.13989C4.87468 0 4.62032 0.105357 4.43279 0.292893C4.24525 0.48043 4.13989 0.734784 4.13989 1V2H28.1399V1Z" fill="#716C6C"/>
<path d="M30.1201 5C30.1201 4.73478 30.0148 4.48043 29.8272 4.29289C29.6397 4.10536 29.3853 4 29.1201 4H3.12012C2.8549 4 2.60055 4.10536 2.41301 4.29289C2.22547 4.48043 2.12012 4.73478 2.12012 5V6H30.1201V5Z" fill="#716C6C"/>
<path d="M30.12 8H1.88C1.38139 8 0.903208 8.19807 0.550639 8.55064C0.198071 8.90321 0 9.38139 0 9.88V28.12C0 28.6186 0.198071 29.0968 0.550639 29.4494C0.903208 29.8019 1.38139 30 1.88 30H30.12C30.6186 30 31.0968 29.8019 31.4494 29.4494C31.8019 29.0968 32 28.6186 32 28.12V9.88C32 9.38139 31.8019 8.90321 31.4494 8.55064C31.0968 8.19807 30.6186 8 30.12 8V8ZM6.56 11.45C7.15334 11.45 7.73336 11.6259 8.22671 11.9556C8.72006 12.2852 9.10458 12.7538 9.33164 13.3019C9.5587 13.8501 9.61811 14.4533 9.50236 15.0353C9.3866 15.6172 9.10088 16.1518 8.68132 16.5713C8.26176 16.9909 7.72721 17.2766 7.14527 17.3924C6.56333 17.5081 5.96013 17.4487 5.41195 17.2216C4.86377 16.9946 4.39524 16.6101 4.06559 16.1167C3.73595 15.6234 3.56 15.0433 3.56 14.45C3.56 13.6544 3.87607 12.8913 4.43868 12.3287C5.00129 11.7661 5.76435 11.45 6.56 11.45V11.45ZM28 26H4L11.46 18.53C11.593 18.3981 11.7727 18.3241 11.96 18.3241C12.1473 18.3241 12.327 18.3981 12.46 18.53L16.14 22.21L21.21 17C21.343 16.8681 21.5227 16.7941 21.71 16.7941C21.8973 16.7941 22.077 16.8681 22.21 17L28 22.79V26Z" fill="#716C6C"/>
</svg>
