<svg width="30" height="39" viewBox="0 0 30 39" fill="none" xmlns="http://www.w3.org/2000/svg">
<path fill-rule="evenodd" clip-rule="evenodd" d="M6 3C6 2.20435 6.31607 1.44129 6.87868 0.87868C7.44129 0.316071 8.20435 0 9 0H17C17.7956 0 18.5587 0.316071 19.1213 0.87868C19.6839 1.44129 20 2.20435 20 3H23C23.7956 3 24.5587 3.31607 25.1213 3.87868C25.6839 4.44129 26 5.20435 26 6V21H24V6C24 5.73478 23.8946 5.48043 23.7071 5.29289C23.5196 5.10536 23.2652 5 23 5H20C20 5.79565 19.6839 6.55871 19.1213 7.12132C18.5587 7.68393 17.7956 8 17 8H9C8.20435 8 7.44129 7.68393 6.87868 7.12132C6.31607 6.55871 6 5.79565 6 5H3C2.73478 5 2.48043 5.10536 2.29289 5.29289C2.10536 5.48043 2 5.73478 2 6V34C2 34.2652 2.10536 34.5196 2.29289 34.7071C2.48043 34.8946 2.73478 35 3 35H15V37H3C2.20435 37 1.44129 36.6839 0.878679 36.1213C0.31607 35.5587 0 34.7956 0 34V6C0 5.20435 0.31607 4.44129 0.878679 3.87868C1.44129 3.31607 2.20435 3 3 3H6ZM9 2C8.73478 2 8.48043 2.10536 8.29289 2.29289C8.10536 2.48043 8 2.73478 8 3V5C8 5.26522 8.10536 5.51957 8.29289 5.70711C8.48043 5.89464 8.73478 6 9 6H17C17.2652 6 17.5196 5.89464 17.7071 5.70711C17.8946 5.51957 18 5.26522 18 5V3C18 2.73478 17.8946 2.48043 17.7071 2.29289C17.5196 2.10536 17.2652 2 17 2H9ZM12 12V15H9V17H12V20H14V17H17V15H14V12H12ZM17 23C16.7348 23 16.4804 23.1054 16.2929 23.2929C16.1054 23.4804 16 23.7348 16 24V30.789C16 31.9413 16.2846 33.0758 16.8283 34.0918C17.3721 35.1078 18.1582 35.9738 19.117 36.613L22.445 38.833C22.6093 38.9426 22.8025 39.0011 23 39.0011C23.1975 39.0011 23.3907 38.9426 23.555 38.833L26.883 36.613C27.8416 35.9739 28.6277 35.108 29.1714 34.0922C29.7152 33.0765 29.9998 31.9422 30 30.79V24C30 23.7348 29.8946 23.4804 29.7071 23.2929C29.5196 23.1054 29.2652 23 29 23H17ZM26.707 28.707L22.707 32.707C22.5195 32.8945 22.2652 32.9998 22 32.9998C21.7348 32.9998 21.4805 32.8945 21.293 32.707L19.293 30.707L20.707 29.293L22 30.586L25.293 27.293L26.707 28.707Z" fill="#716C6C"/>
</svg>
