<svg width="12" height="15" viewBox="0 0 12 15" fill="none" xmlns="http://www.w3.org/2000/svg">
<path d="M5.89286 15L1.37358 9.67018C1.31078 9.59015 1.24864 9.50961 1.18715 9.42857C0.415174 8.41167 -0.00186492 7.16958 6.2694e-06 5.89286C6.2694e-06 4.32997 0.620859 2.8311 1.72598 1.72598C2.83111 0.620853 4.32998 0 5.89286 0C7.45575 0 8.95462 0.620853 10.0597 1.72598C11.1649 2.8311 11.7857 4.32997 11.7857 5.89286C11.7876 7.169 11.3707 8.41053 10.5991 9.42696L10.5986 9.42857C10.5986 9.42857 10.4379 9.63964 10.4138 9.66804L5.89286 15ZM2.04215 8.78304C2.04322 8.78304 2.16751 8.94804 2.1959 8.98339L5.89286 13.3436L9.59465 8.9775C9.61822 8.94804 9.74358 8.78196 9.74411 8.78143C10.3747 7.9506 10.7155 6.93591 10.7143 5.89286C10.7143 4.61413 10.2063 3.38779 9.30213 2.48359C8.39793 1.5794 7.17159 1.07143 5.89286 1.07143C4.61414 1.07143 3.38779 1.5794 2.4836 2.48359C1.57941 3.38779 1.07143 4.61413 1.07143 5.89286C1.07031 6.93656 1.41149 7.95183 2.04268 8.78304H2.04215Z" fill="#716C6C"/>
</svg>
