<svg width="22" height="29" viewBox="0 0 22 29" fill="none" xmlns="http://www.w3.org/2000/svg">
<path d="M12.3578 28.275C15.2969 24.6387 22 15.8254 22 10.875C22 4.87109 17.0729 0 11 0C4.92708 0 0 4.87109 0 10.875C0 15.8254 6.70313 24.6387 9.64219 28.275C10.3469 29.1416 11.6531 29.1416 12.3578 28.275V28.275ZM11 14.5C8.9776 14.5 7.33333 12.8744 7.33333 10.875C7.33333 8.87559 8.9776 7.25 11 7.25C13.0224 7.25 14.6667 8.87559 14.6667 10.875C14.6667 12.8744 13.0224 14.5 11 14.5Z" fill="#F2AC20"/>
</svg>
