<svg width="15" height="15" viewBox="0 0 15 15" fill="none" xmlns="http://www.w3.org/2000/svg">
<path d="M15 7.5L12 4.5V6.75H6V8.25H12V10.5M13.5 12C12.5555 13.2593 11.2388 14.1895 9.73626 14.6589C8.23374 15.1282 6.62163 15.1129 5.12829 14.6151C3.63495 14.1173 2.33609 13.1623 1.41568 11.8853C0.49528 10.6083 0 9.07412 0 7.5C0 5.92588 0.49528 4.39166 1.41568 3.11467C2.33609 1.83768 3.63495 0.882655 5.12829 0.384875C6.62163 -0.112905 8.23374 -0.128203 9.73626 0.341148C11.2388 0.8105 12.5555 1.74071 13.5 3H11.4525C10.5865 2.23625 9.51849 1.73861 8.37665 1.56679C7.23482 1.39498 6.06767 1.55629 5.01525 2.03137C3.96282 2.50645 3.06984 3.27512 2.44345 4.24514C1.81706 5.21516 1.48387 6.34531 1.48387 7.5C1.48387 8.65469 1.81706 9.78484 2.44345 10.7549C3.06984 11.7249 3.96282 12.4935 5.01525 12.9686C6.06767 13.4437 7.23482 13.605 8.37665 13.4332C9.51849 13.2614 10.5865 12.7638 11.4525 12H13.5Z" fill="#716C6C"/>
</svg>
