<svg width="13" height="32" viewBox="0 0 13 32" fill="none" xmlns="http://www.w3.org/2000/svg">
<path d="M9.68296 7.25427C10.1744 7.25427 10.6267 7.34933 11.0399 7.53955C12.2665 8.15803 12.9908 9.33347 13 10.6442V19.6728C12.7699 21.1081 11.1299 20.7178 11.0902 19.6728V11.1477C10.9441 10.6615 10.007 10.8631 9.98454 11.1477V30.7153C9.74627 32.7133 7.16884 32.1268 7.10312 30.6817V18.6995C6.93831 17.9266 5.85367 18.2778 5.8299 18.733C5.8759 22.7158 5.86342 26.6988 5.86342 30.6817C5.60637 32.6695 3.04149 32.1609 2.98197 30.7153L2.94848 11.1477C2.79826 10.672 1.92991 10.8544 1.90979 11.1477V19.6728C1.67968 21.1081 0.0397173 20.7178 0 19.6728V10.6442C0.0231862 9.38936 0.482277 8.13227 1.57474 7.53955C1.93215 7.34933 2.36771 7.25424 2.88145 7.25424L9.68296 7.25427V7.25427ZM9.64918 3.15405C9.64918 4.896 8.23951 6.30813 6.5006 6.30813C4.76171 6.30813 3.35204 4.896 3.35204 3.15405C3.35201 1.41213 4.76169 0 6.50054 0C8.23951 0 9.64918 1.41213 9.64918 3.15405V3.15405Z" fill="#4265D6"/>
</svg>
