<svg width="18" height="18" viewBox="0 0 18 18" fill="none" xmlns="http://www.w3.org/2000/svg">
<path d="M8.99971 0C6.62226 0.0303193 4.35073 0.988234 2.66948 2.66948C0.988234 4.35072 0.0303193 6.62226 0 8.99971C0.0111136 10.3847 0.341737 11.7484 0.966129 12.9847C1.59052 14.221 2.49183 15.2965 3.59988 16.1275V16.1995H3.68988C5.2137 17.3672 7.07994 18 8.99971 18C10.9195 18 12.7857 17.3672 14.3095 16.1995H14.3995V16.1275C15.5076 15.2965 16.4089 14.221 17.0333 12.9847C17.6577 11.7484 17.9883 10.3847 17.9994 8.99971C17.9691 6.62226 17.0112 4.35072 15.3299 2.66948C13.6487 0.988234 11.3772 0.0303193 8.99971 0V0ZM5.46282 15.2365C5.59421 14.6348 5.92734 14.0961 6.40697 13.7098C6.88659 13.3235 7.48388 13.1128 8.09974 13.1126H9.89968C10.5155 13.1128 11.1128 13.3235 11.5924 13.7098C12.0721 14.0961 12.4052 14.6348 12.5366 15.2365C11.4646 15.8672 10.2435 16.1998 8.99971 16.1998C7.75595 16.1998 6.53481 15.8672 5.46282 15.2365V15.2365ZM14.0485 14.0755C13.7062 13.2574 13.1298 12.5587 12.3916 12.0671C11.6535 11.5756 10.7865 11.3131 9.89968 11.3126H8.09974C7.21289 11.3131 6.34594 11.5756 5.60779 12.0671C4.86964 12.5587 4.2932 13.2574 3.95087 14.0755C3.27649 13.4123 2.73942 12.6226 2.37036 11.7516C2.00129 10.8807 1.80746 9.94559 1.79994 8.99971C1.82328 7.09746 2.58932 5.27971 3.93452 3.93452C5.27971 2.58932 7.09746 1.82328 8.99971 1.79994C10.902 1.82328 12.7197 2.58932 14.0649 3.93452C15.4101 5.27971 16.1761 7.09746 16.1995 8.99971C16.192 9.94559 15.9981 10.8807 15.6291 11.7516C15.26 12.6226 14.7229 13.4123 14.0485 14.0755V14.0755Z" fill="#716C6C"/>
<path d="M8.99976 3.59861C8.52399 3.58753 8.05091 3.67307 7.60914 3.85005C7.16737 4.02704 6.7661 4.2918 6.42958 4.62831C6.09307 4.96483 5.82831 5.36611 5.65132 5.80787C5.47434 6.24964 5.3888 6.72272 5.39988 7.19849C5.3888 7.67427 5.47434 8.14735 5.65132 8.58911C5.82831 9.03088 6.09307 9.43216 6.42958 9.76867C6.7661 10.1052 7.16737 10.3699 7.60914 10.5469C8.05091 10.7239 8.52399 10.8095 8.99976 10.7984C9.47554 10.8095 9.94862 10.7239 10.3904 10.5469C10.8322 10.3699 11.2334 10.1052 11.5699 9.76867C11.9065 9.43216 12.1712 9.03088 12.3482 8.58911C12.5252 8.14735 12.6107 7.67427 12.5996 7.19849C12.6107 6.72272 12.5252 6.24964 12.3482 5.80787C12.1712 5.36611 11.9065 4.96483 11.5699 4.62831C11.2334 4.2918 10.8322 4.02704 10.3904 3.85005C9.94862 3.67307 9.47554 3.58753 8.99976 3.59861V3.59861ZM8.99976 8.99844C8.76033 9.01001 8.52112 8.97138 8.29749 8.88502C8.07387 8.79866 7.87079 8.66648 7.70128 8.49697C7.53178 8.32747 7.3996 8.12438 7.31324 7.90076C7.22688 7.67714 7.18825 7.43793 7.19982 7.19849C7.18825 6.95906 7.22688 6.71985 7.31324 6.49623C7.3996 6.2726 7.53178 6.06952 7.70128 5.90001C7.87079 5.73051 8.07387 5.59833 8.29749 5.51197C8.52112 5.42561 8.76033 5.38698 8.99976 5.39855C9.2392 5.38698 9.47841 5.42561 9.70203 5.51197C9.92565 5.59833 10.1287 5.73051 10.2982 5.90001C10.4677 6.06952 10.5999 6.2726 10.6863 6.49623C10.7726 6.71985 10.8113 6.95906 10.7997 7.19849C10.8113 7.43793 10.7726 7.67714 10.6863 7.90076C10.5999 8.12438 10.4677 8.32747 10.2982 8.49697C10.1287 8.66648 9.92565 8.79866 9.70203 8.88502C9.47841 8.97138 9.2392 9.01001 8.99976 8.99844Z" fill="#716C6C"/>
</svg>
