<svg width="72" height="48" viewBox="0 0 72 48" fill="none" xmlns="http://www.w3.org/2000/svg">
<g clip-path="url(#clip0_716_14)">
<path fill-rule="evenodd" clip-rule="evenodd" d="M-0.0174866 -0.8125H72.0573V4.3154H-0.0174866V-0.8125ZM72.0573 8.87455V21.3375H63.7439C60.783 21.3375 60.783 25.8966 63.7439 25.8966H72.0573V38.3595H-0.0174866V25.8966H8.29598C11.2569 25.8966 11.2569 21.3375 8.29598 21.3375H-0.0174866V8.87455H72.0573ZM72.0573 42.9187V48.0453H-0.0174866V42.9187H72.0573ZM42.4884 25.8966C39.5281 25.8966 39.5281 21.3375 42.4884 21.3375H50.8031C53.7634 21.3375 53.7634 25.8966 50.8031 25.8966H42.4884ZM21.2347 25.8966C18.2744 25.8966 18.2744 21.3375 21.2347 21.3375H29.5494C32.5096 21.3375 32.5096 25.8966 29.5494 25.8966H21.2347Z" fill="black"/>
</g>
<defs>
<clipPath id="clip0_716_14">
<rect width="72" height="48" fill="white"/>
</clipPath>
</defs>
</svg>
