<svg width="15" height="15" viewBox="0 0 15 15" fill="none" xmlns="http://www.w3.org/2000/svg">
<path d="M2.23777 1.84728C1.94382 1.84699 1.65269 1.90467 1.38106 2.01702C1.10943 2.12937 0.862622 2.29419 0.654767 2.50205C0.446912 2.70991 0.28209 2.95671 0.169737 3.22834C0.0573836 3.49998 -0.000295433 3.7911 1.13788e-06 4.08505C1.13788e-06 5.763 2.23777 8.24048 2.23777 8.24048C2.23777 8.24048 4.47554 5.763 4.47554 4.08505C4.47583 3.7911 4.41816 3.49998 4.3058 3.22834C4.19345 2.95671 4.02863 2.70991 3.82077 2.50205C3.61292 2.29419 3.36611 2.12937 3.09448 2.01702C2.82284 1.90467 2.53172 1.84699 2.23777 1.84728ZM2.23777 4.88383C2.07979 4.88383 1.92535 4.83698 1.79399 4.74921C1.66264 4.66144 1.56026 4.53669 1.4998 4.39073C1.43934 4.24477 1.42352 4.08417 1.45434 3.92922C1.48517 3.77427 1.56124 3.63194 1.67295 3.52023C1.78466 3.40852 1.92699 3.33245 2.08194 3.30163C2.23688 3.27081 2.39749 3.28662 2.54345 3.34708C2.6894 3.40754 2.81416 3.50992 2.90193 3.64128C2.9897 3.77264 3.03654 3.92707 3.03654 4.08505C3.03634 4.29684 2.95212 4.4999 2.80237 4.64965C2.65261 4.79941 2.44956 4.88363 2.23777 4.88383ZM13.5153 6.95252V3.72136C13.51 3.38205 13.4584 3.04505 13.362 2.7197C13.1154 1.85955 12.5697 1.11575 11.8233 0.622343C11.0768 0.128938 10.1787 -0.0816248 9.2907 0.0286017C8.40273 0.138828 7.58332 0.562595 6.98015 1.22353C6.37699 1.88447 6.02972 2.73911 6.00095 3.63344V3.8198L5.99343 4.47354V11.9518H5.99043V11.9826C5.99043 12.3812 5.83209 12.7635 5.55025 13.0453C5.26841 13.3271 4.88615 13.4855 4.48756 13.4855C4.08898 13.4855 3.70672 13.3271 3.42487 13.0453C3.14303 12.7635 2.98469 12.3812 2.98469 11.9826C2.98469 11.9736 2.98695 11.9646 2.9877 11.9548H2.98469V10.4948H1.48183V11.9976H1.48333C1.48383 12.7944 1.80082 13.5584 2.36458 14.1214C2.92833 14.6845 3.69267 15.0005 4.48944 15C5.28621 14.9995 6.05015 14.6825 6.6132 14.1188C7.17625 13.555 7.49229 12.7907 7.49179 11.9939H7.4933V11.256H7.49705V5.22498L7.50457 3.8198V3.63419C7.52599 3.04263 7.77915 2.48322 8.20941 2.07668C8.63968 1.67014 9.21254 1.44908 9.80436 1.46122C10.3962 1.47335 10.9595 1.7177 11.3727 2.14153C11.786 2.56536 12.016 3.13468 12.0132 3.72662V6.939C11.7254 7.10182 11.4994 7.35503 11.3702 7.65937C11.241 7.9637 11.2158 8.30217 11.2986 8.62227C11.3813 8.94238 11.5674 9.22624 11.8279 9.42985C12.0884 9.63345 12.4088 9.74542 12.7394 9.7484C13.07 9.75137 13.3923 9.64519 13.6565 9.4463C13.9206 9.24742 14.1117 8.96695 14.2002 8.64839C14.2887 8.32982 14.2696 7.99096 14.1459 7.68435C14.0222 7.37773 13.8008 7.12049 13.516 6.95252H13.5153Z" fill="#716C6C"/>
</svg>
