<svg width="23" height="23" viewBox="0 0 23 23" fill="none" xmlns="http://www.w3.org/2000/svg">
<g clip-path="url(#clip0_728_2)">
<path d="M11.4535 5.42627C9.65172 5.4265 7.86646 6.20091 8.05414 7.74835L8.51414 11.1119C8.59487 11.7037 8.99484 12.6501 9.59215 12.6501H9.6347L10.1239 18.2922C10.1451 18.5462 10.3291 18.7522 10.5839 18.7522H12.4239C12.6787 18.7522 12.8627 18.5462 12.8839 18.2922L13.3731 12.6501H13.4159C14.0132 12.6501 14.4129 11.7037 14.4939 11.1119L14.9539 7.74835C15.0744 6.19953 13.2556 5.42581 11.4535 5.42627V5.42627Z" fill="#716C6C"/>
<path d="M11.5055 11.709L11.4945 11.738C11.4982 11.7292 11.5007 11.7203 11.5044 11.7115L11.5055 11.709V11.709Z" fill="#716C6C"/>
<path d="M11.5 4.83C12.8337 4.83 13.915 3.74877 13.915 2.415C13.915 1.08123 12.8337 0 11.5 0C10.1662 0 9.08496 1.08123 9.08496 2.415C9.08496 3.74877 10.1662 4.83 11.5 4.83Z" fill="#716C6C"/>
<path d="M14.0121 15.8911C13.9925 16.1147 13.9718 16.3378 13.9523 16.5613C16.0112 16.8521 17.5375 17.5117 17.71 18.3277C17.9669 19.5412 13.9973 20.0872 11.4402 20.0617C8.88306 20.0359 4.98663 19.5412 5.32726 18.3275C5.55082 17.531 7.05502 16.8845 9.06016 16.5834C9.04015 16.3592 9.01738 16.1349 8.99806 15.9109C6.42068 16.1952 4.2734 16.8951 3.4155 17.8075H0.51267L0 18.8708H3.02818C3.26347 20.122 5.88639 21.202 9.637 21.4748L9.50866 23H13.2209L13.1836 21.4751C16.9533 21.202 19.6505 20.122 19.9718 18.8708H23L22.5607 17.8075H19.6579C18.843 16.8721 16.6568 16.1607 14.0121 15.8911V15.8911Z" fill="#716C6C"/>
</g>
<defs>
<clipPath id="clip0_728_2">
<rect width="23" height="23" fill="white"/>
</clipPath>
</defs>
</svg>
