<svg width="30" height="30" viewBox="0 0 30 30" fill="none" xmlns="http://www.w3.org/2000/svg">
<g filter="url(#filter0_i_818_455)">
<path fill-rule="evenodd" clip-rule="evenodd" d="M28.396 19.528C28.7974 18.6989 29.004 17.7891 29 16.868C29 15.997 28.82 15.179 28.5 14.434H28.51C28.3648 14.0996 28.189 13.7792 27.985 13.477L27.981 13.472C27.3404 12.4899 26.9996 11.3426 27 10.17V10.15C26.9995 8.51908 26.3514 6.95511 25.1981 5.80188C24.0449 4.64865 22.4809 4.00053 20.85 4C20.51 4 20.189 3.85 20 3.566C19.4297 2.77254 18.6789 2.12605 17.8095 1.6799C16.9402 1.23374 15.9772 1.0007 15 1C14.0228 1.0007 13.0599 1.23374 12.1905 1.6799C11.3211 2.12605 10.5703 2.77254 10 3.566C9.811 3.83 9.49 4 9.15 4C9.098 4 9.045 4 8.992 4.002C7.3888 4.04371 5.86526 4.70982 4.746 5.85841C3.62673 7.007 3.00024 8.54725 3 10.151V10.17C3 11.34 2.66 12.49 2.019 13.472L2.014 13.479C1.35164 14.4847 0.999062 15.6628 1 16.867C1 17.829 1.226 18.716 1.604 19.527C1.66926 19.6592 1.7032 19.8046 1.7032 19.952C1.7032 20.0994 1.66926 20.2448 1.604 20.377C1.20939 21.1953 1.00301 22.0915 1 23C1 26.32 3.68 29 7 29H23C26.32 29 29 26.32 29 23C28.9972 22.0915 28.7908 21.1952 28.396 20.377C28.3309 20.245 28.297 20.0997 28.297 19.9525C28.297 19.8053 28.3309 19.66 28.396 19.528ZM5.538 14.546H5.515L7.75 18.938C7.98 24.163 10.02 18.938 15 18.938C19.98 18.938 22.152 24.753 22.382 19.528L24.5 13.568C24.4 11.247 22.718 11.084 22.382 11.084H16.38C15.21 11.0861 14.0571 10.8031 13.0211 10.2595C11.985 9.71586 11.0971 8.92797 10.434 7.964C10.3835 7.89117 10.3142 7.83334 10.2336 7.79662C10.1529 7.7599 10.0638 7.74565 9.97571 7.75538C9.88761 7.76511 9.80378 7.79846 9.73307 7.85191C9.66236 7.90535 9.6074 7.9769 9.574 8.059L9.42 8.421C9.00434 9.44452 8.21036 10.2686 7.203 10.722C7.173 10.732 7.14 10.746 7.107 10.76C7.07579 10.7746 7.04373 10.7873 7.011 10.798C6.571 11.027 5.539 11.711 5.501 13.481L5.521 14.051L5.539 14.546H5.538Z" fill="url(#paint0_linear_818_455)"/>
<path fill-rule="evenodd" clip-rule="evenodd" d="M28.396 19.528C28.7974 18.6989 29.004 17.7891 29 16.868C29 15.997 28.82 15.179 28.5 14.434H28.51C28.3648 14.0996 28.189 13.7792 27.985 13.477L27.981 13.472C27.3404 12.4899 26.9996 11.3426 27 10.17V10.15C26.9995 8.51908 26.3514 6.95511 25.1981 5.80188C24.0449 4.64865 22.4809 4.00053 20.85 4C20.51 4 20.189 3.85 20 3.566C19.4297 2.77254 18.6789 2.12605 17.8095 1.6799C16.9402 1.23374 15.9772 1.0007 15 1C14.0228 1.0007 13.0599 1.23374 12.1905 1.6799C11.3211 2.12605 10.5703 2.77254 10 3.566C9.811 3.83 9.49 4 9.15 4C9.098 4 9.045 4 8.992 4.002C7.3888 4.04371 5.86526 4.70982 4.746 5.85841C3.62673 7.007 3.00024 8.54725 3 10.151V10.17C3 11.34 2.66 12.49 2.019 13.472L2.014 13.479C1.35164 14.4847 0.999062 15.6628 1 16.867C1 17.829 1.226 18.716 1.604 19.527C1.66926 19.6592 1.7032 19.8046 1.7032 19.952C1.7032 20.0994 1.66926 20.2448 1.604 20.377C1.20939 21.1953 1.00301 22.0915 1 23C1 26.32 3.68 29 7 29H23C26.32 29 29 26.32 29 23C28.9972 22.0915 28.7908 21.1952 28.396 20.377C28.3309 20.245 28.297 20.0997 28.297 19.9525C28.297 19.8053 28.3309 19.66 28.396 19.528ZM5.538 14.546H5.515L7.75 18.938C7.98 24.163 10.02 18.938 15 18.938C19.98 18.938 22.152 24.753 22.382 19.528L24.5 13.568C24.4 11.247 22.718 11.084 22.382 11.084H16.38C15.21 11.0861 14.0571 10.8031 13.0211 10.2595C11.985 9.71586 11.0971 8.92797 10.434 7.964C10.3835 7.89117 10.3142 7.83334 10.2336 7.79662C10.1529 7.7599 10.0638 7.74565 9.97571 7.75538C9.88761 7.76511 9.80378 7.79846 9.73307 7.85191C9.66236 7.90535 9.6074 7.9769 9.574 8.059L9.42 8.421C9.00434 9.44452 8.21036 10.2686 7.203 10.722C7.173 10.732 7.14 10.746 7.107 10.76C7.07579 10.7746 7.04373 10.7873 7.011 10.798C6.571 11.027 5.539 11.711 5.501 13.481L5.521 14.051L5.539 14.546H5.538Z" fill="url(#paint1_radial_818_455)"/>
<path fill-rule="evenodd" clip-rule="evenodd" d="M28.396 19.528C28.7974 18.6989 29.004 17.7891 29 16.868C29 15.997 28.82 15.179 28.5 14.434H28.51C28.3648 14.0996 28.189 13.7792 27.985 13.477L27.981 13.472C27.3404 12.4899 26.9996 11.3426 27 10.17V10.15C26.9995 8.51908 26.3514 6.95511 25.1981 5.80188C24.0449 4.64865 22.4809 4.00053 20.85 4C20.51 4 20.189 3.85 20 3.566C19.4297 2.77254 18.6789 2.12605 17.8095 1.6799C16.9402 1.23374 15.9772 1.0007 15 1C14.0228 1.0007 13.0599 1.23374 12.1905 1.6799C11.3211 2.12605 10.5703 2.77254 10 3.566C9.811 3.83 9.49 4 9.15 4C9.098 4 9.045 4 8.992 4.002C7.3888 4.04371 5.86526 4.70982 4.746 5.85841C3.62673 7.007 3.00024 8.54725 3 10.151V10.17C3 11.34 2.66 12.49 2.019 13.472L2.014 13.479C1.35164 14.4847 0.999062 15.6628 1 16.867C1 17.829 1.226 18.716 1.604 19.527C1.66926 19.6592 1.7032 19.8046 1.7032 19.952C1.7032 20.0994 1.66926 20.2448 1.604 20.377C1.20939 21.1953 1.00301 22.0915 1 23C1 26.32 3.68 29 7 29H23C26.32 29 29 26.32 29 23C28.9972 22.0915 28.7908 21.1952 28.396 20.377C28.3309 20.245 28.297 20.0997 28.297 19.9525C28.297 19.8053 28.3309 19.66 28.396 19.528ZM5.538 14.546H5.515L7.75 18.938C7.98 24.163 10.02 18.938 15 18.938C19.98 18.938 22.152 24.753 22.382 19.528L24.5 13.568C24.4 11.247 22.718 11.084 22.382 11.084H16.38C15.21 11.0861 14.0571 10.8031 13.0211 10.2595C11.985 9.71586 11.0971 8.92797 10.434 7.964C10.3835 7.89117 10.3142 7.83334 10.2336 7.79662C10.1529 7.7599 10.0638 7.74565 9.97571 7.75538C9.88761 7.76511 9.80378 7.79846 9.73307 7.85191C9.66236 7.90535 9.6074 7.9769 9.574 8.059L9.42 8.421C9.00434 9.44452 8.21036 10.2686 7.203 10.722C7.173 10.732 7.14 10.746 7.107 10.76C7.07579 10.7746 7.04373 10.7873 7.011 10.798C6.571 11.027 5.539 11.711 5.501 13.481L5.521 14.051L5.539 14.546H5.538Z" fill="url(#paint2_radial_818_455)"/>
<path fill-rule="evenodd" clip-rule="evenodd" d="M28.396 19.528C28.7974 18.6989 29.004 17.7891 29 16.868C29 15.997 28.82 15.179 28.5 14.434H28.51C28.3648 14.0996 28.189 13.7792 27.985 13.477L27.981 13.472C27.3404 12.4899 26.9996 11.3426 27 10.17V10.15C26.9995 8.51908 26.3514 6.95511 25.1981 5.80188C24.0449 4.64865 22.4809 4.00053 20.85 4C20.51 4 20.189 3.85 20 3.566C19.4297 2.77254 18.6789 2.12605 17.8095 1.6799C16.9402 1.23374 15.9772 1.0007 15 1C14.0228 1.0007 13.0599 1.23374 12.1905 1.6799C11.3211 2.12605 10.5703 2.77254 10 3.566C9.811 3.83 9.49 4 9.15 4C9.098 4 9.045 4 8.992 4.002C7.3888 4.04371 5.86526 4.70982 4.746 5.85841C3.62673 7.007 3.00024 8.54725 3 10.151V10.17C3 11.34 2.66 12.49 2.019 13.472L2.014 13.479C1.35164 14.4847 0.999062 15.6628 1 16.867C1 17.829 1.226 18.716 1.604 19.527C1.66926 19.6592 1.7032 19.8046 1.7032 19.952C1.7032 20.0994 1.66926 20.2448 1.604 20.377C1.20939 21.1953 1.00301 22.0915 1 23C1 26.32 3.68 29 7 29H23C26.32 29 29 26.32 29 23C28.9972 22.0915 28.7908 21.1952 28.396 20.377C28.3309 20.245 28.297 20.0997 28.297 19.9525C28.297 19.8053 28.3309 19.66 28.396 19.528ZM5.538 14.546H5.515L7.75 18.938C7.98 24.163 10.02 18.938 15 18.938C19.98 18.938 22.152 24.753 22.382 19.528L24.5 13.568C24.4 11.247 22.718 11.084 22.382 11.084H16.38C15.21 11.0861 14.0571 10.8031 13.0211 10.2595C11.985 9.71586 11.0971 8.92797 10.434 7.964C10.3835 7.89117 10.3142 7.83334 10.2336 7.79662C10.1529 7.7599 10.0638 7.74565 9.97571 7.75538C9.88761 7.76511 9.80378 7.79846 9.73307 7.85191C9.66236 7.90535 9.6074 7.9769 9.574 8.059L9.42 8.421C9.00434 9.44452 8.21036 10.2686 7.203 10.722C7.173 10.732 7.14 10.746 7.107 10.76C7.07579 10.7746 7.04373 10.7873 7.011 10.798C6.571 11.027 5.539 11.711 5.501 13.481L5.521 14.051L5.539 14.546H5.538Z" fill="url(#paint3_radial_818_455)"/>
<path fill-rule="evenodd" clip-rule="evenodd" d="M28.396 19.528C28.7974 18.6989 29.004 17.7891 29 16.868C29 15.997 28.82 15.179 28.5 14.434H28.51C28.3648 14.0996 28.189 13.7792 27.985 13.477L27.981 13.472C27.3404 12.4899 26.9996 11.3426 27 10.17V10.15C26.9995 8.51908 26.3514 6.95511 25.1981 5.80188C24.0449 4.64865 22.4809 4.00053 20.85 4C20.51 4 20.189 3.85 20 3.566C19.4297 2.77254 18.6789 2.12605 17.8095 1.6799C16.9402 1.23374 15.9772 1.0007 15 1C14.0228 1.0007 13.0599 1.23374 12.1905 1.6799C11.3211 2.12605 10.5703 2.77254 10 3.566C9.811 3.83 9.49 4 9.15 4C9.098 4 9.045 4 8.992 4.002C7.3888 4.04371 5.86526 4.70982 4.746 5.85841C3.62673 7.007 3.00024 8.54725 3 10.151V10.17C3 11.34 2.66 12.49 2.019 13.472L2.014 13.479C1.35164 14.4847 0.999062 15.6628 1 16.867C1 17.829 1.226 18.716 1.604 19.527C1.66926 19.6592 1.7032 19.8046 1.7032 19.952C1.7032 20.0994 1.66926 20.2448 1.604 20.377C1.20939 21.1953 1.00301 22.0915 1 23C1 26.32 3.68 29 7 29H23C26.32 29 29 26.32 29 23C28.9972 22.0915 28.7908 21.1952 28.396 20.377C28.3309 20.245 28.297 20.0997 28.297 19.9525C28.297 19.8053 28.3309 19.66 28.396 19.528ZM5.538 14.546H5.515L7.75 18.938C7.98 24.163 10.02 18.938 15 18.938C19.98 18.938 22.152 24.753 22.382 19.528L24.5 13.568C24.4 11.247 22.718 11.084 22.382 11.084H16.38C15.21 11.0861 14.0571 10.8031 13.0211 10.2595C11.985 9.71586 11.0971 8.92797 10.434 7.964C10.3835 7.89117 10.3142 7.83334 10.2336 7.79662C10.1529 7.7599 10.0638 7.74565 9.97571 7.75538C9.88761 7.76511 9.80378 7.79846 9.73307 7.85191C9.66236 7.90535 9.6074 7.9769 9.574 8.059L9.42 8.421C9.00434 9.44452 8.21036 10.2686 7.203 10.722C7.173 10.732 7.14 10.746 7.107 10.76C7.07579 10.7746 7.04373 10.7873 7.011 10.798C6.571 11.027 5.539 11.711 5.501 13.481L5.521 14.051L5.539 14.546H5.538Z" fill="url(#paint4_radial_818_455)"/>
<path fill-rule="evenodd" clip-rule="evenodd" d="M28.396 19.528C28.7974 18.6989 29.004 17.7891 29 16.868C29 15.997 28.82 15.179 28.5 14.434H28.51C28.3648 14.0996 28.189 13.7792 27.985 13.477L27.981 13.472C27.3404 12.4899 26.9996 11.3426 27 10.17V10.15C26.9995 8.51908 26.3514 6.95511 25.1981 5.80188C24.0449 4.64865 22.4809 4.00053 20.85 4C20.51 4 20.189 3.85 20 3.566C19.4297 2.77254 18.6789 2.12605 17.8095 1.6799C16.9402 1.23374 15.9772 1.0007 15 1C14.0228 1.0007 13.0599 1.23374 12.1905 1.6799C11.3211 2.12605 10.5703 2.77254 10 3.566C9.811 3.83 9.49 4 9.15 4C9.098 4 9.045 4 8.992 4.002C7.3888 4.04371 5.86526 4.70982 4.746 5.85841C3.62673 7.007 3.00024 8.54725 3 10.151V10.17C3 11.34 2.66 12.49 2.019 13.472L2.014 13.479C1.35164 14.4847 0.999062 15.6628 1 16.867C1 17.829 1.226 18.716 1.604 19.527C1.66926 19.6592 1.7032 19.8046 1.7032 19.952C1.7032 20.0994 1.66926 20.2448 1.604 20.377C1.20939 21.1953 1.00301 22.0915 1 23C1 26.32 3.68 29 7 29H23C26.32 29 29 26.32 29 23C28.9972 22.0915 28.7908 21.1952 28.396 20.377C28.3309 20.245 28.297 20.0997 28.297 19.9525C28.297 19.8053 28.3309 19.66 28.396 19.528ZM5.538 14.546H5.515L7.75 18.938C7.98 24.163 10.02 18.938 15 18.938C19.98 18.938 22.152 24.753 22.382 19.528L24.5 13.568C24.4 11.247 22.718 11.084 22.382 11.084H16.38C15.21 11.0861 14.0571 10.8031 13.0211 10.2595C11.985 9.71586 11.0971 8.92797 10.434 7.964C10.3835 7.89117 10.3142 7.83334 10.2336 7.79662C10.1529 7.7599 10.0638 7.74565 9.97571 7.75538C9.88761 7.76511 9.80378 7.79846 9.73307 7.85191C9.66236 7.90535 9.6074 7.9769 9.574 8.059L9.42 8.421C9.00434 9.44452 8.21036 10.2686 7.203 10.722C7.173 10.732 7.14 10.746 7.107 10.76C7.07579 10.7746 7.04373 10.7873 7.011 10.798C6.571 11.027 5.539 11.711 5.501 13.481L5.521 14.051L5.539 14.546H5.538Z" fill="url(#paint5_radial_818_455)"/>
<path fill-rule="evenodd" clip-rule="evenodd" d="M28.396 19.528C28.7974 18.6989 29.004 17.7891 29 16.868C29 15.997 28.82 15.179 28.5 14.434H28.51C28.3648 14.0996 28.189 13.7792 27.985 13.477L27.981 13.472C27.3404 12.4899 26.9996 11.3426 27 10.17V10.15C26.9995 8.51908 26.3514 6.95511 25.1981 5.80188C24.0449 4.64865 22.4809 4.00053 20.85 4C20.51 4 20.189 3.85 20 3.566C19.4297 2.77254 18.6789 2.12605 17.8095 1.6799C16.9402 1.23374 15.9772 1.0007 15 1C14.0228 1.0007 13.0599 1.23374 12.1905 1.6799C11.3211 2.12605 10.5703 2.77254 10 3.566C9.811 3.83 9.49 4 9.15 4C9.098 4 9.045 4 8.992 4.002C7.3888 4.04371 5.86526 4.70982 4.746 5.85841C3.62673 7.007 3.00024 8.54725 3 10.151V10.17C3 11.34 2.66 12.49 2.019 13.472L2.014 13.479C1.35164 14.4847 0.999062 15.6628 1 16.867C1 17.829 1.226 18.716 1.604 19.527C1.66926 19.6592 1.7032 19.8046 1.7032 19.952C1.7032 20.0994 1.66926 20.2448 1.604 20.377C1.20939 21.1953 1.00301 22.0915 1 23C1 26.32 3.68 29 7 29H23C26.32 29 29 26.32 29 23C28.9972 22.0915 28.7908 21.1952 28.396 20.377C28.3309 20.245 28.297 20.0997 28.297 19.9525C28.297 19.8053 28.3309 19.66 28.396 19.528ZM5.538 14.546H5.515L7.75 18.938C7.98 24.163 10.02 18.938 15 18.938C19.98 18.938 22.152 24.753 22.382 19.528L24.5 13.568C24.4 11.247 22.718 11.084 22.382 11.084H16.38C15.21 11.0861 14.0571 10.8031 13.0211 10.2595C11.985 9.71586 11.0971 8.92797 10.434 7.964C10.3835 7.89117 10.3142 7.83334 10.2336 7.79662C10.1529 7.7599 10.0638 7.74565 9.97571 7.75538C9.88761 7.76511 9.80378 7.79846 9.73307 7.85191C9.66236 7.90535 9.6074 7.9769 9.574 8.059L9.42 8.421C9.00434 9.44452 8.21036 10.2686 7.203 10.722C7.173 10.732 7.14 10.746 7.107 10.76C7.07579 10.7746 7.04373 10.7873 7.011 10.798C6.571 11.027 5.539 11.711 5.501 13.481L5.521 14.051L5.539 14.546H5.538Z" fill="url(#paint6_radial_818_455)"/>
<path fill-rule="evenodd" clip-rule="evenodd" d="M28.396 19.528C28.7974 18.6989 29.004 17.7891 29 16.868C29 15.997 28.82 15.179 28.5 14.434H28.51C28.3648 14.0996 28.189 13.7792 27.985 13.477L27.981 13.472C27.3404 12.4899 26.9996 11.3426 27 10.17V10.15C26.9995 8.51908 26.3514 6.95511 25.1981 5.80188C24.0449 4.64865 22.4809 4.00053 20.85 4C20.51 4 20.189 3.85 20 3.566C19.4297 2.77254 18.6789 2.12605 17.8095 1.6799C16.9402 1.23374 15.9772 1.0007 15 1C14.0228 1.0007 13.0599 1.23374 12.1905 1.6799C11.3211 2.12605 10.5703 2.77254 10 3.566C9.811 3.83 9.49 4 9.15 4C9.098 4 9.045 4 8.992 4.002C7.3888 4.04371 5.86526 4.70982 4.746 5.85841C3.62673 7.007 3.00024 8.54725 3 10.151V10.17C3 11.34 2.66 12.49 2.019 13.472L2.014 13.479C1.35164 14.4847 0.999062 15.6628 1 16.867C1 17.829 1.226 18.716 1.604 19.527C1.66926 19.6592 1.7032 19.8046 1.7032 19.952C1.7032 20.0994 1.66926 20.2448 1.604 20.377C1.20939 21.1953 1.00301 22.0915 1 23C1 26.32 3.68 29 7 29H23C26.32 29 29 26.32 29 23C28.9972 22.0915 28.7908 21.1952 28.396 20.377C28.3309 20.245 28.297 20.0997 28.297 19.9525C28.297 19.8053 28.3309 19.66 28.396 19.528ZM5.538 14.546H5.515L7.75 18.938C7.98 24.163 10.02 18.938 15 18.938C19.98 18.938 22.152 24.753 22.382 19.528L24.5 13.568C24.4 11.247 22.718 11.084 22.382 11.084H16.38C15.21 11.0861 14.0571 10.8031 13.0211 10.2595C11.985 9.71586 11.0971 8.92797 10.434 7.964C10.3835 7.89117 10.3142 7.83334 10.2336 7.79662C10.1529 7.7599 10.0638 7.74565 9.97571 7.75538C9.88761 7.76511 9.80378 7.79846 9.73307 7.85191C9.66236 7.90535 9.6074 7.9769 9.574 8.059L9.42 8.421C9.00434 9.44452 8.21036 10.2686 7.203 10.722C7.173 10.732 7.14 10.746 7.107 10.76C7.07579 10.7746 7.04373 10.7873 7.011 10.798C6.571 11.027 5.539 11.711 5.501 13.481L5.521 14.051L5.539 14.546H5.538Z" fill="url(#paint7_radial_818_455)"/>
<path fill-rule="evenodd" clip-rule="evenodd" d="M28.396 19.528C28.7974 18.6989 29.004 17.7891 29 16.868C29 15.997 28.82 15.179 28.5 14.434H28.51C28.3648 14.0996 28.189 13.7792 27.985 13.477L27.981 13.472C27.3404 12.4899 26.9996 11.3426 27 10.17V10.15C26.9995 8.51908 26.3514 6.95511 25.1981 5.80188C24.0449 4.64865 22.4809 4.00053 20.85 4C20.51 4 20.189 3.85 20 3.566C19.4297 2.77254 18.6789 2.12605 17.8095 1.6799C16.9402 1.23374 15.9772 1.0007 15 1C14.0228 1.0007 13.0599 1.23374 12.1905 1.6799C11.3211 2.12605 10.5703 2.77254 10 3.566C9.811 3.83 9.49 4 9.15 4C9.098 4 9.045 4 8.992 4.002C7.3888 4.04371 5.86526 4.70982 4.746 5.85841C3.62673 7.007 3.00024 8.54725 3 10.151V10.17C3 11.34 2.66 12.49 2.019 13.472L2.014 13.479C1.35164 14.4847 0.999062 15.6628 1 16.867C1 17.829 1.226 18.716 1.604 19.527C1.66926 19.6592 1.7032 19.8046 1.7032 19.952C1.7032 20.0994 1.66926 20.2448 1.604 20.377C1.20939 21.1953 1.00301 22.0915 1 23C1 26.32 3.68 29 7 29H23C26.32 29 29 26.32 29 23C28.9972 22.0915 28.7908 21.1952 28.396 20.377C28.3309 20.245 28.297 20.0997 28.297 19.9525C28.297 19.8053 28.3309 19.66 28.396 19.528ZM5.538 14.546H5.515L7.75 18.938C7.98 24.163 10.02 18.938 15 18.938C19.98 18.938 22.152 24.753 22.382 19.528L24.5 13.568C24.4 11.247 22.718 11.084 22.382 11.084H16.38C15.21 11.0861 14.0571 10.8031 13.0211 10.2595C11.985 9.71586 11.0971 8.92797 10.434 7.964C10.3835 7.89117 10.3142 7.83334 10.2336 7.79662C10.1529 7.7599 10.0638 7.74565 9.97571 7.75538C9.88761 7.76511 9.80378 7.79846 9.73307 7.85191C9.66236 7.90535 9.6074 7.9769 9.574 8.059L9.42 8.421C9.00434 9.44452 8.21036 10.2686 7.203 10.722C7.173 10.732 7.14 10.746 7.107 10.76C7.07579 10.7746 7.04373 10.7873 7.011 10.798C6.571 11.027 5.539 11.711 5.501 13.481L5.521 14.051L5.539 14.546H5.538Z" fill="url(#paint8_radial_818_455)"/>
<path fill-rule="evenodd" clip-rule="evenodd" d="M28.396 19.528C28.7974 18.6989 29.004 17.7891 29 16.868C29 15.997 28.82 15.179 28.5 14.434H28.51C28.3648 14.0996 28.189 13.7792 27.985 13.477L27.981 13.472C27.3404 12.4899 26.9996 11.3426 27 10.17V10.15C26.9995 8.51908 26.3514 6.95511 25.1981 5.80188C24.0449 4.64865 22.4809 4.00053 20.85 4C20.51 4 20.189 3.85 20 3.566C19.4297 2.77254 18.6789 2.12605 17.8095 1.6799C16.9402 1.23374 15.9772 1.0007 15 1C14.0228 1.0007 13.0599 1.23374 12.1905 1.6799C11.3211 2.12605 10.5703 2.77254 10 3.566C9.811 3.83 9.49 4 9.15 4C9.098 4 9.045 4 8.992 4.002C7.3888 4.04371 5.86526 4.70982 4.746 5.85841C3.62673 7.007 3.00024 8.54725 3 10.151V10.17C3 11.34 2.66 12.49 2.019 13.472L2.014 13.479C1.35164 14.4847 0.999062 15.6628 1 16.867C1 17.829 1.226 18.716 1.604 19.527C1.66926 19.6592 1.7032 19.8046 1.7032 19.952C1.7032 20.0994 1.66926 20.2448 1.604 20.377C1.20939 21.1953 1.00301 22.0915 1 23C1 26.32 3.68 29 7 29H23C26.32 29 29 26.32 29 23C28.9972 22.0915 28.7908 21.1952 28.396 20.377C28.3309 20.245 28.297 20.0997 28.297 19.9525C28.297 19.8053 28.3309 19.66 28.396 19.528ZM5.538 14.546H5.515L7.75 18.938C7.98 24.163 10.02 18.938 15 18.938C19.98 18.938 22.152 24.753 22.382 19.528L24.5 13.568C24.4 11.247 22.718 11.084 22.382 11.084H16.38C15.21 11.0861 14.0571 10.8031 13.0211 10.2595C11.985 9.71586 11.0971 8.92797 10.434 7.964C10.3835 7.89117 10.3142 7.83334 10.2336 7.79662C10.1529 7.7599 10.0638 7.74565 9.97571 7.75538C9.88761 7.76511 9.80378 7.79846 9.73307 7.85191C9.66236 7.90535 9.6074 7.9769 9.574 8.059L9.42 8.421C9.00434 9.44452 8.21036 10.2686 7.203 10.722C7.173 10.732 7.14 10.746 7.107 10.76C7.07579 10.7746 7.04373 10.7873 7.011 10.798C6.571 11.027 5.539 11.711 5.501 13.481L5.521 14.051L5.539 14.546H5.538Z" fill="url(#paint9_radial_818_455)"/>
</g>
<path fill-rule="evenodd" clip-rule="evenodd" d="M28.396 19.528C28.7974 18.6989 29.004 17.7891 29 16.868C29 15.997 28.82 15.179 28.5 14.434H28.51C28.3648 14.0996 28.189 13.7792 27.985 13.477L27.981 13.472C27.3404 12.4899 26.9996 11.3426 27 10.17V10.15C26.9995 8.51908 26.3514 6.95511 25.1981 5.80188C24.0449 4.64865 22.4809 4.00053 20.85 4C20.51 4 20.189 3.85 20 3.566C19.4297 2.77254 18.6789 2.12605 17.8095 1.6799C16.9402 1.23374 15.9772 1.0007 15 1C14.0228 1.0007 13.0599 1.23374 12.1905 1.6799C11.3211 2.12605 10.5703 2.77254 10 3.566C9.811 3.83 9.49 4 9.15 4C9.098 4 9.045 4 8.992 4.002C7.3888 4.04371 5.86526 4.70982 4.746 5.85841C3.62673 7.007 3.00024 8.54725 3 10.151V10.17C3 11.34 2.66 12.49 2.019 13.472L2.014 13.479C1.35164 14.4847 0.999062 15.6628 1 16.867C1 17.829 1.226 18.716 1.604 19.527C1.66926 19.6592 1.7032 19.8046 1.7032 19.952C1.7032 20.0994 1.66926 20.2448 1.604 20.377C1.20939 21.1953 1.00301 22.0915 1 23C1 26.32 3.68 29 7 29H23C26.32 29 29 26.32 29 23C28.9972 22.0915 28.7908 21.1952 28.396 20.377C28.3309 20.245 28.297 20.0997 28.297 19.9525C28.297 19.8053 28.3309 19.66 28.396 19.528ZM5.538 14.546H5.515L7.75 18.938C7.98 24.163 10.02 18.938 15 18.938C19.98 18.938 22.152 24.753 22.382 19.528L24.5 13.568C24.4 11.247 22.718 11.084 22.382 11.084H16.38C15.21 11.0861 14.0571 10.8031 13.0211 10.2595C11.985 9.71586 11.0971 8.92797 10.434 7.964C10.3835 7.89117 10.3142 7.83334 10.2336 7.79662C10.1529 7.7599 10.0638 7.74565 9.97571 7.75538C9.88761 7.76511 9.80378 7.79846 9.73307 7.85191C9.66236 7.90535 9.6074 7.9769 9.574 8.059L9.42 8.421C9.00434 9.44452 8.21036 10.2686 7.203 10.722C7.173 10.732 7.14 10.746 7.107 10.76C7.07579 10.7746 7.04373 10.7873 7.011 10.798C6.571 11.027 5.539 11.711 5.501 13.481L5.521 14.051L5.539 14.546H5.538Z" fill="url(#paint10_linear_818_455)"/>
<g filter="url(#filter1_i_818_455)">
<path d="M6.26392 19.8999C7.05957 19.8999 7.82263 19.5838 8.38524 19.0212C8.94785 18.4586 9.26392 17.6956 9.26392 16.8999C9.26392 16.1043 8.94785 15.3412 8.38524 14.7786C7.82263 14.216 7.05957 13.8999 6.26392 13.8999C5.46827 13.8999 4.7052 14.216 4.1426 14.7786C3.57999 15.3412 3.26392 16.1043 3.26392 16.8999C3.26392 17.6956 3.57999 18.4586 4.1426 19.0212C4.7052 19.5838 5.46827 19.8999 6.26392 19.8999V19.8999Z" fill="url(#paint11_linear_818_455)"/>
</g>
<g filter="url(#filter2_i_818_455)">
<path d="M24 19.8999C24.7956 19.8999 25.5587 19.5838 26.1213 19.0212C26.6839 18.4586 27 17.6956 27 16.8999C27 16.1043 26.6839 15.3412 26.1213 14.7786C25.5587 14.216 24.7956 13.8999 24 13.8999C23.2044 13.8999 22.4413 14.216 21.8787 14.7786C21.3161 15.3412 21 16.1043 21 16.8999C21 17.6956 21.3161 18.4586 21.8787 19.0212C22.4413 19.5838 23.2044 19.8999 24 19.8999V19.8999Z" fill="url(#paint12_radial_818_455)"/>
<path d="M24 19.8999C24.7956 19.8999 25.5587 19.5838 26.1213 19.0212C26.6839 18.4586 27 17.6956 27 16.8999C27 16.1043 26.6839 15.3412 26.1213 14.7786C25.5587 14.216 24.7956 13.8999 24 13.8999C23.2044 13.8999 22.4413 14.216 21.8787 14.7786C21.3161 15.3412 21 16.1043 21 16.8999C21 17.6956 21.3161 18.4586 21.8787 19.0212C22.4413 19.5838 23.2044 19.8999 24 19.8999V19.8999Z" fill="url(#paint13_radial_818_455)"/>
</g>
<g filter="url(#filter3_f_818_455)">
<path d="M24 18.902C24.2667 18.9079 24.532 18.8606 24.7801 18.7626C25.0283 18.6646 25.2544 18.5181 25.4452 18.3316C25.6359 18.145 25.7875 17.9222 25.891 17.6763C25.9944 17.4304 26.0477 17.1663 26.0477 16.8995C26.0477 16.6327 25.9944 16.3686 25.891 16.1226C25.7875 15.8767 25.6359 15.654 25.4452 15.4674C25.2544 15.2809 25.0283 15.1343 24.7801 15.0364C24.532 14.9384 24.2667 14.891 24 14.897C23.4766 14.9087 22.9787 15.1248 22.6127 15.4991C22.2467 15.8733 22.0417 16.376 22.0417 16.8995C22.0417 17.423 22.2467 17.9256 22.6127 18.2999C22.9787 18.6742 23.4766 18.8903 24 18.902V18.902Z" fill="#E5AA8B"/>
<path d="M24 18.902C24.2667 18.9079 24.532 18.8606 24.7801 18.7626C25.0283 18.6646 25.2544 18.5181 25.4452 18.3316C25.6359 18.145 25.7875 17.9222 25.891 17.6763C25.9944 17.4304 26.0477 17.1663 26.0477 16.8995C26.0477 16.6327 25.9944 16.3686 25.891 16.1226C25.7875 15.8767 25.6359 15.654 25.4452 15.4674C25.2544 15.2809 25.0283 15.1343 24.7801 15.0364C24.532 14.9384 24.2667 14.891 24 14.897C23.4766 14.9087 22.9787 15.1248 22.6127 15.4991C22.2467 15.8733 22.0417 16.376 22.0417 16.8995C22.0417 17.423 22.2467 17.9256 22.6127 18.2999C22.9787 18.6742 23.4766 18.8903 24 18.902V18.902Z" fill="url(#paint14_radial_818_455)"/>
</g>
<g filter="url(#filter4_f_818_455)">
<path d="M6.30005 18.902C6.56678 18.9079 6.83202 18.8606 7.08019 18.7626C7.32836 18.6646 7.55447 18.5181 7.74522 18.3316C7.93598 18.145 8.08754 17.9222 8.19102 17.6763C8.29449 17.4304 8.3478 17.1663 8.3478 16.8995C8.3478 16.6327 8.29449 16.3686 8.19102 16.1226C8.08754 15.8767 7.93598 15.654 7.74522 15.4674C7.55447 15.2809 7.32836 15.1343 7.08019 15.0364C6.83202 14.9384 6.56678 14.891 6.30005 14.897C5.7767 14.9087 5.27872 15.1248 4.91273 15.4991C4.54673 15.8733 4.3418 16.376 4.3418 16.8995C4.3418 17.423 4.54673 17.9256 4.91273 18.2999C5.27872 18.6742 5.7767 18.8903 6.30005 18.902V18.902Z" fill="#B47A6C"/>
<path d="M6.30005 18.902C6.56678 18.9079 6.83202 18.8606 7.08019 18.7626C7.32836 18.6646 7.55447 18.5181 7.74522 18.3316C7.93598 18.145 8.08754 17.9222 8.19102 17.6763C8.29449 17.4304 8.3478 17.1663 8.3478 16.8995C8.3478 16.6327 8.29449 16.3686 8.19102 16.1226C8.08754 15.8767 7.93598 15.654 7.74522 15.4674C7.55447 15.2809 7.32836 15.1343 7.08019 15.0364C6.83202 14.9384 6.56678 14.891 6.30005 14.897C5.7767 14.9087 5.27872 15.1248 4.91273 15.4991C4.54673 15.8733 4.3418 16.376 4.3418 16.8995C4.3418 17.423 4.54673 17.9256 4.91273 18.2999C5.27872 18.6742 5.7767 18.8903 6.30005 18.902V18.902Z" fill="url(#paint15_radial_818_455)"/>
</g>
<g filter="url(#filter5_i_818_455)">
<path d="M5.52 14.051L5.5 13.481C5.538 11.711 6.57 11.027 7.01 10.798C7.04 10.788 7.073 10.775 7.106 10.76C7.13758 10.7463 7.16959 10.7337 7.202 10.722C8.20936 10.2686 9.00333 9.44455 9.419 8.42103L9.572 8.05903C9.6054 7.97694 9.66036 7.90538 9.73107 7.85194C9.80178 7.7985 9.88561 7.76515 9.97371 7.75542C10.0618 7.74568 10.1509 7.75993 10.2316 7.79665C10.3122 7.83337 10.3815 7.89121 10.432 7.96403C11.0952 8.92815 11.9833 9.71612 13.0195 10.2598C14.0557 10.8034 15.2088 11.0863 16.379 11.084H22.382C22.718 11.084 24.4 11.247 24.5 13.568L24.279 19.297C24.049 24.522 19.969 28.03 14.988 28.03C10.008 28.03 5.927 24.522 5.697 19.297L5.519 14.051H5.52Z" fill="url(#paint16_radial_818_455)"/>
<path d="M5.52 14.051L5.5 13.481C5.538 11.711 6.57 11.027 7.01 10.798C7.04 10.788 7.073 10.775 7.106 10.76C7.13758 10.7463 7.16959 10.7337 7.202 10.722C8.20936 10.2686 9.00333 9.44455 9.419 8.42103L9.572 8.05903C9.6054 7.97694 9.66036 7.90538 9.73107 7.85194C9.80178 7.7985 9.88561 7.76515 9.97371 7.75542C10.0618 7.74568 10.1509 7.75993 10.2316 7.79665C10.3122 7.83337 10.3815 7.89121 10.432 7.96403C11.0952 8.92815 11.9833 9.71612 13.0195 10.2598C14.0557 10.8034 15.2088 11.0863 16.379 11.084H22.382C22.718 11.084 24.4 11.247 24.5 13.568L24.279 19.297C24.049 24.522 19.969 28.03 14.988 28.03C10.008 28.03 5.927 24.522 5.697 19.297L5.519 14.051H5.52Z" fill="url(#paint17_radial_818_455)"/>
<path d="M5.52 14.051L5.5 13.481C5.538 11.711 6.57 11.027 7.01 10.798C7.04 10.788 7.073 10.775 7.106 10.76C7.13758 10.7463 7.16959 10.7337 7.202 10.722C8.20936 10.2686 9.00333 9.44455 9.419 8.42103L9.572 8.05903C9.6054 7.97694 9.66036 7.90538 9.73107 7.85194C9.80178 7.7985 9.88561 7.76515 9.97371 7.75542C10.0618 7.74568 10.1509 7.75993 10.2316 7.79665C10.3122 7.83337 10.3815 7.89121 10.432 7.96403C11.0952 8.92815 11.9833 9.71612 13.0195 10.2598C14.0557 10.8034 15.2088 11.0863 16.379 11.084H22.382C22.718 11.084 24.4 11.247 24.5 13.568L24.279 19.297C24.049 24.522 19.969 28.03 14.988 28.03C10.008 28.03 5.927 24.522 5.697 19.297L5.519 14.051H5.52Z" fill="url(#paint18_radial_818_455)"/>
<path d="M5.52 14.051L5.5 13.481C5.538 11.711 6.57 11.027 7.01 10.798C7.04 10.788 7.073 10.775 7.106 10.76C7.13758 10.7463 7.16959 10.7337 7.202 10.722C8.20936 10.2686 9.00333 9.44455 9.419 8.42103L9.572 8.05903C9.6054 7.97694 9.66036 7.90538 9.73107 7.85194C9.80178 7.7985 9.88561 7.76515 9.97371 7.75542C10.0618 7.74568 10.1509 7.75993 10.2316 7.79665C10.3122 7.83337 10.3815 7.89121 10.432 7.96403C11.0952 8.92815 11.9833 9.71612 13.0195 10.2598C14.0557 10.8034 15.2088 11.0863 16.379 11.084H22.382C22.718 11.084 24.4 11.247 24.5 13.568L24.279 19.297C24.049 24.522 19.969 28.03 14.988 28.03C10.008 28.03 5.927 24.522 5.697 19.297L5.519 14.051H5.52Z" fill="url(#paint19_radial_818_455)"/>
<path d="M5.52 14.051L5.5 13.481C5.538 11.711 6.57 11.027 7.01 10.798C7.04 10.788 7.073 10.775 7.106 10.76C7.13758 10.7463 7.16959 10.7337 7.202 10.722C8.20936 10.2686 9.00333 9.44455 9.419 8.42103L9.572 8.05903C9.6054 7.97694 9.66036 7.90538 9.73107 7.85194C9.80178 7.7985 9.88561 7.76515 9.97371 7.75542C10.0618 7.74568 10.1509 7.75993 10.2316 7.79665C10.3122 7.83337 10.3815 7.89121 10.432 7.96403C11.0952 8.92815 11.9833 9.71612 13.0195 10.2598C14.0557 10.8034 15.2088 11.0863 16.379 11.084H22.382C22.718 11.084 24.4 11.247 24.5 13.568L24.279 19.297C24.049 24.522 19.969 28.03 14.988 28.03C10.008 28.03 5.927 24.522 5.697 19.297L5.519 14.051H5.52Z" fill="url(#paint20_radial_818_455)"/>
<path d="M5.52 14.051L5.5 13.481C5.538 11.711 6.57 11.027 7.01 10.798C7.04 10.788 7.073 10.775 7.106 10.76C7.13758 10.7463 7.16959 10.7337 7.202 10.722C8.20936 10.2686 9.00333 9.44455 9.419 8.42103L9.572 8.05903C9.6054 7.97694 9.66036 7.90538 9.73107 7.85194C9.80178 7.7985 9.88561 7.76515 9.97371 7.75542C10.0618 7.74568 10.1509 7.75993 10.2316 7.79665C10.3122 7.83337 10.3815 7.89121 10.432 7.96403C11.0952 8.92815 11.9833 9.71612 13.0195 10.2598C14.0557 10.8034 15.2088 11.0863 16.379 11.084H22.382C22.718 11.084 24.4 11.247 24.5 13.568L24.279 19.297C24.049 24.522 19.969 28.03 14.988 28.03C10.008 28.03 5.927 24.522 5.697 19.297L5.519 14.051H5.52Z" fill="url(#paint21_radial_818_455)"/>
<path d="M5.52 14.051L5.5 13.481C5.538 11.711 6.57 11.027 7.01 10.798C7.04 10.788 7.073 10.775 7.106 10.76C7.13758 10.7463 7.16959 10.7337 7.202 10.722C8.20936 10.2686 9.00333 9.44455 9.419 8.42103L9.572 8.05903C9.6054 7.97694 9.66036 7.90538 9.73107 7.85194C9.80178 7.7985 9.88561 7.76515 9.97371 7.75542C10.0618 7.74568 10.1509 7.75993 10.2316 7.79665C10.3122 7.83337 10.3815 7.89121 10.432 7.96403C11.0952 8.92815 11.9833 9.71612 13.0195 10.2598C14.0557 10.8034 15.2088 11.0863 16.379 11.084H22.382C22.718 11.084 24.4 11.247 24.5 13.568L24.279 19.297C24.049 24.522 19.969 28.03 14.988 28.03C10.008 28.03 5.927 24.522 5.697 19.297L5.519 14.051H5.52Z" fill="url(#paint22_radial_818_455)"/>
</g>
<path d="M5.515 14.546H5.538L5.519 14.051L5.5 13.481C5.538 11.711 6.57 11.027 7.01 10.798C7.04 10.788 7.073 10.775 7.106 10.76C7.13758 10.7463 7.16959 10.7337 7.202 10.722C8.20936 10.2686 9.00333 9.44455 9.419 8.42103L9.572 8.05903C9.6054 7.97694 9.66036 7.90538 9.73107 7.85194C9.80178 7.7985 9.88561 7.76515 9.97371 7.75542C10.0618 7.74568 10.1509 7.75993 10.2316 7.79665C10.3122 7.83337 10.3815 7.89121 10.432 7.96403C11.0952 8.92815 11.9833 9.71612 13.0195 10.2598C14.0557 10.8034 15.2088 11.0863 16.379 11.084H22.382C22.718 11.084 24.4 11.247 24.5 13.568L24.279 19.297C24.049 24.522 19.969 28.03 14.988 28.03C10.008 28.03 5.927 24.522 5.697 19.297L5.515 14.546V14.546Z" fill="url(#paint23_radial_818_455)"/>
<g filter="url(#filter6_f_818_455)">
<path d="M14.2679 16.4848L12.9939 19.6548C12.947 19.806 12.9364 19.9662 12.9631 20.1223C12.9898 20.2783 13.053 20.4259 13.1476 20.5529C13.2421 20.68 13.3654 20.7828 13.5072 20.8532C13.6491 20.9235 13.8056 20.9594 13.9639 20.9578H15.4299C16.1179 20.9578 16.6029 20.2958 16.4009 19.6538L15.4109 16.4838C15.1979 15.7828 14.4909 15.7828 14.2679 16.4838V16.4848Z" fill="#C28178"/>
</g>
<g filter="url(#filter7_f_818_455)">
<path d="M14.287 16.2272L13.297 19.3962C13.2498 19.5475 13.2391 19.7078 13.2657 19.864C13.2923 20.0202 13.3555 20.1679 13.4501 20.2951C13.5447 20.4222 13.668 20.5252 13.81 20.5956C13.9519 20.666 14.1085 20.7019 14.267 20.7002H15.733C16.421 20.7002 16.906 20.0382 16.703 19.3962L15.713 16.2262C15.5 15.5242 14.51 15.5242 14.287 16.2262V16.2272Z" fill="#EFB696"/>
<path d="M14.287 16.2272L13.297 19.3962C13.2498 19.5475 13.2391 19.7078 13.2657 19.864C13.2923 20.0202 13.3555 20.1679 13.4501 20.2951C13.5447 20.4222 13.668 20.5252 13.81 20.5956C13.9519 20.666 14.1085 20.7019 14.267 20.7002H15.733C16.421 20.7002 16.906 20.0382 16.703 19.3962L15.713 16.2262C15.5 15.5242 14.51 15.5242 14.287 16.2262V16.2272Z" fill="url(#paint24_radial_818_455)"/>
<path d="M14.287 16.2272L13.297 19.3962C13.2498 19.5475 13.2391 19.7078 13.2657 19.864C13.2923 20.0202 13.3555 20.1679 13.4501 20.2951C13.5447 20.4222 13.668 20.5252 13.81 20.5956C13.9519 20.666 14.1085 20.7019 14.267 20.7002H15.733C16.421 20.7002 16.906 20.0382 16.703 19.3962L15.713 16.2262C15.5 15.5242 14.51 15.5242 14.287 16.2262V16.2272Z" fill="url(#paint25_linear_818_455)"/>
<path d="M14.287 16.2272L13.297 19.3962C13.2498 19.5475 13.2391 19.7078 13.2657 19.864C13.2923 20.0202 13.3555 20.1679 13.4501 20.2951C13.5447 20.4222 13.668 20.5252 13.81 20.5956C13.9519 20.666 14.1085 20.7019 14.267 20.7002H15.733C16.421 20.7002 16.906 20.0382 16.703 19.3962L15.713 16.2262C15.5 15.5242 14.51 15.5242 14.287 16.2262V16.2272Z" fill="url(#paint26_linear_818_455)"/>
</g>
<path d="M14.287 16.2272L13.297 19.3962C13.2498 19.5475 13.2391 19.7078 13.2657 19.864C13.2923 20.0202 13.3555 20.1679 13.4501 20.2951C13.5447 20.4222 13.668 20.5252 13.81 20.5956C13.9519 20.666 14.1085 20.7019 14.267 20.7002H15.733C16.421 20.7002 16.906 20.0382 16.703 19.3962L15.713 16.2262C15.5 15.5242 14.51 15.5242 14.287 16.2262V16.2272Z" fill="url(#paint27_linear_818_455)"/>
<path d="M14.287 16.2272L13.297 19.3962C13.2498 19.5475 13.2391 19.7078 13.2657 19.864C13.2923 20.0202 13.3555 20.1679 13.4501 20.2951C13.5447 20.4222 13.668 20.5252 13.81 20.5956C13.9519 20.666 14.1085 20.7019 14.267 20.7002H15.733C16.421 20.7002 16.906 20.0382 16.703 19.3962L15.713 16.2262C15.5 15.5242 14.51 15.5242 14.287 16.2262V16.2272Z" fill="url(#paint28_radial_818_455)"/>
<path d="M12.3731 21.6422C12.3065 21.6067 12.23 21.5945 12.1557 21.6075C12.0814 21.6206 12.0136 21.6581 11.9631 21.7142C11.9112 21.7678 11.8794 21.8377 11.8732 21.9121C11.867 21.9865 11.8867 22.0607 11.9291 22.1221C12.2596 22.6366 12.7139 23.0598 13.2505 23.3529C13.7871 23.6461 14.3887 23.7999 15.0001 23.8001C16.2901 23.8001 17.4221 23.1281 18.0711 22.1221C18.1136 22.06 18.1333 21.985 18.127 21.9099C18.1206 21.8348 18.0885 21.7643 18.0361 21.7101C17.9852 21.655 17.9174 21.6183 17.8434 21.6058C17.7694 21.5933 17.6933 21.6057 17.6271 21.6412C16.8171 22.0661 15.9148 22.2849 15.0001 22.2781C14.0856 22.2841 13.1836 22.0657 12.3731 21.6422V21.6422Z" fill="#88014E" stroke="url(#paint29_linear_818_455)" stroke-width="0.1"/>
<g filter="url(#filter8_i_818_455)">
<path d="M17.1299 15.8388C17.6239 14.9688 18.3759 14.2808 19.9959 14.2808C20.7049 14.2808 21.3879 14.4778 21.9959 14.9688C22.4959 15.3738 22.4299 15.8918 22.0419 16.0858L21.0049 16.6778C19.7899 16.2848 18.4449 16.2318 17.1289 15.8388H17.1299Z" fill="#635D5F"/>
</g>
<g filter="url(#filter9_i_818_455)">
<path d="M12.8711 15.8388C12.3761 14.9688 11.6241 14.2808 10.0051 14.2808C9.29512 14.2808 8.61212 14.4778 8.00512 14.9688C7.50312 15.3738 7.57012 15.8918 7.95912 16.0858L8.99512 16.6778C10.2111 16.2848 11.5551 16.2318 12.8711 15.8388Z" fill="#635D5F"/>
</g>
<g filter="url(#filter10_i_818_455)">
<path d="M8.66499 13.585L8.65699 13.59C8.60065 13.6237 8.53822 13.6461 8.47326 13.6557C8.40829 13.6653 8.34207 13.662 8.27837 13.6461C8.14972 13.6138 8.03915 13.5318 7.97099 13.418C7.93724 13.3617 7.91492 13.2992 7.9053 13.2343C7.89568 13.1693 7.89895 13.1031 7.91492 13.0394C7.94717 12.9107 8.02921 12.8002 8.14299 12.732H8.14399L8.14599 12.73L8.15199 12.727L8.16899 12.717C8.25899 12.6649 8.35143 12.6172 8.44599 12.574C8.62999 12.486 8.89099 12.374 9.20999 12.272C9.84399 12.07 10.73 11.9 11.687 12.069C11.7517 12.0804 11.8135 12.1045 11.8688 12.1398C11.9242 12.1751 11.9721 12.221 12.0098 12.2748C12.0474 12.3286 12.0741 12.3893 12.0883 12.4534C12.1025 12.5175 12.1039 12.5838 12.0925 12.6485C12.0811 12.7132 12.057 12.775 12.0217 12.8303C11.9864 12.8857 11.9405 12.9336 11.8867 12.9713C11.8329 13.0089 11.7722 13.0356 11.7081 13.0498C11.644 13.064 11.5777 13.0654 11.513 13.054C10.77 12.922 10.056 13.052 9.51499 13.225C9.22135 13.319 8.93684 13.4395 8.66499 13.585V13.585Z" fill="#9F6836"/>
</g>
<g filter="url(#filter11_i_818_455)">
<path fill-rule="evenodd" clip-rule="evenodd" d="M21.9569 12.732L21.6999 13.162L21.9569 12.732C22.0707 12.8002 22.1527 12.9107 22.185 13.0394C22.2172 13.168 22.197 13.3042 22.1289 13.418C22.0607 13.5318 21.9502 13.6138 21.8215 13.6461C21.6929 13.6783 21.5567 13.6582 21.4429 13.59L21.4349 13.585C21.3661 13.5464 21.296 13.51 21.2249 13.476C21.0174 13.3783 20.8036 13.2948 20.5849 13.226C20.0449 13.052 19.3299 12.922 18.5869 13.054C18.5222 13.0654 18.4559 13.064 18.3918 13.0498C18.3277 13.0356 18.267 13.0089 18.2131 12.9713C18.1593 12.9336 18.1135 12.8857 18.0782 12.8303C18.0429 12.775 18.0188 12.7132 18.0074 12.6485C17.996 12.5838 17.9974 12.5175 18.0116 12.4534C18.0258 12.3893 18.0525 12.3286 18.0901 12.2748C18.1278 12.221 18.1757 12.1751 18.231 12.1398C18.2864 12.1045 18.3482 12.0804 18.4129 12.069C19.3699 11.9 20.2559 12.07 20.8899 12.272C21.2279 12.3806 21.5558 12.5185 21.8699 12.684L21.9309 12.717L21.9479 12.727L21.9539 12.73L21.9559 12.732H21.9569Z" fill="#9F6836"/>
</g>
<path d="M19.458 14.3901C20.675 14.3901 21.704 15.2301 21.984 16.3651C22.0029 16.4408 22.0043 16.5199 21.9879 16.5961C21.9716 16.6724 21.938 16.744 21.8898 16.8053C21.8415 16.8666 21.7798 16.916 21.7095 16.9498C21.6391 16.9836 21.562 17.0008 21.484 17.0001H17.325C17.2619 17.0003 17.1996 16.9865 17.1424 16.9599C17.0853 16.9333 17.0346 16.8944 16.9942 16.846C16.9537 16.7976 16.9244 16.7409 16.9083 16.6799C16.8922 16.619 16.8897 16.5552 16.901 16.4931C17.0178 15.9008 17.3365 15.3674 17.8029 14.984C18.2693 14.6007 18.8543 14.3911 19.458 14.3911V14.3901Z" fill="white"/>
<path d="M19.0719 14.8979C19.3276 14.8983 19.5797 14.9576 19.8088 15.0712C20.0379 15.1848 20.2377 15.3496 20.3927 15.5529C20.5478 15.7562 20.6539 15.9925 20.7028 16.2435C20.7517 16.4944 20.7422 16.7533 20.6749 16.9999H17.4609C17.4219 16.8568 17.4017 16.7093 17.4009 16.561C17.4027 16.1191 17.5796 15.696 17.8928 15.3843C18.206 15.0725 18.63 14.8977 19.0719 14.8979V14.8979Z" fill="url(#paint30_radial_818_455)"/>
<path d="M18.119 16.5609C18.119 16.0309 18.543 15.6079 19.072 15.6079C19.602 15.6079 20.025 16.0319 20.025 16.5609C20.0258 16.7137 19.9894 16.8644 19.919 16.9999H18.233C18.1565 16.8664 18.1171 16.7148 18.119 16.5609Z" fill="black"/>
<g filter="url(#filter12_f_818_455)">
<path d="M18.9499 15.25C19.0679 15.408 18.8199 15.601 18.5389 15.812C18.2569 16.022 18.0479 16.17 17.9289 16.012C17.8109 15.853 17.9429 15.554 18.2249 15.343C18.5069 15.133 18.8309 15.091 18.9499 15.249V15.25Z" fill="#C7A7A3"/>
<path d="M18.9499 15.25C19.0679 15.408 18.8199 15.601 18.5389 15.812C18.2569 16.022 18.0479 16.17 17.9289 16.012C17.8109 15.853 17.9429 15.554 18.2249 15.343C18.5069 15.133 18.8309 15.091 18.9499 15.249V15.25Z" fill="url(#paint31_radial_818_455)"/>
</g>
<g filter="url(#filter13_f_818_455)">
<path d="M20.5539 16.342C20.5044 16.0165 20.3536 15.7149 20.1229 15.48L19.6379 16.011L19.8569 16.437L20.5539 16.342Z" fill="url(#paint32_linear_818_455)"/>
</g>
<path d="M10.542 14.3901C9.32501 14.3901 8.29601 15.2301 8.01601 16.3651C7.99707 16.4408 7.99572 16.5199 8.01206 16.5961C8.02839 16.6724 8.06198 16.744 8.11025 16.8053C8.15852 16.8666 8.22019 16.916 8.29052 16.9498C8.36086 16.9836 8.43799 17.0008 8.51601 17.0001H12.675C12.7381 17.0003 12.8004 16.9865 12.8576 16.9599C12.9147 16.9333 12.9654 16.8944 13.0058 16.846C13.0463 16.7976 13.0756 16.7409 13.0917 16.6799C13.1078 16.619 13.1103 16.5552 13.099 16.4931C12.9812 15.9013 12.6621 15.3686 12.196 14.9854C11.7298 14.6022 11.1454 14.3922 10.542 14.3911V14.3901Z" fill="white"/>
<path d="M10.9281 14.897C10.6722 14.8971 10.4198 14.9563 10.1905 15.0699C9.96124 15.1835 9.76124 15.3484 9.60606 15.5518C9.45088 15.7553 9.34471 15.9918 9.29581 16.2429C9.24691 16.4941 9.25658 16.7532 9.32409 17H12.5391C12.5771 16.856 12.5991 16.712 12.5991 16.561C12.5962 16.1193 12.419 15.6967 12.106 15.3851C11.7931 15.0734 11.3697 14.898 10.9281 14.897V14.897Z" fill="url(#paint33_radial_818_455)"/>
<path d="M11.8801 16.5609C11.8806 16.4357 11.8564 16.3116 11.8087 16.1958C11.7611 16.08 11.691 15.9748 11.6025 15.8862C11.514 15.7976 11.4089 15.7274 11.2931 15.6797C11.1774 15.6319 11.0533 15.6075 10.9281 15.6079C10.8028 15.6074 10.6786 15.6317 10.5628 15.6794C10.4469 15.7271 10.3417 15.7973 10.2531 15.8859C10.1645 15.9745 10.0943 16.0797 10.0466 16.1956C9.99887 16.3115 9.97458 16.4356 9.97511 16.5609C9.97511 16.7209 10.0131 16.8709 10.0811 16.9999H11.7671C11.8402 16.865 11.8793 16.7143 11.8811 16.5609H11.8801Z" fill="black"/>
<g filter="url(#filter14_f_818_455)">
<path d="M12.448 16.3658C12.448 15.8278 12.011 15.4698 11.893 15.3608L11.355 15.8808L11.685 16.5548L12.448 16.3648V16.3658Z" fill="url(#paint34_linear_818_455)"/>
</g>
<g filter="url(#filter15_f_818_455)">
<path d="M10.5984 15.9331C10.9527 15.7453 11.1628 15.4476 11.0676 15.268C10.9725 15.0884 10.6081 15.095 10.2538 15.2827C9.89953 15.4704 9.68944 15.7681 9.78458 15.9477C9.87973 16.1273 10.2441 16.1208 10.5984 15.9331Z" fill="#C7A7A3" fill-opacity="0.9"/>
<path d="M10.5984 15.9331C10.9527 15.7453 11.1628 15.4476 11.0676 15.268C10.9725 15.0884 10.6081 15.095 10.2538 15.2827C9.89953 15.4704 9.68944 15.7681 9.78458 15.9477C9.87973 16.1273 10.2441 16.1208 10.5984 15.9331Z" fill="url(#paint35_radial_818_455)"/>
</g>
<g filter="url(#filter16_f_818_455)">
<path d="M18.616 12.4761C19.217 12.3301 20.713 12.4031 21.712 13.1181" stroke="#A57045" stroke-width="0.4" stroke-linecap="round"/>
</g>
<g filter="url(#filter17_f_818_455)">
<path d="M11.5479 12.4761C10.9469 12.3301 9.4509 12.4031 8.4519 13.1181" stroke="#A57045" stroke-width="0.4" stroke-linecap="round"/>
</g>
<g filter="url(#filter18_f_818_455)">
<path d="M5.87492 5.68802C7.03292 4.65602 8.70292 4.64602 9.64092 4.81302L10.3909 7.21901C9.91092 7.14601 9.48492 7.31302 9.12492 7.65602C8.28092 10.781 5.09392 10.312 4.46892 12.656C4.18692 9.87502 3.87492 7.46901 5.87492 5.68701V5.68802Z" fill="url(#paint36_radial_818_455)"/>
<path d="M5.87492 5.68802C7.03292 4.65602 8.70292 4.64602 9.64092 4.81302L10.3909 7.21901C9.91092 7.14601 9.48492 7.31302 9.12492 7.65602C8.28092 10.781 5.09392 10.312 4.46892 12.656C4.18692 9.87502 3.87492 7.46901 5.87492 5.68701V5.68802Z" fill="url(#paint37_radial_818_455)"/>
</g>
<g filter="url(#filter19_f_818_455)">
<path d="M13.875 2.37499C11.763 1.90899 9.50001 4.15599 9.28101 4.93799C12.156 11.688 16.571 11.044 21.469 10.5C24.401 10.174 24.719 11.51 24.969 12.156C24.156 4.59399 18.688 3.43799 13.875 2.37499V2.37499Z" fill="url(#paint38_radial_818_455)"/>
<path d="M13.875 2.37499C11.763 1.90899 9.50001 4.15599 9.28101 4.93799C12.156 11.688 16.571 11.044 21.469 10.5C24.401 10.174 24.719 11.51 24.969 12.156C24.156 4.59399 18.688 3.43799 13.875 2.37499V2.37499Z" fill="url(#paint39_radial_818_455)"/>
<path d="M13.875 2.37499C11.763 1.90899 9.50001 4.15599 9.28101 4.93799C12.156 11.688 16.571 11.044 21.469 10.5C24.401 10.174 24.719 11.51 24.969 12.156C24.156 4.59399 18.688 3.43799 13.875 2.37499V2.37499Z" fill="url(#paint40_radial_818_455)"/>
</g>
<g filter="url(#filter20_f_818_455)">
<path d="M9.61011 4.70312C9.65311 5.15613 10.0471 6.85912 10.6251 7.89112" stroke="url(#paint41_linear_818_455)" stroke-width="0.2" stroke-linecap="round"/>
</g>
<defs>
<filter id="filter0_i_818_455" x="1" y="0.25" width="28.25" height="28.75" filterUnits="userSpaceOnUse" color-interpolation-filters="sRGB">
<feFlood flood-opacity="0" result="BackgroundImageFix"/>
<feBlend mode="normal" in="SourceGraphic" in2="BackgroundImageFix" result="shape"/>
<feColorMatrix in="SourceAlpha" type="matrix" values="0 0 0 0 0 0 0 0 0 0 0 0 0 0 0 0 0 0 127 0" result="hardAlpha"/>
<feOffset dx="0.25" dy="-0.75"/>
<feGaussianBlur stdDeviation="0.75"/>
<feComposite in2="hardAlpha" operator="arithmetic" k2="-1" k3="1"/>
<feColorMatrix type="matrix" values="0 0 0 0 0.886275 0 0 0 0 0.698039 0 0 0 0 0.607843 0 0 0 1 0"/>
<feBlend mode="normal" in2="shape" result="effect1_innerShadow_818_455"/>
</filter>
<filter id="filter1_i_818_455" x="3.26392" y="13.8999" width="6.15" height="6.25" filterUnits="userSpaceOnUse" color-interpolation-filters="sRGB">
<feFlood flood-opacity="0" result="BackgroundImageFix"/>
<feBlend mode="normal" in="SourceGraphic" in2="BackgroundImageFix" result="shape"/>
<feColorMatrix in="SourceAlpha" type="matrix" values="0 0 0 0 0 0 0 0 0 0 0 0 0 0 0 0 0 0 127 0" result="hardAlpha"/>
<feOffset dx="0.15" dy="0.25"/>
<feGaussianBlur stdDeviation="0.25"/>
<feComposite in2="hardAlpha" operator="arithmetic" k2="-1" k3="1"/>
<feColorMatrix type="matrix" values="0 0 0 0 0.858824 0 0 0 0 0.635294 0 0 0 0 0.533333 0 0 0 1 0"/>
<feBlend mode="normal" in2="shape" result="effect1_innerShadow_818_455"/>
</filter>
<filter id="filter2_i_818_455" x="21" y="13.6499" width="6" height="6.25" filterUnits="userSpaceOnUse" color-interpolation-filters="sRGB">
<feFlood flood-opacity="0" result="BackgroundImageFix"/>
<feBlend mode="normal" in="SourceGraphic" in2="BackgroundImageFix" result="shape"/>
<feColorMatrix in="SourceAlpha" type="matrix" values="0 0 0 0 0 0 0 0 0 0 0 0 0 0 0 0 0 0 127 0" result="hardAlpha"/>
<feOffset dy="-0.25"/>
<feGaussianBlur stdDeviation="0.25"/>
<feComposite in2="hardAlpha" operator="arithmetic" k2="-1" k3="1"/>
<feColorMatrix type="matrix" values="0 0 0 0 0.827451 0 0 0 0 0.568627 0 0 0 0 0.505882 0 0 0 1 0"/>
<feBlend mode="normal" in2="shape" result="effect1_innerShadow_818_455"/>
</filter>
<filter id="filter3_f_818_455" x="21.5417" y="14.3965" width="5.0061" height="5.00586" filterUnits="userSpaceOnUse" color-interpolation-filters="sRGB">
<feFlood flood-opacity="0" result="BackgroundImageFix"/>
<feBlend mode="normal" in="SourceGraphic" in2="BackgroundImageFix" result="shape"/>
<feGaussianBlur stdDeviation="0.25" result="effect1_foregroundBlur_818_455"/>
</filter>
<filter id="filter4_f_818_455" x="3.9418" y="14.4965" width="4.8061" height="4.80586" filterUnits="userSpaceOnUse" color-interpolation-filters="sRGB">
<feFlood flood-opacity="0" result="BackgroundImageFix"/>
<feBlend mode="normal" in="SourceGraphic" in2="BackgroundImageFix" result="shape"/>
<feGaussianBlur stdDeviation="0.2" result="effect1_foregroundBlur_818_455"/>
</filter>
<filter id="filter5_i_818_455" x="5.5" y="7.75244" width="19" height="20.6778" filterUnits="userSpaceOnUse" color-interpolation-filters="sRGB">
<feFlood flood-opacity="0" result="BackgroundImageFix"/>
<feBlend mode="normal" in="SourceGraphic" in2="BackgroundImageFix" result="shape"/>
<feColorMatrix in="SourceAlpha" type="matrix" values="0 0 0 0 0 0 0 0 0 0 0 0 0 0 0 0 0 0 127 0" result="hardAlpha"/>
<feOffset dy="0.4"/>
<feGaussianBlur stdDeviation="0.3"/>
<feComposite in2="hardAlpha" operator="arithmetic" k2="-1" k3="1"/>
<feColorMatrix type="matrix" values="0 0 0 0 0.745098 0 0 0 0 0.486275 0 0 0 0 0.384314 0 0 0 1 0"/>
<feBlend mode="normal" in2="shape" result="effect1_innerShadow_818_455"/>
</filter>
<filter id="filter6_f_818_455" x="12.4487" y="15.458" width="4.49854" height="6" filterUnits="userSpaceOnUse" color-interpolation-filters="sRGB">
<feFlood flood-opacity="0" result="BackgroundImageFix"/>
<feBlend mode="normal" in="SourceGraphic" in2="BackgroundImageFix" result="shape"/>
<feGaussianBlur stdDeviation="0.25" result="effect1_foregroundBlur_818_455"/>
</filter>
<filter id="filter7_f_818_455" x="13.0015" y="15.4497" width="3.99805" height="5.50049" filterUnits="userSpaceOnUse" color-interpolation-filters="sRGB">
<feFlood flood-opacity="0" result="BackgroundImageFix"/>
<feBlend mode="normal" in="SourceGraphic" in2="BackgroundImageFix" result="shape"/>
<feGaussianBlur stdDeviation="0.125" result="effect1_foregroundBlur_818_455"/>
</filter>
<filter id="filter8_i_818_455" x="16.9289" y="14.2808" width="5.42314" height="2.39697" filterUnits="userSpaceOnUse" color-interpolation-filters="sRGB">
<feFlood flood-opacity="0" result="BackgroundImageFix"/>
<feBlend mode="normal" in="SourceGraphic" in2="BackgroundImageFix" result="shape"/>
<feColorMatrix in="SourceAlpha" type="matrix" values="0 0 0 0 0 0 0 0 0 0 0 0 0 0 0 0 0 0 127 0" result="hardAlpha"/>
<feOffset dx="-0.2"/>
<feGaussianBlur stdDeviation="0.2"/>
<feComposite in2="hardAlpha" operator="arithmetic" k2="-1" k3="1"/>
<feColorMatrix type="matrix" values="0 0 0 0 0.141176 0 0 0 0 0.0862745 0 0 0 0 0.176471 0 0 0 1 0"/>
<feBlend mode="normal" in2="shape" result="effect1_innerShadow_818_455"/>
</filter>
<filter id="filter9_i_818_455" x="7.64795" y="14.2808" width="5.42314" height="2.39697" filterUnits="userSpaceOnUse" color-interpolation-filters="sRGB">
<feFlood flood-opacity="0" result="BackgroundImageFix"/>
<feBlend mode="normal" in="SourceGraphic" in2="BackgroundImageFix" result="shape"/>
<feColorMatrix in="SourceAlpha" type="matrix" values="0 0 0 0 0 0 0 0 0 0 0 0 0 0 0 0 0 0 127 0" result="hardAlpha"/>
<feOffset dx="0.2"/>
<feGaussianBlur stdDeviation="0.125"/>
<feComposite in2="hardAlpha" operator="arithmetic" k2="-1" k3="1"/>
<feColorMatrix type="matrix" values="0 0 0 0 0.133333 0 0 0 0 0.0784314 0 0 0 0 0.168627 0 0 0 1 0"/>
<feBlend mode="normal" in2="shape" result="effect1_innerShadow_818_455"/>
</filter>
<filter id="filter10_i_818_455" x="7.8999" y="11.8" width="4.4002" height="1.86113" filterUnits="userSpaceOnUse" color-interpolation-filters="sRGB">
<feFlood flood-opacity="0" result="BackgroundImageFix"/>
<feBlend mode="normal" in="SourceGraphic" in2="BackgroundImageFix" result="shape"/>
<feColorMatrix in="SourceAlpha" type="matrix" values="0 0 0 0 0 0 0 0 0 0 0 0 0 0 0 0 0 0 127 0" result="hardAlpha"/>
<feOffset dx="0.2" dy="-0.2"/>
<feGaussianBlur stdDeviation="0.15"/>
<feComposite in2="hardAlpha" operator="arithmetic" k2="-1" k3="1"/>
<feColorMatrix type="matrix" values="0 0 0 0 0.47451 0 0 0 0 0.262745 0 0 0 0 0.164706 0 0 0 1 0"/>
<feBlend mode="normal" in2="shape" result="effect1_innerShadow_818_455"/>
</filter>
<filter id="filter11_i_818_455" x="17.9998" y="11.8" width="4.4002" height="1.86113" filterUnits="userSpaceOnUse" color-interpolation-filters="sRGB">
<feFlood flood-opacity="0" result="BackgroundImageFix"/>
<feBlend mode="normal" in="SourceGraphic" in2="BackgroundImageFix" result="shape"/>
<feColorMatrix in="SourceAlpha" type="matrix" values="0 0 0 0 0 0 0 0 0 0 0 0 0 0 0 0 0 0 127 0" result="hardAlpha"/>
<feOffset dx="0.2" dy="-0.2"/>
<feGaussianBlur stdDeviation="0.15"/>
<feComposite in2="hardAlpha" operator="arithmetic" k2="-1" k3="1"/>
<feColorMatrix type="matrix" values="0 0 0 0 0.47451 0 0 0 0 0.262745 0 0 0 0 0.164706 0 0 0 1 0"/>
<feBlend mode="normal" in2="shape" result="effect1_innerShadow_818_455"/>
</filter>
<filter id="filter12_f_818_455" x="17.7857" y="15.0533" width="1.29424" height="1.1248" filterUnits="userSpaceOnUse" color-interpolation-filters="sRGB">
<feFlood flood-opacity="0" result="BackgroundImageFix"/>
<feBlend mode="normal" in="SourceGraphic" in2="BackgroundImageFix" result="shape"/>
<feGaussianBlur stdDeviation="0.05" result="effect1_foregroundBlur_818_455"/>
</filter>
<filter id="filter13_f_818_455" x="19.4379" y="15.28" width="1.31602" height="1.35703" filterUnits="userSpaceOnUse" color-interpolation-filters="sRGB">
<feFlood flood-opacity="0" result="BackgroundImageFix"/>
<feBlend mode="normal" in="SourceGraphic" in2="BackgroundImageFix" result="shape"/>
<feGaussianBlur stdDeviation="0.1" result="effect1_foregroundBlur_818_455"/>
</filter>
<filter id="filter14_f_818_455" x="11.155" y="15.1608" width="1.49302" height="1.59385" filterUnits="userSpaceOnUse" color-interpolation-filters="sRGB">
<feFlood flood-opacity="0" result="BackgroundImageFix"/>
<feBlend mode="normal" in="SourceGraphic" in2="BackgroundImageFix" result="shape"/>
<feGaussianBlur stdDeviation="0.1" result="effect1_foregroundBlur_818_455"/>
</filter>
<filter id="filter15_f_818_455" x="9.66172" y="15.0377" width="1.52886" height="1.14043" filterUnits="userSpaceOnUse" color-interpolation-filters="sRGB">
<feFlood flood-opacity="0" result="BackgroundImageFix"/>
<feBlend mode="normal" in="SourceGraphic" in2="BackgroundImageFix" result="shape"/>
<feGaussianBlur stdDeviation="0.05" result="effect1_foregroundBlur_818_455"/>
</filter>
<filter id="filter16_f_818_455" x="18.016" y="11.8139" width="4.29585" height="1.90449" filterUnits="userSpaceOnUse" color-interpolation-filters="sRGB">
<feFlood flood-opacity="0" result="BackgroundImageFix"/>
<feBlend mode="normal" in="SourceGraphic" in2="BackgroundImageFix" result="shape"/>
<feGaussianBlur stdDeviation="0.2" result="effect1_foregroundBlur_818_455"/>
</filter>
<filter id="filter17_f_818_455" x="7.85195" y="11.8139" width="4.29609" height="1.90449" filterUnits="userSpaceOnUse" color-interpolation-filters="sRGB">
<feFlood flood-opacity="0" result="BackgroundImageFix"/>
<feBlend mode="normal" in="SourceGraphic" in2="BackgroundImageFix" result="shape"/>
<feGaussianBlur stdDeviation="0.2" result="effect1_foregroundBlur_818_455"/>
</filter>
<filter id="filter18_f_818_455" x="3.51196" y="3.98291" width="7.62891" height="9.42334" filterUnits="userSpaceOnUse" color-interpolation-filters="sRGB">
<feFlood flood-opacity="0" result="BackgroundImageFix"/>
<feBlend mode="normal" in="SourceGraphic" in2="BackgroundImageFix" result="shape"/>
<feGaussianBlur stdDeviation="0.375" result="effect1_foregroundBlur_818_455"/>
</filter>
<filter id="filter19_f_818_455" x="8.53101" y="1.56201" width="17.188" height="11.3438" filterUnits="userSpaceOnUse" color-interpolation-filters="sRGB">
<feFlood flood-opacity="0" result="BackgroundImageFix"/>
<feBlend mode="normal" in="SourceGraphic" in2="BackgroundImageFix" result="shape"/>
<feGaussianBlur stdDeviation="0.375" result="effect1_foregroundBlur_818_455"/>
</filter>
<filter id="filter20_f_818_455" x="9.31001" y="4.40303" width="1.61509" height="3.78818" filterUnits="userSpaceOnUse" color-interpolation-filters="sRGB">
<feFlood flood-opacity="0" result="BackgroundImageFix"/>
<feBlend mode="normal" in="SourceGraphic" in2="BackgroundImageFix" result="shape"/>
<feGaussianBlur stdDeviation="0.1" result="effect1_foregroundBlur_818_455"/>
</filter>
<linearGradient id="paint0_linear_818_455" x1="23.75" y1="3.938" x2="11.063" y2="27.438" gradientUnits="userSpaceOnUse">
<stop stop-color="#FFFFBE"/>
<stop offset="1" stop-color="#E5AE90"/>
</linearGradient>
<radialGradient id="paint1_radial_818_455" cx="0" cy="0" r="1" gradientUnits="userSpaceOnUse" gradientTransform="translate(23.75 27.75) rotate(-64.29) scale(7.49166 17.0815)">
<stop stop-color="#F9BFA4"/>
<stop offset="1" stop-color="#FFC3A8" stop-opacity="0"/>
</radialGradient>
<radialGradient id="paint2_radial_818_455" cx="0" cy="0" r="1" gradientUnits="userSpaceOnUse" gradientTransform="translate(13.75 20.188) rotate(91.3887) scale(10.3155 9.65601)">
<stop offset="0.591" stop-color="#C7897D"/>
<stop offset="1" stop-color="#C7897D" stop-opacity="0"/>
</radialGradient>
<radialGradient id="paint3_radial_818_455" cx="0" cy="0" r="1" gradientUnits="userSpaceOnUse" gradientTransform="translate(9.188 22.063) rotate(142.167) scale(7.43855 9.15645)">
<stop offset="0.205" stop-color="#CF987B"/>
<stop offset="1" stop-color="#CF987B" stop-opacity="0"/>
</radialGradient>
<radialGradient id="paint4_radial_818_455" cx="0" cy="0" r="1" gradientUnits="userSpaceOnUse" gradientTransform="translate(5.969 17.313) rotate(125.038) scale(3.32054 3.01822)">
<stop offset="0.334" stop-color="#C58E72"/>
<stop offset="1" stop-color="#C58E72" stop-opacity="0"/>
</radialGradient>
<radialGradient id="paint5_radial_818_455" cx="0" cy="0" r="1" gradientUnits="userSpaceOnUse" gradientTransform="translate(6.96911 14.5318) rotate(-167.428) scale(4.45047 6.54221)">
<stop offset="0.226" stop-color="#C49070"/>
<stop offset="1" stop-color="#C49070" stop-opacity="0"/>
</radialGradient>
<radialGradient id="paint6_radial_818_455" cx="0" cy="0" r="1" gradientUnits="userSpaceOnUse" gradientTransform="translate(7.84395 2.78172) rotate(55.684) scale(7.15094 12.4794)">
<stop stop-color="#DCC893"/>
<stop offset="1" stop-color="#DCC893" stop-opacity="0"/>
</radialGradient>
<radialGradient id="paint7_radial_818_455" cx="0" cy="0" r="1" gradientUnits="userSpaceOnUse" gradientTransform="translate(25.25 6.188) rotate(132.51) scale(3.05228 4.26551)">
<stop stop-color="#FFFFBF"/>
<stop offset="1" stop-color="#FFFFBF" stop-opacity="0"/>
</radialGradient>
<radialGradient id="paint8_radial_818_455" cx="0" cy="0" r="1" gradientUnits="userSpaceOnUse" gradientTransform="translate(29 15.313) rotate(163.779) scale(3.57985 7.78928)">
<stop stop-color="#FFFABE"/>
<stop offset="1" stop-color="#FFFABE" stop-opacity="0"/>
</radialGradient>
<radialGradient id="paint9_radial_818_455" cx="0" cy="0" r="1" gradientUnits="userSpaceOnUse" gradientTransform="translate(28.5003 20.5004) rotate(156.949) scale(6.3848 10.1729)">
<stop stop-color="#FFF4BC"/>
<stop offset="1" stop-color="#FFF4BC" stop-opacity="0"/>
</radialGradient>
<linearGradient id="paint10_linear_818_455" x1="15" y1="29.688" x2="15" y2="27.063" gradientUnits="userSpaceOnUse">
<stop stop-color="#D08D9C"/>
<stop offset="1" stop-color="#D08D9C" stop-opacity="0"/>
</linearGradient>
<linearGradient id="paint11_linear_818_455" x1="3.26392" y1="17.0619" x2="8.78092" y2="17.0619" gradientUnits="userSpaceOnUse">
<stop stop-color="#C48B78"/>
<stop offset="1" stop-color="#B47860"/>
</linearGradient>
<radialGradient id="paint12_radial_818_455" cx="0" cy="0" r="1" gradientUnits="userSpaceOnUse" gradientTransform="translate(22.5313 17.7186) rotate(-24.444) scale(5.09754 6.22385)">
<stop offset="0.572" stop-color="#E1A792"/>
<stop offset="0.905" stop-color="#F6C3A3"/>
</radialGradient>
<radialGradient id="paint13_radial_818_455" cx="0" cy="0" r="1" gradientUnits="userSpaceOnUse" gradientTransform="translate(24.438 13.5779) rotate(15.9454) scale(1.93378 1.01666)">
<stop stop-color="#D59566"/>
<stop offset="1" stop-color="#D59566" stop-opacity="0"/>
</radialGradient>
<radialGradient id="paint14_radial_818_455" cx="0" cy="0" r="1" gradientUnits="userSpaceOnUse" gradientTransform="translate(23.5633 17.3439) rotate(-20.298) scale(2.43229)">
<stop offset="0.71" stop-color="#E3A280" stop-opacity="0"/>
<stop offset="1" stop-color="#E3A280"/>
</radialGradient>
<radialGradient id="paint15_radial_818_455" cx="0" cy="0" r="1" gradientUnits="userSpaceOnUse" gradientTransform="translate(6.30004 16.9) rotate(180) scale(2.26873 2.17018)">
<stop offset="0.573" stop-color="#B0725A" stop-opacity="0"/>
<stop offset="1" stop-color="#B0725A"/>
</radialGradient>
<radialGradient id="paint16_radial_818_455" cx="0" cy="0" r="1" gradientUnits="userSpaceOnUse" gradientTransform="translate(20.33 15.898) rotate(155.244) scale(13.3525 17.872)">
<stop stop-color="#FFC59D"/>
<stop offset="1" stop-color="#D39B88"/>
</radialGradient>
<radialGradient id="paint17_radial_818_455" cx="0" cy="0" r="1" gradientUnits="userSpaceOnUse" gradientTransform="translate(18.543 17.198) rotate(152.124) scale(4.44976 3.7753)">
<stop stop-color="#FFC89E"/>
<stop offset="1" stop-color="#FFC89E" stop-opacity="0"/>
</radialGradient>
<radialGradient id="paint18_radial_818_455" cx="0" cy="0" r="1" gradientUnits="userSpaceOnUse" gradientTransform="translate(10.936 28.543) rotate(-78.3106) scale(7.70153 9.7718)">
<stop stop-color="#B97783"/>
<stop offset="1" stop-color="#B97783" stop-opacity="0"/>
</radialGradient>
<radialGradient id="paint19_radial_818_455" cx="0" cy="0" r="1" gradientUnits="userSpaceOnUse" gradientTransform="translate(16.563 15.938) rotate(99.5055) scale(13.6246 16.375)">
<stop offset="0.631" stop-color="#B36D8D" stop-opacity="0"/>
<stop offset="1" stop-color="#B36D8D"/>
</radialGradient>
<radialGradient id="paint20_radial_818_455" cx="0" cy="0" r="1" gradientUnits="userSpaceOnUse" gradientTransform="translate(16.1866 20.2495) rotate(172.34) scale(10.7837 18.5663)">
<stop offset="0.813" stop-color="#E3AB91" stop-opacity="0"/>
<stop offset="1" stop-color="#E3AB91"/>
</radialGradient>
<radialGradient id="paint21_radial_818_455" cx="0" cy="0" r="1" gradientUnits="userSpaceOnUse" gradientTransform="translate(19.29 15.118) rotate(-90) scale(2.14551 3.08442)">
<stop offset="0.259" stop-color="#E3A48E"/>
<stop offset="1" stop-color="#E3A48E" stop-opacity="0"/>
</radialGradient>
<radialGradient id="paint22_radial_818_455" cx="0" cy="0" r="1" gradientUnits="userSpaceOnUse" gradientTransform="translate(11.424 15.28) rotate(-90) scale(2.5356 2.90597)">
<stop stop-color="#C2847A"/>
<stop offset="1" stop-color="#C2847A" stop-opacity="0"/>
</radialGradient>
<radialGradient id="paint23_radial_818_455" cx="0" cy="0" r="1" gradientUnits="userSpaceOnUse" gradientTransform="translate(24.5 17.891) rotate(180) scale(2.51128 8.26719)">
<stop stop-color="#F4C099"/>
<stop offset="1" stop-color="#F4C099" stop-opacity="0"/>
</radialGradient>
<radialGradient id="paint24_radial_818_455" cx="0" cy="0" r="1" gradientUnits="userSpaceOnUse" gradientTransform="translate(16.4625 19.245) rotate(-105.892) scale(4.74883 2.71734)">
<stop offset="0.017" stop-color="#FDC9A8"/>
<stop offset="1" stop-color="#FDC9A8" stop-opacity="0"/>
</radialGradient>
<linearGradient id="paint25_linear_818_455" x1="13.049" y1="19.2792" x2="14.642" y2="19.4742" gradientUnits="userSpaceOnUse">
<stop stop-color="#D1987A"/>
<stop offset="1" stop-color="#D1987A" stop-opacity="0"/>
</linearGradient>
<linearGradient id="paint26_linear_818_455" x1="15" y1="20.8722" x2="15" y2="19.7342" gradientUnits="userSpaceOnUse">
<stop stop-color="#C57F82"/>
<stop offset="1" stop-color="#C57F82" stop-opacity="0"/>
</linearGradient>
<linearGradient id="paint27_linear_818_455" x1="15.146" y1="20.8232" x2="15.146" y2="20.5632" gradientUnits="userSpaceOnUse">
<stop stop-color="#C27B7C"/>
<stop offset="1" stop-color="#C27B7C" stop-opacity="0"/>
</linearGradient>
<radialGradient id="paint28_radial_818_455" cx="0" cy="0" r="1" gradientUnits="userSpaceOnUse" gradientTransform="translate(15.5351 18.5812) rotate(144.462) scale(2.93624 3.93288)">
<stop offset="0.797" stop-color="#C27B7C" stop-opacity="0"/>
<stop offset="1" stop-color="#C27B7C"/>
</radialGradient>
<linearGradient id="paint29_linear_818_455" x1="13.6411" y1="23.6251" x2="14.4851" y2="22.0001" gradientUnits="userSpaceOnUse">
<stop stop-color="#CE9591"/>
<stop offset="1" stop-color="#CE9591" stop-opacity="0"/>
</linearGradient>
<radialGradient id="paint30_radial_818_455" cx="0" cy="0" r="1" gradientUnits="userSpaceOnUse" gradientTransform="translate(19.0679 15.7869) rotate(90) scale(1.51263 2.406)">
<stop offset="0.802" stop-color="#925C51"/>
<stop offset="1" stop-color="#85534D"/>
</radialGradient>
<radialGradient id="paint31_radial_818_455" cx="0" cy="0" r="1" gradientUnits="userSpaceOnUse" gradientTransform="translate(18.6429 15.944) rotate(-127.812) scale(0.705289 0.971007)">
<stop offset="0.766" stop-color="#FFE6E2" stop-opacity="0"/>
<stop offset="0.966" stop-color="#FFE6E2"/>
</radialGradient>
<linearGradient id="paint32_linear_818_455" x1="20.5189" y1="15.887" x2="19.9339" y2="16.248" gradientUnits="userSpaceOnUse">
<stop stop-color="#B4948D"/>
<stop offset="1" stop-color="#B4948D" stop-opacity="0"/>
</linearGradient>
<radialGradient id="paint33_radial_818_455" cx="0" cy="0" r="1" gradientUnits="userSpaceOnUse" gradientTransform="translate(10.9321 15.787) rotate(90) scale(1.51264 2.40602)">
<stop offset="0.802" stop-color="#925C51"/>
<stop offset="1" stop-color="#85534D"/>
</radialGradient>
<linearGradient id="paint34_linear_818_455" x1="12.319" y1="15.8868" x2="11.733" y2="16.2478" gradientUnits="userSpaceOnUse">
<stop stop-color="#B4948D"/>
<stop offset="1" stop-color="#B4948D" stop-opacity="0"/>
</linearGradient>
<radialGradient id="paint35_radial_818_455" cx="0" cy="0" r="1" gradientUnits="userSpaceOnUse" gradientTransform="translate(10.6763 16.1397) rotate(-118.811) scale(0.92124 1.10737)">
<stop offset="0.766" stop-color="#FFE6E2" stop-opacity="0"/>
<stop offset="0.966" stop-color="#FFE6E2"/>
</radialGradient>
<radialGradient id="paint36_radial_818_455" cx="0" cy="0" r="1" gradientUnits="userSpaceOnUse" gradientTransform="translate(3.89292 5.25002) rotate(54.1904) scale(6.16549 12.2508)">
<stop offset="0.403" stop-color="#DAA88F" stop-opacity="0"/>
<stop offset="1" stop-color="#DAA88F"/>
</radialGradient>
<radialGradient id="paint37_radial_818_455" cx="0" cy="0" r="1" gradientUnits="userSpaceOnUse" gradientTransform="translate(9.93792 5.68802) rotate(127.118) scale(5.80014 4.54883)">
<stop stop-color="#FEE2A9"/>
<stop offset="1" stop-color="#FEE2A9" stop-opacity="0"/>
</radialGradient>
<radialGradient id="paint38_radial_818_455" cx="0" cy="0" r="1" gradientUnits="userSpaceOnUse" gradientTransform="translate(18.5626 2.12479) rotate(115.684) scale(9.0851 12.9186)">
<stop offset="0.595" stop-color="#F0C6A3" stop-opacity="0"/>
<stop offset="1" stop-color="#F0C6A3"/>
</radialGradient>
<radialGradient id="paint39_radial_818_455" cx="0" cy="0" r="1" gradientUnits="userSpaceOnUse" gradientTransform="translate(19.3137 4.31263) rotate(104.957) scale(6.18928 11.048)">
<stop stop-color="#FFFFC0"/>
<stop offset="1" stop-color="#FFFFC0" stop-opacity="0"/>
</radialGradient>
<radialGradient id="paint40_radial_818_455" cx="0" cy="0" r="1" gradientUnits="userSpaceOnUse" gradientTransform="translate(17.4065 14.4995) rotate(-119.068) scale(13.4433 12.0337)">
<stop offset="0.891" stop-color="#DAC493" stop-opacity="0"/>
<stop offset="0.979" stop-color="#DAC493"/>
</radialGradient>
<linearGradient id="paint41_linear_818_455" x1="9.61011" y1="5.34412" x2="10.6251" y2="7.71913" gradientUnits="userSpaceOnUse">
<stop stop-color="#EBCE91"/>
<stop offset="1" stop-color="#E6BD9F"/>
</linearGradient>
</defs>
</svg>
